<mxfile host="app.diagrams.net" modified="2022-08-24T05:43:41.225Z" agent="5.0 (Windows NT 10.0; Win64; x64) AppleWebKit/537.36 (KHTML, like Gecko) Chrome/104.0.0.0 Safari/537.36" etag="8qeLm4aKjd7293BTyQlg" version="20.2.6" type="github" pages="17">
  <diagram id="dM1onCGDWxsFVdCnRzxg" name="01_ACFD_3D 台北系統">
    <mxGraphModel dx="1038" dy="617" grid="1" gridSize="10" guides="1" tooltips="1" connect="1" arrows="1" fold="1" page="1" pageScale="1" pageWidth="827" pageHeight="1169" math="0" shadow="0">
      <root>
        <mxCell id="ty7BwRnAqRJGb1ljHvVz-0" />
        <mxCell id="ty7BwRnAqRJGb1ljHvVz-1" parent="ty7BwRnAqRJGb1ljHvVz-0" />
        <mxCell id="ty7BwRnAqRJGb1ljHvVz-2" value="&lt;font style=&quot;font-size: 15px&quot;&gt;01_ACFD_3D 台北&lt;/font&gt;&lt;font style=&quot;font-size: 15px;&quot;&gt;系統&lt;/font&gt;" style="text;html=1;align=center;verticalAlign=middle;resizable=0;points=[];autosize=1;" parent="ty7BwRnAqRJGb1ljHvVz-1" vertex="1">
          <mxGeometry x="320.25" y="35" width="170" height="20" as="geometry" />
        </mxCell>
        <mxCell id="ty7BwRnAqRJGb1ljHvVz-3" value="使用者" style="html=1;outlineConnect=0;whiteSpace=wrap;fillColor=#ffff99;shape=mxgraph.archimate3.application;appType=actor;archiType=square;verticalAlign=top;" parent="ty7BwRnAqRJGb1ljHvVz-1" vertex="1">
          <mxGeometry x="226.75" y="75" width="365.25" height="120" as="geometry" />
        </mxCell>
        <mxCell id="ty7BwRnAqRJGb1ljHvVz-4" value="維運廠商" style="html=1;outlineConnect=0;whiteSpace=wrap;fillColor=#ffff99;shape=mxgraph.archimate3.application;appType=actor;archiType=square;" parent="ty7BwRnAqRJGb1ljHvVz-1" vertex="1">
          <mxGeometry x="355.25" y="105" width="100" height="70" as="geometry" />
        </mxCell>
        <mxCell id="ty7BwRnAqRJGb1ljHvVz-5" value="市府員工" style="html=1;outlineConnect=0;whiteSpace=wrap;fillColor=#ffff99;shape=mxgraph.archimate3.application;appType=actor;archiType=square;" parent="ty7BwRnAqRJGb1ljHvVz-1" vertex="1">
          <mxGeometry x="471.25" y="105" width="100" height="70" as="geometry" />
        </mxCell>
        <mxCell id="ty7BwRnAqRJGb1ljHvVz-6" value="進入系統服務" style="html=1;outlineConnect=0;whiteSpace=wrap;fillColor=#ffff99;shape=mxgraph.archimate3.service;" parent="ty7BwRnAqRJGb1ljHvVz-1" vertex="1">
          <mxGeometry x="245.75" y="225" width="100" height="35" as="geometry" />
        </mxCell>
        <mxCell id="ty7BwRnAqRJGb1ljHvVz-7" value="系統維運服務" style="html=1;outlineConnect=0;whiteSpace=wrap;fillColor=#ffff99;shape=mxgraph.archimate3.service;" parent="ty7BwRnAqRJGb1ljHvVz-1" vertex="1">
          <mxGeometry x="356.75" y="225" width="100" height="35" as="geometry" />
        </mxCell>
        <mxCell id="ty7BwRnAqRJGb1ljHvVz-8" value="資料更新管理服務" style="html=1;outlineConnect=0;whiteSpace=wrap;fillColor=#ffff99;shape=mxgraph.archimate3.service;" parent="ty7BwRnAqRJGb1ljHvVz-1" vertex="1">
          <mxGeometry x="466.75" y="225" width="100" height="35" as="geometry" />
        </mxCell>
        <mxCell id="ty7BwRnAqRJGb1ljHvVz-13" value="進入系統" style="html=1;outlineConnect=0;whiteSpace=wrap;fillColor=#ffff99;shape=mxgraph.archimate3.application;appType=proc;archiType=rounded;" parent="ty7BwRnAqRJGb1ljHvVz-1" vertex="1">
          <mxGeometry x="245.75" y="297" width="100" height="70" as="geometry" />
        </mxCell>
        <mxCell id="ty7BwRnAqRJGb1ljHvVz-14" value="系統維運" style="html=1;outlineConnect=0;whiteSpace=wrap;fillColor=#ffff99;shape=mxgraph.archimate3.application;appType=proc;archiType=rounded;" parent="ty7BwRnAqRJGb1ljHvVz-1" vertex="1">
          <mxGeometry x="356.75" y="297" width="100" height="70" as="geometry" />
        </mxCell>
        <mxCell id="ty7BwRnAqRJGb1ljHvVz-15" value="資料更新管理" style="html=1;outlineConnect=0;whiteSpace=wrap;fillColor=#ffff99;shape=mxgraph.archimate3.application;appType=proc;archiType=rounded;" parent="ty7BwRnAqRJGb1ljHvVz-1" vertex="1">
          <mxGeometry x="466.75" y="297" width="100" height="70" as="geometry" />
        </mxCell>
        <mxCell id="ty7BwRnAqRJGb1ljHvVz-20" value="進入系統服務" style="html=1;outlineConnect=0;whiteSpace=wrap;fillColor=#99ffff;shape=mxgraph.archimate3.service;" parent="ty7BwRnAqRJGb1ljHvVz-1" vertex="1">
          <mxGeometry x="245.75" y="405" width="100" height="35" as="geometry" />
        </mxCell>
        <mxCell id="ty7BwRnAqRJGb1ljHvVz-21" value="系統維運服務" style="html=1;outlineConnect=0;whiteSpace=wrap;fillColor=#99ffff;shape=mxgraph.archimate3.service;" parent="ty7BwRnAqRJGb1ljHvVz-1" vertex="1">
          <mxGeometry x="356.75" y="405" width="100" height="35" as="geometry" />
        </mxCell>
        <mxCell id="ty7BwRnAqRJGb1ljHvVz-22" value="資料更新管理服務" style="html=1;outlineConnect=0;whiteSpace=wrap;fillColor=#99ffff;shape=mxgraph.archimate3.service;" parent="ty7BwRnAqRJGb1ljHvVz-1" vertex="1">
          <mxGeometry x="466.75" y="405" width="100" height="35" as="geometry" />
        </mxCell>
        <mxCell id="ty7BwRnAqRJGb1ljHvVz-27" value="&lt;span style=&quot;font-size: 15px;&quot;&gt;3D 台北系統&lt;/span&gt;" style="html=1;outlineConnect=0;whiteSpace=wrap;fillColor=#99ffff;shape=mxgraph.archimate3.application;appType=comp;archiType=square;verticalAlign=top;" parent="ty7BwRnAqRJGb1ljHvVz-1" vertex="1">
          <mxGeometry x="8" y="478" width="800" height="317" as="geometry" />
        </mxCell>
        <mxCell id="ty7BwRnAqRJGb1ljHvVz-28" value="智慧城市3D臺北 Web GUI" style="html=1;outlineConnect=0;whiteSpace=wrap;fillColor=#99ffff;shape=mxgraph.archimate3.application;appType=comp;archiType=square;" parent="ty7BwRnAqRJGb1ljHvVz-1" vertex="1">
          <mxGeometry x="357" y="508" width="100" height="70" as="geometry" />
        </mxCell>
        <mxCell id="ty7BwRnAqRJGb1ljHvVz-29" value="智慧城市3D臺北 Core Systems" style="html=1;outlineConnect=0;whiteSpace=wrap;fillColor=#99ffff;shape=mxgraph.archimate3.application;appType=comp;archiType=square;verticalAlign=top;" parent="ty7BwRnAqRJGb1ljHvVz-1" vertex="1">
          <mxGeometry x="17" y="594" width="780" height="191" as="geometry" />
        </mxCell>
        <mxCell id="ty7BwRnAqRJGb1ljHvVz-30" value="&lt;font style=&quot;font-size: 12px&quot;&gt;統計臺北構件&lt;/font&gt;" style="html=1;outlineConnect=0;whiteSpace=wrap;fillColor=#99ffff;shape=mxgraph.archimate3.application;appType=comp;archiType=square;" parent="ty7BwRnAqRJGb1ljHvVz-1" vertex="1">
          <mxGeometry x="27" y="624" width="100" height="70" as="geometry" />
        </mxCell>
        <mxCell id="ty7BwRnAqRJGb1ljHvVz-31" value="防災資訊構件" style="html=1;outlineConnect=0;whiteSpace=wrap;fillColor=#99ffff;shape=mxgraph.archimate3.application;appType=comp;archiType=square;" parent="ty7BwRnAqRJGb1ljHvVz-1" vertex="1">
          <mxGeometry x="137" y="624" width="100" height="70" as="geometry" />
        </mxCell>
        <mxCell id="ty7BwRnAqRJGb1ljHvVz-32" value="交通資訊構件" style="html=1;outlineConnect=0;whiteSpace=wrap;fillColor=#99ffff;shape=mxgraph.archimate3.application;appType=comp;archiType=square;" parent="ty7BwRnAqRJGb1ljHvVz-1" vertex="1">
          <mxGeometry x="247" y="624" width="100" height="70" as="geometry" />
        </mxCell>
        <mxCell id="ty7BwRnAqRJGb1ljHvVz-33" value="城市外交構件" style="html=1;outlineConnect=0;whiteSpace=wrap;fillColor=#99ffff;shape=mxgraph.archimate3.application;appType=comp;archiType=square;" parent="ty7BwRnAqRJGb1ljHvVz-1" vertex="1">
          <mxGeometry x="357" y="624" width="100" height="70" as="geometry" />
        </mxCell>
        <mxCell id="ty7BwRnAqRJGb1ljHvVz-43" value="防火牆" style="html=1;outlineConnect=0;whiteSpace=wrap;fillColor=#AFFFAF;shape=mxgraph.archimate3.tech;techType=sysSw;" parent="ty7BwRnAqRJGb1ljHvVz-1" vertex="1">
          <mxGeometry x="175" y="906" width="80" height="70" as="geometry" />
        </mxCell>
        <mxCell id="ty7BwRnAqRJGb1ljHvVz-44" value="Load &lt;br&gt;Balance" style="html=1;outlineConnect=0;whiteSpace=wrap;fillColor=#AFFFAF;shape=mxgraph.archimate3.tech;techType=sysSw;" parent="ty7BwRnAqRJGb1ljHvVz-1" vertex="1">
          <mxGeometry x="264" y="906" width="80" height="70" as="geometry" />
        </mxCell>
        <mxCell id="ty7BwRnAqRJGb1ljHvVz-45" value="SAN Switch&lt;br&gt;及核心交換器" style="html=1;outlineConnect=0;whiteSpace=wrap;fillColor=#AFFFAF;shape=mxgraph.archimate3.tech;techType=sysSw;" parent="ty7BwRnAqRJGb1ljHvVz-1" vertex="1">
          <mxGeometry x="355" y="905" width="80" height="70" as="geometry" />
        </mxCell>
        <mxCell id="ty7BwRnAqRJGb1ljHvVz-49" value="府內系統相關Servers" style="html=1;outlineConnect=0;whiteSpace=wrap;fillColor=#AFFFAF;shape=mxgraph.archimate3.device;" parent="ty7BwRnAqRJGb1ljHvVz-1" vertex="1">
          <mxGeometry x="571.25" y="905.5" width="80" height="65" as="geometry" />
        </mxCell>
        <mxCell id="ty7BwRnAqRJGb1ljHvVz-52" value="" style="edgeStyle=elbowEdgeStyle;html=1;endArrow=open;elbow=vertical;endFill=1;exitX=0.5;exitY=0;exitDx=0;exitDy=0;exitPerimeter=0;entryX=0.5;entryY=1;entryDx=0;entryDy=0;entryPerimeter=0;" parent="ty7BwRnAqRJGb1ljHvVz-1" target="T1y6oRDA855QlS_ibnOc-0" edge="1">
          <mxGeometry width="160" relative="1" as="geometry">
            <mxPoint x="295.5" y="225" as="sourcePoint" />
            <mxPoint x="296" y="195" as="targetPoint" />
          </mxGeometry>
        </mxCell>
        <mxCell id="ty7BwRnAqRJGb1ljHvVz-53" value="被使用" style="edgeLabel;html=1;align=center;verticalAlign=middle;resizable=0;points=[];" parent="ty7BwRnAqRJGb1ljHvVz-52" vertex="1" connectable="0">
          <mxGeometry x="-0.2604" y="-1" relative="1" as="geometry">
            <mxPoint as="offset" />
          </mxGeometry>
        </mxCell>
        <mxCell id="ty7BwRnAqRJGb1ljHvVz-54" value="" style="edgeStyle=elbowEdgeStyle;html=1;endArrow=open;elbow=vertical;endFill=1;exitX=0.5;exitY=0;exitDx=0;exitDy=0;exitPerimeter=0;" parent="ty7BwRnAqRJGb1ljHvVz-1" edge="1">
          <mxGeometry width="160" relative="1" as="geometry">
            <mxPoint x="404.0500000000002" y="225" as="sourcePoint" />
            <mxPoint x="404.0500000000002" y="176" as="targetPoint" />
          </mxGeometry>
        </mxCell>
        <mxCell id="ty7BwRnAqRJGb1ljHvVz-55" value="被使用" style="edgeLabel;html=1;align=center;verticalAlign=middle;resizable=0;points=[];" parent="ty7BwRnAqRJGb1ljHvVz-54" vertex="1" connectable="0">
          <mxGeometry x="-0.2604" y="-1" relative="1" as="geometry">
            <mxPoint as="offset" />
          </mxGeometry>
        </mxCell>
        <mxCell id="ty7BwRnAqRJGb1ljHvVz-56" value="" style="edgeStyle=elbowEdgeStyle;html=1;endArrow=open;elbow=vertical;endFill=1;exitX=0.5;exitY=0;exitDx=0;exitDy=0;exitPerimeter=0;" parent="ty7BwRnAqRJGb1ljHvVz-1" edge="1">
          <mxGeometry width="160" relative="1" as="geometry">
            <mxPoint x="516.5099999999998" y="225" as="sourcePoint" />
            <mxPoint x="516.5099999999998" y="176" as="targetPoint" />
          </mxGeometry>
        </mxCell>
        <mxCell id="ty7BwRnAqRJGb1ljHvVz-57" value="被使用" style="edgeLabel;html=1;align=center;verticalAlign=middle;resizable=0;points=[];" parent="ty7BwRnAqRJGb1ljHvVz-56" vertex="1" connectable="0">
          <mxGeometry x="-0.2604" y="-1" relative="1" as="geometry">
            <mxPoint as="offset" />
          </mxGeometry>
        </mxCell>
        <mxCell id="ty7BwRnAqRJGb1ljHvVz-66" value="" style="edgeStyle=elbowEdgeStyle;html=1;endArrow=block;elbow=vertical;endFill=0;dashed=1;entryX=0.5;entryY=1;entryDx=0;entryDy=0;entryPerimeter=0;exitX=0.5;exitY=0;exitDx=0;exitDy=0;exitPerimeter=0;" parent="ty7BwRnAqRJGb1ljHvVz-1" source="ty7BwRnAqRJGb1ljHvVz-13" target="ty7BwRnAqRJGb1ljHvVz-6" edge="1">
          <mxGeometry width="160" relative="1" as="geometry">
            <mxPoint x="176.75" y="285.33000000000004" as="sourcePoint" />
            <mxPoint x="336.75" y="285.33000000000004" as="targetPoint" />
          </mxGeometry>
        </mxCell>
        <mxCell id="ty7BwRnAqRJGb1ljHvVz-67" value="實現" style="edgeLabel;html=1;align=center;verticalAlign=middle;resizable=0;points=[];" parent="ty7BwRnAqRJGb1ljHvVz-66" vertex="1" connectable="0">
          <mxGeometry x="-0.299" relative="1" as="geometry">
            <mxPoint as="offset" />
          </mxGeometry>
        </mxCell>
        <mxCell id="ty7BwRnAqRJGb1ljHvVz-68" value="" style="edgeStyle=elbowEdgeStyle;html=1;endArrow=block;elbow=vertical;endFill=0;dashed=1;entryX=0.5;entryY=1;entryDx=0;entryDy=0;entryPerimeter=0;exitX=0.5;exitY=0;exitDx=0;exitDy=0;exitPerimeter=0;" parent="ty7BwRnAqRJGb1ljHvVz-1" edge="1">
          <mxGeometry width="160" relative="1" as="geometry">
            <mxPoint x="406.5799999999999" y="297" as="sourcePoint" />
            <mxPoint x="406.5799999999999" y="260" as="targetPoint" />
          </mxGeometry>
        </mxCell>
        <mxCell id="ty7BwRnAqRJGb1ljHvVz-69" value="實現" style="edgeLabel;html=1;align=center;verticalAlign=middle;resizable=0;points=[];" parent="ty7BwRnAqRJGb1ljHvVz-68" vertex="1" connectable="0">
          <mxGeometry x="-0.299" relative="1" as="geometry">
            <mxPoint as="offset" />
          </mxGeometry>
        </mxCell>
        <mxCell id="ty7BwRnAqRJGb1ljHvVz-70" value="" style="edgeStyle=elbowEdgeStyle;html=1;endArrow=block;elbow=vertical;endFill=0;dashed=1;entryX=0.5;entryY=1;entryDx=0;entryDy=0;entryPerimeter=0;exitX=0.5;exitY=0;exitDx=0;exitDy=0;exitPerimeter=0;" parent="ty7BwRnAqRJGb1ljHvVz-1" edge="1">
          <mxGeometry width="160" relative="1" as="geometry">
            <mxPoint x="516.5099999999998" y="297" as="sourcePoint" />
            <mxPoint x="516.5099999999998" y="260" as="targetPoint" />
          </mxGeometry>
        </mxCell>
        <mxCell id="ty7BwRnAqRJGb1ljHvVz-71" value="實現" style="edgeLabel;html=1;align=center;verticalAlign=middle;resizable=0;points=[];" parent="ty7BwRnAqRJGb1ljHvVz-70" vertex="1" connectable="0">
          <mxGeometry x="-0.299" relative="1" as="geometry">
            <mxPoint as="offset" />
          </mxGeometry>
        </mxCell>
        <mxCell id="ty7BwRnAqRJGb1ljHvVz-80" value="" style="edgeStyle=elbowEdgeStyle;html=1;endArrow=open;elbow=vertical;endFill=1;exitX=0.5;exitY=0;exitDx=0;exitDy=0;exitPerimeter=0;" parent="ty7BwRnAqRJGb1ljHvVz-1" source="ty7BwRnAqRJGb1ljHvVz-20" edge="1">
          <mxGeometry width="160" relative="1" as="geometry">
            <mxPoint x="295.75" y="405" as="sourcePoint" />
            <mxPoint x="295.40999999999985" y="367" as="targetPoint" />
          </mxGeometry>
        </mxCell>
        <mxCell id="ty7BwRnAqRJGb1ljHvVz-81" value="被使用" style="edgeLabel;html=1;align=center;verticalAlign=middle;resizable=0;points=[];" parent="ty7BwRnAqRJGb1ljHvVz-80" vertex="1" connectable="0">
          <mxGeometry x="-0.2604" y="-1" relative="1" as="geometry">
            <mxPoint as="offset" />
          </mxGeometry>
        </mxCell>
        <mxCell id="ty7BwRnAqRJGb1ljHvVz-82" value="" style="edgeStyle=elbowEdgeStyle;html=1;endArrow=open;elbow=vertical;endFill=1;exitX=0.5;exitY=0;exitDx=0;exitDy=0;exitPerimeter=0;" parent="ty7BwRnAqRJGb1ljHvVz-1" edge="1">
          <mxGeometry width="160" relative="1" as="geometry">
            <mxPoint x="406.75" y="405" as="sourcePoint" />
            <mxPoint x="406.40999999999985" y="367" as="targetPoint" />
          </mxGeometry>
        </mxCell>
        <mxCell id="ty7BwRnAqRJGb1ljHvVz-83" value="被使用" style="edgeLabel;html=1;align=center;verticalAlign=middle;resizable=0;points=[];" parent="ty7BwRnAqRJGb1ljHvVz-82" vertex="1" connectable="0">
          <mxGeometry x="-0.2604" y="-1" relative="1" as="geometry">
            <mxPoint as="offset" />
          </mxGeometry>
        </mxCell>
        <mxCell id="ty7BwRnAqRJGb1ljHvVz-84" value="" style="edgeStyle=elbowEdgeStyle;html=1;endArrow=open;elbow=vertical;endFill=1;exitX=0.5;exitY=0;exitDx=0;exitDy=0;exitPerimeter=0;" parent="ty7BwRnAqRJGb1ljHvVz-1" edge="1">
          <mxGeometry width="160" relative="1" as="geometry">
            <mxPoint x="516.75" y="405" as="sourcePoint" />
            <mxPoint x="516.4099999999999" y="367" as="targetPoint" />
          </mxGeometry>
        </mxCell>
        <mxCell id="ty7BwRnAqRJGb1ljHvVz-85" value="被使用" style="edgeLabel;html=1;align=center;verticalAlign=middle;resizable=0;points=[];" parent="ty7BwRnAqRJGb1ljHvVz-84" vertex="1" connectable="0">
          <mxGeometry x="-0.2604" y="-1" relative="1" as="geometry">
            <mxPoint as="offset" />
          </mxGeometry>
        </mxCell>
        <mxCell id="ty7BwRnAqRJGb1ljHvVz-94" value="" style="edgeStyle=elbowEdgeStyle;html=1;endArrow=block;elbow=vertical;endFill=0;dashed=1;entryX=0.5;entryY=1;entryDx=0;entryDy=0;entryPerimeter=0;" parent="ty7BwRnAqRJGb1ljHvVz-1" edge="1">
          <mxGeometry width="160" relative="1" as="geometry">
            <mxPoint x="295.75" y="477" as="sourcePoint" />
            <mxPoint x="295.5100000000002" y="440" as="targetPoint" />
          </mxGeometry>
        </mxCell>
        <mxCell id="ty7BwRnAqRJGb1ljHvVz-95" value="實現" style="edgeLabel;html=1;align=center;verticalAlign=middle;resizable=0;points=[];" parent="ty7BwRnAqRJGb1ljHvVz-94" vertex="1" connectable="0">
          <mxGeometry x="-0.299" relative="1" as="geometry">
            <mxPoint as="offset" />
          </mxGeometry>
        </mxCell>
        <mxCell id="ty7BwRnAqRJGb1ljHvVz-96" value="" style="edgeStyle=elbowEdgeStyle;html=1;endArrow=block;elbow=vertical;endFill=0;dashed=1;entryX=0.5;entryY=1;entryDx=0;entryDy=0;entryPerimeter=0;" parent="ty7BwRnAqRJGb1ljHvVz-1" edge="1">
          <mxGeometry width="160" relative="1" as="geometry">
            <mxPoint x="406.78999999999996" y="478" as="sourcePoint" />
            <mxPoint x="406.5500000000002" y="441" as="targetPoint" />
          </mxGeometry>
        </mxCell>
        <mxCell id="ty7BwRnAqRJGb1ljHvVz-97" value="實現" style="edgeLabel;html=1;align=center;verticalAlign=middle;resizable=0;points=[];" parent="ty7BwRnAqRJGb1ljHvVz-96" vertex="1" connectable="0">
          <mxGeometry x="-0.299" relative="1" as="geometry">
            <mxPoint as="offset" />
          </mxGeometry>
        </mxCell>
        <mxCell id="ty7BwRnAqRJGb1ljHvVz-98" value="" style="edgeStyle=elbowEdgeStyle;html=1;endArrow=block;elbow=vertical;endFill=0;dashed=1;entryX=0.5;entryY=1;entryDx=0;entryDy=0;entryPerimeter=0;" parent="ty7BwRnAqRJGb1ljHvVz-1" edge="1">
          <mxGeometry width="160" relative="1" as="geometry">
            <mxPoint x="516.79" y="478" as="sourcePoint" />
            <mxPoint x="516.5500000000002" y="441" as="targetPoint" />
          </mxGeometry>
        </mxCell>
        <mxCell id="ty7BwRnAqRJGb1ljHvVz-99" value="實現" style="edgeLabel;html=1;align=center;verticalAlign=middle;resizable=0;points=[];" parent="ty7BwRnAqRJGb1ljHvVz-98" vertex="1" connectable="0">
          <mxGeometry x="-0.299" relative="1" as="geometry">
            <mxPoint as="offset" />
          </mxGeometry>
        </mxCell>
        <mxCell id="ty7BwRnAqRJGb1ljHvVz-108" value="" style="edgeStyle=elbowEdgeStyle;html=1;endArrow=open;elbow=vertical;endFill=1;exitX=0.5;exitY=0;exitDx=0;exitDy=0;exitPerimeter=0;" parent="ty7BwRnAqRJGb1ljHvVz-1" edge="1">
          <mxGeometry width="160" relative="1" as="geometry">
            <mxPoint x="300.5999999999999" y="833" as="sourcePoint" />
            <mxPoint x="300.25999999999976" y="795" as="targetPoint" />
          </mxGeometry>
        </mxCell>
        <mxCell id="ty7BwRnAqRJGb1ljHvVz-109" value="被使用" style="edgeLabel;html=1;align=center;verticalAlign=middle;resizable=0;points=[];" parent="ty7BwRnAqRJGb1ljHvVz-108" vertex="1" connectable="0">
          <mxGeometry x="-0.2604" y="-1" relative="1" as="geometry">
            <mxPoint as="offset" />
          </mxGeometry>
        </mxCell>
        <mxCell id="ty7BwRnAqRJGb1ljHvVz-112" value="" style="edgeStyle=elbowEdgeStyle;html=1;endArrow=open;elbow=vertical;endFill=1;exitX=0.5;exitY=0;exitDx=0;exitDy=0;exitPerimeter=0;" parent="ty7BwRnAqRJGb1ljHvVz-1" edge="1">
          <mxGeometry width="160" relative="1" as="geometry">
            <mxPoint x="496.5500000000002" y="833" as="sourcePoint" />
            <mxPoint x="496.21000000000004" y="795" as="targetPoint" />
          </mxGeometry>
        </mxCell>
        <mxCell id="ty7BwRnAqRJGb1ljHvVz-113" value="被使用" style="edgeLabel;html=1;align=center;verticalAlign=middle;resizable=0;points=[];" parent="ty7BwRnAqRJGb1ljHvVz-112" vertex="1" connectable="0">
          <mxGeometry x="-0.2604" y="-1" relative="1" as="geometry">
            <mxPoint as="offset" />
          </mxGeometry>
        </mxCell>
        <mxCell id="ty7BwRnAqRJGb1ljHvVz-114" value="" style="edgeStyle=elbowEdgeStyle;html=1;endArrow=open;elbow=vertical;endFill=1;exitX=0.5;exitY=0;exitDx=0;exitDy=0;exitPerimeter=0;" parent="ty7BwRnAqRJGb1ljHvVz-1" edge="1">
          <mxGeometry width="160" relative="1" as="geometry">
            <mxPoint x="611.5500000000002" y="833" as="sourcePoint" />
            <mxPoint x="611.21" y="795" as="targetPoint" />
          </mxGeometry>
        </mxCell>
        <mxCell id="ty7BwRnAqRJGb1ljHvVz-115" value="被使用" style="edgeLabel;html=1;align=center;verticalAlign=middle;resizable=0;points=[];" parent="ty7BwRnAqRJGb1ljHvVz-114" vertex="1" connectable="0">
          <mxGeometry x="-0.2604" y="-1" relative="1" as="geometry">
            <mxPoint as="offset" />
          </mxGeometry>
        </mxCell>
        <mxCell id="ty7BwRnAqRJGb1ljHvVz-120" value="" style="edgeStyle=elbowEdgeStyle;html=1;endArrow=block;elbow=vertical;endFill=0;dashed=1;entryX=0.5;entryY=1;entryDx=0;entryDy=0;entryPerimeter=0;" parent="ty7BwRnAqRJGb1ljHvVz-1" edge="1">
          <mxGeometry width="160" relative="1" as="geometry">
            <mxPoint x="221.03999999999996" y="906" as="sourcePoint" />
            <mxPoint x="220.80000000000018" y="869" as="targetPoint" />
          </mxGeometry>
        </mxCell>
        <mxCell id="ty7BwRnAqRJGb1ljHvVz-121" value="實現" style="edgeLabel;html=1;align=center;verticalAlign=middle;resizable=0;points=[];" parent="ty7BwRnAqRJGb1ljHvVz-120" vertex="1" connectable="0">
          <mxGeometry x="-0.299" relative="1" as="geometry">
            <mxPoint as="offset" />
          </mxGeometry>
        </mxCell>
        <mxCell id="ty7BwRnAqRJGb1ljHvVz-122" value="" style="edgeStyle=elbowEdgeStyle;html=1;endArrow=block;elbow=vertical;endFill=0;dashed=1;entryX=0.5;entryY=1;entryDx=0;entryDy=0;entryPerimeter=0;" parent="ty7BwRnAqRJGb1ljHvVz-1" edge="1">
          <mxGeometry width="160" relative="1" as="geometry">
            <mxPoint x="307.41999999999985" y="905" as="sourcePoint" />
            <mxPoint x="307.18000000000006" y="868" as="targetPoint" />
          </mxGeometry>
        </mxCell>
        <mxCell id="ty7BwRnAqRJGb1ljHvVz-123" value="實現" style="edgeLabel;html=1;align=center;verticalAlign=middle;resizable=0;points=[];" parent="ty7BwRnAqRJGb1ljHvVz-122" vertex="1" connectable="0">
          <mxGeometry x="-0.299" relative="1" as="geometry">
            <mxPoint as="offset" />
          </mxGeometry>
        </mxCell>
        <mxCell id="ty7BwRnAqRJGb1ljHvVz-124" value="" style="edgeStyle=elbowEdgeStyle;html=1;endArrow=block;elbow=vertical;endFill=0;dashed=1;entryX=0.5;entryY=1;entryDx=0;entryDy=0;entryPerimeter=0;" parent="ty7BwRnAqRJGb1ljHvVz-1" edge="1">
          <mxGeometry width="160" relative="1" as="geometry">
            <mxPoint x="394.9499999999998" y="906" as="sourcePoint" />
            <mxPoint x="394.71000000000004" y="869" as="targetPoint" />
          </mxGeometry>
        </mxCell>
        <mxCell id="ty7BwRnAqRJGb1ljHvVz-125" value="實現" style="edgeLabel;html=1;align=center;verticalAlign=middle;resizable=0;points=[];" parent="ty7BwRnAqRJGb1ljHvVz-124" vertex="1" connectable="0">
          <mxGeometry x="-0.299" relative="1" as="geometry">
            <mxPoint as="offset" />
          </mxGeometry>
        </mxCell>
        <mxCell id="ty7BwRnAqRJGb1ljHvVz-128" value="" style="edgeStyle=elbowEdgeStyle;html=1;endArrow=block;elbow=vertical;endFill=0;dashed=1;entryX=0.5;entryY=1;entryDx=0;entryDy=0;entryPerimeter=0;" parent="ty7BwRnAqRJGb1ljHvVz-1" edge="1">
          <mxGeometry width="160" relative="1" as="geometry">
            <mxPoint x="496.4499999999998" y="905" as="sourcePoint" />
            <mxPoint x="496.21000000000004" y="868" as="targetPoint" />
          </mxGeometry>
        </mxCell>
        <mxCell id="ty7BwRnAqRJGb1ljHvVz-129" value="實現" style="edgeLabel;html=1;align=center;verticalAlign=middle;resizable=0;points=[];" parent="ty7BwRnAqRJGb1ljHvVz-128" vertex="1" connectable="0">
          <mxGeometry x="-0.299" relative="1" as="geometry">
            <mxPoint as="offset" />
          </mxGeometry>
        </mxCell>
        <mxCell id="ty7BwRnAqRJGb1ljHvVz-130" value="" style="edgeStyle=elbowEdgeStyle;html=1;endArrow=block;elbow=vertical;endFill=0;dashed=1;entryX=0.5;entryY=1;entryDx=0;entryDy=0;entryPerimeter=0;" parent="ty7BwRnAqRJGb1ljHvVz-1" edge="1">
          <mxGeometry width="160" relative="1" as="geometry">
            <mxPoint x="611.9499999999998" y="905" as="sourcePoint" />
            <mxPoint x="611.71" y="868" as="targetPoint" />
          </mxGeometry>
        </mxCell>
        <mxCell id="ty7BwRnAqRJGb1ljHvVz-131" value="實現" style="edgeLabel;html=1;align=center;verticalAlign=middle;resizable=0;points=[];" parent="ty7BwRnAqRJGb1ljHvVz-130" vertex="1" connectable="0">
          <mxGeometry x="-0.299" relative="1" as="geometry">
            <mxPoint as="offset" />
          </mxGeometry>
        </mxCell>
        <mxCell id="ty7BwRnAqRJGb1ljHvVz-138" value="都市計畫構件" style="html=1;outlineConnect=0;whiteSpace=wrap;fillColor=#99ffff;shape=mxgraph.archimate3.application;appType=comp;archiType=square;" parent="ty7BwRnAqRJGb1ljHvVz-1" vertex="1">
          <mxGeometry x="465.38" y="624" width="100" height="70" as="geometry" />
        </mxCell>
        <mxCell id="ty7BwRnAqRJGb1ljHvVz-139" value="文化藝術構件" style="html=1;outlineConnect=0;whiteSpace=wrap;fillColor=#99ffff;shape=mxgraph.archimate3.application;appType=comp;archiType=square;" parent="ty7BwRnAqRJGb1ljHvVz-1" vertex="1">
          <mxGeometry x="574.75" y="624" width="100" height="70" as="geometry" />
        </mxCell>
        <mxCell id="ty7BwRnAqRJGb1ljHvVz-140" value="社會福利構件" style="html=1;outlineConnect=0;whiteSpace=wrap;fillColor=#99ffff;shape=mxgraph.archimate3.application;appType=comp;archiType=square;" parent="ty7BwRnAqRJGb1ljHvVz-1" vertex="1">
          <mxGeometry x="244.75" y="705" width="100" height="70" as="geometry" />
        </mxCell>
        <mxCell id="ty7BwRnAqRJGb1ljHvVz-141" value="文化導覽構件" style="html=1;outlineConnect=0;whiteSpace=wrap;fillColor=#99ffff;shape=mxgraph.archimate3.application;appType=comp;archiType=square;" parent="ty7BwRnAqRJGb1ljHvVz-1" vertex="1">
          <mxGeometry x="354.75" y="705" width="100" height="70" as="geometry" />
        </mxCell>
        <mxCell id="ty7BwRnAqRJGb1ljHvVz-142" value="實價登錄構件" style="html=1;outlineConnect=0;whiteSpace=wrap;fillColor=#99ffff;shape=mxgraph.archimate3.application;appType=comp;archiType=square;" parent="ty7BwRnAqRJGb1ljHvVz-1" vertex="1">
          <mxGeometry x="464.75" y="705" width="100" height="70" as="geometry" />
        </mxCell>
        <mxCell id="ty7BwRnAqRJGb1ljHvVz-143" value="空氣品質構件" style="html=1;outlineConnect=0;whiteSpace=wrap;fillColor=#99ffff;shape=mxgraph.archimate3.application;appType=comp;archiType=square;" parent="ty7BwRnAqRJGb1ljHvVz-1" vertex="1">
          <mxGeometry x="574.75" y="705" width="100" height="70" as="geometry" />
        </mxCell>
        <mxCell id="ty7BwRnAqRJGb1ljHvVz-144" value="學習城市構件" style="html=1;outlineConnect=0;whiteSpace=wrap;fillColor=#99ffff;shape=mxgraph.archimate3.application;appType=comp;archiType=square;" parent="ty7BwRnAqRJGb1ljHvVz-1" vertex="1">
          <mxGeometry x="684.75" y="624" width="100" height="70" as="geometry" />
        </mxCell>
        <mxCell id="ty7BwRnAqRJGb1ljHvVz-145" value="休閒生活構件" style="html=1;outlineConnect=0;whiteSpace=wrap;fillColor=#99ffff;shape=mxgraph.archimate3.application;appType=comp;archiType=square;" parent="ty7BwRnAqRJGb1ljHvVz-1" vertex="1">
          <mxGeometry x="27" y="705" width="100" height="70" as="geometry" />
        </mxCell>
        <mxCell id="ty7BwRnAqRJGb1ljHvVz-146" value="市政建設構件" style="html=1;outlineConnect=0;whiteSpace=wrap;fillColor=#99ffff;shape=mxgraph.archimate3.application;appType=comp;archiType=square;" parent="ty7BwRnAqRJGb1ljHvVz-1" vertex="1">
          <mxGeometry x="137" y="705" width="100" height="70" as="geometry" />
        </mxCell>
        <mxCell id="ty7BwRnAqRJGb1ljHvVz-151" value="台北4D城市&lt;br&gt;儀錶板構件" style="html=1;outlineConnect=0;whiteSpace=wrap;fillColor=#99ffff;shape=mxgraph.archimate3.application;appType=comp;archiType=square;" parent="ty7BwRnAqRJGb1ljHvVz-1" vertex="1">
          <mxGeometry x="684.75" y="705" width="100" height="70" as="geometry" />
        </mxCell>
        <mxCell id="gbJHhHUK0WO6iuOo5GZN-4" value="" style="edgeStyle=elbowEdgeStyle;html=1;endArrow=block;elbow=vertical;endFill=0;dashed=1;" parent="ty7BwRnAqRJGb1ljHvVz-1" edge="1">
          <mxGeometry width="160" relative="1" as="geometry">
            <mxPoint x="259.2399999999998" y="991" as="sourcePoint" />
            <mxPoint x="259" y="871" as="targetPoint" />
          </mxGeometry>
        </mxCell>
        <mxCell id="gbJHhHUK0WO6iuOo5GZN-5" value="實現" style="edgeLabel;html=1;align=center;verticalAlign=middle;resizable=0;points=[];" parent="gbJHhHUK0WO6iuOo5GZN-4" vertex="1" connectable="0">
          <mxGeometry x="-0.299" relative="1" as="geometry">
            <mxPoint x="-0.24" y="36.29" as="offset" />
          </mxGeometry>
        </mxCell>
        <mxCell id="gbJHhHUK0WO6iuOo5GZN-6" value="" style="edgeStyle=elbowEdgeStyle;html=1;endArrow=block;elbow=vertical;endFill=0;dashed=1;" parent="ty7BwRnAqRJGb1ljHvVz-1" edge="1">
          <mxGeometry width="160" relative="1" as="geometry">
            <mxPoint x="348.6999999999998" y="995" as="sourcePoint" />
            <mxPoint x="348" y="871" as="targetPoint" />
          </mxGeometry>
        </mxCell>
        <mxCell id="gbJHhHUK0WO6iuOo5GZN-7" value="實現" style="edgeLabel;html=1;align=center;verticalAlign=middle;resizable=0;points=[];" parent="gbJHhHUK0WO6iuOo5GZN-6" vertex="1" connectable="0">
          <mxGeometry x="-0.299" relative="1" as="geometry">
            <mxPoint x="0.050000000000000044" y="32.43" as="offset" />
          </mxGeometry>
        </mxCell>
        <mxCell id="bRoZYbK4-KFla2JUw3-2-0" value="&lt;span&gt;網路資安服務&lt;/span&gt;" style="html=1;outlineConnect=0;whiteSpace=wrap;fillColor=#AFFFAF;shape=mxgraph.archimate3.service;" parent="ty7BwRnAqRJGb1ljHvVz-1" vertex="1">
          <mxGeometry x="175" y="833" width="242" height="35" as="geometry" />
        </mxCell>
        <mxCell id="bRoZYbK4-KFla2JUw3-2-1" value="&lt;span&gt;Interner&lt;/span&gt;" style="html=1;outlineConnect=0;whiteSpace=wrap;fillColor=#AFFFAF;shape=mxgraph.archimate3.application;appType=netw;archiType=square;" parent="ty7BwRnAqRJGb1ljHvVz-1" vertex="1">
          <mxGeometry x="218.75" y="992.5" width="82" height="75" as="geometry" />
        </mxCell>
        <mxCell id="bRoZYbK4-KFla2JUw3-2-2" value="intranet" style="html=1;outlineConnect=0;whiteSpace=wrap;fillColor=#AFFFAF;shape=mxgraph.archimate3.application;appType=netw;archiType=square;" parent="ty7BwRnAqRJGb1ljHvVz-1" vertex="1">
          <mxGeometry x="309.75" y="992.5" width="82" height="75" as="geometry" />
        </mxCell>
        <mxCell id="bRoZYbK4-KFla2JUw3-2-4" value="資料庫服務" style="html=1;outlineConnect=0;whiteSpace=wrap;fillColor=#AFFFAF;shape=mxgraph.archimate3.service;" parent="ty7BwRnAqRJGb1ljHvVz-1" vertex="1">
          <mxGeometry x="448.38" y="833" width="94.75" height="35" as="geometry" />
        </mxCell>
        <mxCell id="bRoZYbK4-KFla2JUw3-2-5" value="府內系統相關Service服務" style="html=1;outlineConnect=0;whiteSpace=wrap;fillColor=#AFFFAF;shape=mxgraph.archimate3.service;" parent="ty7BwRnAqRJGb1ljHvVz-1" vertex="1">
          <mxGeometry x="564.38" y="833" width="94.75" height="35" as="geometry" />
        </mxCell>
        <mxCell id="ty7BwRnAqRJGb1ljHvVz-48" value="3D台北系統&lt;br&gt;資料庫" style="html=1;outlineConnect=0;whiteSpace=wrap;fillColor=#AFFFAF;shape=mxgraph.archimate3.tech;techType=sysSw;" parent="ty7BwRnAqRJGb1ljHvVz-1" vertex="1">
          <mxGeometry x="455.75" y="902.5" width="80" height="70" as="geometry" />
        </mxCell>
        <mxCell id="T1y6oRDA855QlS_ibnOc-0" value="民眾" style="html=1;outlineConnect=0;whiteSpace=wrap;fillColor=#ffff99;shape=mxgraph.archimate3.application;appType=actor;archiType=square;" parent="ty7BwRnAqRJGb1ljHvVz-1" vertex="1">
          <mxGeometry x="245.75" y="105" width="100" height="70" as="geometry" />
        </mxCell>
        <mxCell id="CMXlZYDiz-BBWvCKYwCj-0" value="進入系統服務A" style="html=1;outlineConnect=0;whiteSpace=wrap;fillColor=#ffff99;shape=mxgraph.archimate3.service;" vertex="1" parent="ty7BwRnAqRJGb1ljHvVz-1">
          <mxGeometry x="60" y="225" width="150" height="35" as="geometry" />
        </mxCell>
      </root>
    </mxGraphModel>
  </diagram>
  <diagram id="0zpCVLGcag0En8NVKblM" name="02_UCD_Business Use Case Diagrams_3D台北系統">
    <mxGraphModel dx="910" dy="515" grid="1" gridSize="10" guides="1" tooltips="1" connect="1" arrows="1" fold="1" page="1" pageScale="1" pageWidth="827" pageHeight="1169" math="0" shadow="0">
      <root>
        <mxCell id="0" />
        <mxCell id="1" parent="0" />
        <mxCell id="kmAnRPDoPIJHIl6rU18m-7" value="" style="whiteSpace=wrap;html=1;" parent="1" vertex="1">
          <mxGeometry x="270" y="96" width="320" height="330" as="geometry" />
        </mxCell>
        <mxCell id="kmAnRPDoPIJHIl6rU18m-2" value="進入系統服務" style="ellipse;whiteSpace=wrap;html=1;fontFamily=微軟正黑體;fontSize=14;" parent="1" vertex="1">
          <mxGeometry x="360" y="156" width="140" height="70" as="geometry" />
        </mxCell>
        <mxCell id="kmAnRPDoPIJHIl6rU18m-5" value="資料更新管理" style="ellipse;whiteSpace=wrap;html=1;fontFamily=微軟正黑體;fontSize=14;" parent="1" vertex="1">
          <mxGeometry x="360" y="316" width="140" height="70" as="geometry" />
        </mxCell>
        <mxCell id="kmAnRPDoPIJHIl6rU18m-8" value="&lt;span style=&quot;font-size: 20px;&quot;&gt;3D台北系統&lt;/span&gt;" style="text;html=1;align=center;verticalAlign=middle;resizable=0;points=[];autosize=1;" parent="1" vertex="1">
          <mxGeometry x="370" y="111" width="120" height="20" as="geometry" />
        </mxCell>
        <mxCell id="kmAnRPDoPIJHIl6rU18m-12" style="edgeStyle=none;rounded=0;orthogonalLoop=1;jettySize=auto;html=1;entryX=0;entryY=0.5;entryDx=0;entryDy=0;endArrow=none;endFill=0;" parent="1" source="kmAnRPDoPIJHIl6rU18m-9" target="kmAnRPDoPIJHIl6rU18m-5" edge="1">
          <mxGeometry relative="1" as="geometry" />
        </mxCell>
        <mxCell id="kmAnRPDoPIJHIl6rU18m-9" value="市府員工" style="shape=umlActor;verticalLabelPosition=bottom;verticalAlign=top;html=1;outlineConnect=0;" parent="1" vertex="1">
          <mxGeometry x="170" y="321" width="30" height="60" as="geometry" />
        </mxCell>
        <mxCell id="kmAnRPDoPIJHIl6rU18m-18" style="edgeStyle=none;rounded=0;orthogonalLoop=1;jettySize=auto;html=1;entryX=1;entryY=0.5;entryDx=0;entryDy=0;endArrow=none;endFill=0;" parent="1" source="kmAnRPDoPIJHIl6rU18m-10" target="SkDxbFoVwu8x6UyNqg2E-2" edge="1">
          <mxGeometry relative="1" as="geometry" />
        </mxCell>
        <mxCell id="kmAnRPDoPIJHIl6rU18m-10" value="維運廠商" style="shape=umlActor;verticalLabelPosition=bottom;verticalAlign=top;html=1;outlineConnect=0;" parent="1" vertex="1">
          <mxGeometry x="660" y="241" width="30" height="60" as="geometry" />
        </mxCell>
        <mxCell id="SkDxbFoVwu8x6UyNqg2E-3" style="edgeStyle=orthogonalEdgeStyle;rounded=0;orthogonalLoop=1;jettySize=auto;html=1;entryX=0;entryY=0.5;entryDx=0;entryDy=0;endArrow=none;endFill=0;" parent="1" source="SkDxbFoVwu8x6UyNqg2E-1" target="kmAnRPDoPIJHIl6rU18m-2" edge="1">
          <mxGeometry relative="1" as="geometry" />
        </mxCell>
        <mxCell id="SkDxbFoVwu8x6UyNqg2E-1" value="民眾" style="shape=umlActor;verticalLabelPosition=bottom;verticalAlign=top;html=1;outlineConnect=0;" parent="1" vertex="1">
          <mxGeometry x="170" y="161" width="30" height="60" as="geometry" />
        </mxCell>
        <mxCell id="SkDxbFoVwu8x6UyNqg2E-2" value="系統維運" style="ellipse;whiteSpace=wrap;html=1;fontFamily=微軟正黑體;fontSize=14;" parent="1" vertex="1">
          <mxGeometry x="360" y="236" width="140" height="70" as="geometry" />
        </mxCell>
        <mxCell id="Eq4y9KWwrScr5HwY_xrT-1" value="&lt;font&gt;&lt;span style=&quot;font-size: 20px&quot;&gt;02_UCD_Business Use Case Diagrams_&lt;/span&gt;&lt;span style=&quot;font-size: 20px;&quot;&gt;3D台北系統&lt;/span&gt;&lt;br&gt;&lt;/font&gt;" style="text;html=1;align=center;verticalAlign=middle;resizable=0;points=[];autosize=1;" parent="1" vertex="1">
          <mxGeometry x="169" y="40" width="490" height="20" as="geometry" />
        </mxCell>
      </root>
    </mxGraphModel>
  </diagram>
  <diagram name="02_UCD_Application Use Case Diagrams_3D台北系統" id="2AmvLX5lGPyVUcvUK8bj">
    <mxGraphModel dx="910" dy="515" grid="1" gridSize="10" guides="1" tooltips="1" connect="1" arrows="1" fold="1" page="1" pageScale="1" pageWidth="827" pageHeight="1169" math="0" shadow="0">
      <root>
        <mxCell id="eLLdWnpol5qaDVtGRgno-0" />
        <mxCell id="eLLdWnpol5qaDVtGRgno-1" parent="eLLdWnpol5qaDVtGRgno-0" />
        <mxCell id="eLLdWnpol5qaDVtGRgno-2" value="" style="whiteSpace=wrap;html=1;" parent="eLLdWnpol5qaDVtGRgno-1" vertex="1">
          <mxGeometry x="270" y="107" width="320" height="320" as="geometry" />
        </mxCell>
        <mxCell id="eLLdWnpol5qaDVtGRgno-3" value="進入系統服務" style="ellipse;whiteSpace=wrap;html=1;fontFamily=微軟正黑體;fontSize=14;" parent="eLLdWnpol5qaDVtGRgno-1" vertex="1">
          <mxGeometry x="360" y="167" width="140" height="70" as="geometry" />
        </mxCell>
        <mxCell id="eLLdWnpol5qaDVtGRgno-6" value="資料更新管理" style="ellipse;whiteSpace=wrap;html=1;fontFamily=微軟正黑體;fontSize=14;" parent="eLLdWnpol5qaDVtGRgno-1" vertex="1">
          <mxGeometry x="360" y="327" width="140" height="70" as="geometry" />
        </mxCell>
        <mxCell id="eLLdWnpol5qaDVtGRgno-7" value="&lt;span style=&quot;font-size: 20px;&quot;&gt;3D台北系統&lt;/span&gt;" style="text;html=1;align=center;verticalAlign=middle;resizable=0;points=[];autosize=1;" parent="eLLdWnpol5qaDVtGRgno-1" vertex="1">
          <mxGeometry x="370" y="122" width="120" height="20" as="geometry" />
        </mxCell>
        <mxCell id="eLLdWnpol5qaDVtGRgno-8" style="edgeStyle=none;rounded=0;orthogonalLoop=1;jettySize=auto;html=1;entryX=0;entryY=0.5;entryDx=0;entryDy=0;endArrow=none;endFill=0;" parent="eLLdWnpol5qaDVtGRgno-1" source="eLLdWnpol5qaDVtGRgno-11" target="eLLdWnpol5qaDVtGRgno-6" edge="1">
          <mxGeometry relative="1" as="geometry" />
        </mxCell>
        <mxCell id="eLLdWnpol5qaDVtGRgno-11" value="市府員工" style="shape=umlActor;verticalLabelPosition=bottom;verticalAlign=top;html=1;outlineConnect=0;" parent="eLLdWnpol5qaDVtGRgno-1" vertex="1">
          <mxGeometry x="170" y="332" width="30" height="60" as="geometry" />
        </mxCell>
        <mxCell id="eLLdWnpol5qaDVtGRgno-12" style="edgeStyle=none;rounded=0;orthogonalLoop=1;jettySize=auto;html=1;entryX=1;entryY=0.5;entryDx=0;entryDy=0;endArrow=none;endFill=0;" parent="eLLdWnpol5qaDVtGRgno-1" source="eLLdWnpol5qaDVtGRgno-13" target="eLLdWnpol5qaDVtGRgno-16" edge="1">
          <mxGeometry relative="1" as="geometry" />
        </mxCell>
        <mxCell id="eLLdWnpol5qaDVtGRgno-13" value="維運廠商" style="shape=umlActor;verticalLabelPosition=bottom;verticalAlign=top;html=1;outlineConnect=0;" parent="eLLdWnpol5qaDVtGRgno-1" vertex="1">
          <mxGeometry x="660" y="252" width="30" height="60" as="geometry" />
        </mxCell>
        <mxCell id="eLLdWnpol5qaDVtGRgno-14" style="edgeStyle=orthogonalEdgeStyle;rounded=0;orthogonalLoop=1;jettySize=auto;html=1;entryX=0;entryY=0.5;entryDx=0;entryDy=0;endArrow=none;endFill=0;" parent="eLLdWnpol5qaDVtGRgno-1" source="eLLdWnpol5qaDVtGRgno-15" target="eLLdWnpol5qaDVtGRgno-3" edge="1">
          <mxGeometry relative="1" as="geometry" />
        </mxCell>
        <mxCell id="eLLdWnpol5qaDVtGRgno-15" value="民眾" style="shape=umlActor;verticalLabelPosition=bottom;verticalAlign=top;html=1;outlineConnect=0;" parent="eLLdWnpol5qaDVtGRgno-1" vertex="1">
          <mxGeometry x="170" y="172" width="30" height="60" as="geometry" />
        </mxCell>
        <mxCell id="eLLdWnpol5qaDVtGRgno-16" value="系統維運" style="ellipse;whiteSpace=wrap;html=1;fontFamily=微軟正黑體;fontSize=14;" parent="eLLdWnpol5qaDVtGRgno-1" vertex="1">
          <mxGeometry x="360" y="247" width="140" height="70" as="geometry" />
        </mxCell>
        <mxCell id="eLLdWnpol5qaDVtGRgno-17" value="&lt;font style=&quot;font-size: 20px&quot;&gt;02_UCD_Application Use Case Diagrams_3D台北系統&lt;br&gt;&lt;/font&gt;" style="text;html=1;align=center;verticalAlign=middle;resizable=0;points=[];autosize=1;" parent="eLLdWnpol5qaDVtGRgno-1" vertex="1">
          <mxGeometry x="180" y="40" width="500" height="20" as="geometry" />
        </mxCell>
      </root>
    </mxGraphModel>
  </diagram>
  <diagram id="Nl66zU4bc-HkxwO3T4b3" name="03_BPMN_01_Level 0_進入系統服務">
    <mxGraphModel dx="910" dy="515" grid="1" gridSize="10" guides="1" tooltips="1" connect="1" arrows="1" fold="1" page="1" pageScale="1" pageWidth="1169" pageHeight="827" math="0" shadow="0">
      <root>
        <mxCell id="heqgejfWATC9Zoeq-Nri-0" />
        <mxCell id="heqgejfWATC9Zoeq-Nri-1" parent="heqgejfWATC9Zoeq-Nri-0" />
        <mxCell id="D8pQHVFaIGK7i9ME6TbG-0" value="3D台北系統" style="swimlane;html=1;childLayout=stackLayout;resizeParent=1;resizeParentMax=0;startSize=20;" parent="heqgejfWATC9Zoeq-Nri-1" vertex="1">
          <mxGeometry x="320" y="190" width="290" height="420" as="geometry" />
        </mxCell>
        <mxCell id="D8pQHVFaIGK7i9ME6TbG-1" value="民眾" style="swimlane;html=1;startSize=20;" parent="D8pQHVFaIGK7i9ME6TbG-0" vertex="1">
          <mxGeometry y="20" width="290" height="400" as="geometry" />
        </mxCell>
        <mxCell id="D8pQHVFaIGK7i9ME6TbG-2" style="edgeStyle=orthogonalEdgeStyle;rounded=1;orthogonalLoop=1;jettySize=auto;html=1;entryX=0.5;entryY=0;entryDx=0;entryDy=0;fontSize=12;" parent="D8pQHVFaIGK7i9ME6TbG-1" source="D8pQHVFaIGK7i9ME6TbG-3" target="Quzyp4nVB_slvUqgulEX-0" edge="1">
          <mxGeometry relative="1" as="geometry">
            <mxPoint x="325" y="120" as="targetPoint" />
          </mxGeometry>
        </mxCell>
        <mxCell id="D8pQHVFaIGK7i9ME6TbG-3" value="" style="shape=mxgraph.bpmn.shape;html=1;verticalLabelPosition=bottom;labelBackgroundColor=#ffffff;verticalAlign=top;align=center;perimeter=ellipsePerimeter;outlineConnect=0;outline=standard;symbol=general;fontFamily=微軟正黑體;fontSize=14;" parent="D8pQHVFaIGK7i9ME6TbG-1" vertex="1">
          <mxGeometry x="120" y="40" width="50" height="50" as="geometry" />
        </mxCell>
        <mxCell id="D8pQHVFaIGK7i9ME6TbG-16" value="" style="shape=mxgraph.bpmn.shape;html=1;verticalLabelPosition=bottom;labelBackgroundColor=#ffffff;verticalAlign=top;align=center;perimeter=ellipsePerimeter;outlineConnect=0;outline=end;symbol=general;fontFamily=微軟正黑體;fontSize=14;" parent="D8pQHVFaIGK7i9ME6TbG-1" vertex="1">
          <mxGeometry x="120" y="330" width="50" height="50" as="geometry" />
        </mxCell>
        <mxCell id="D8pQHVFaIGK7i9ME6TbG-50" style="edgeStyle=orthogonalEdgeStyle;rounded=1;orthogonalLoop=1;jettySize=auto;html=1;entryX=0.5;entryY=0;entryDx=0;entryDy=0;fontSize=12;exitX=0;exitY=0.5;exitDx=0;exitDy=0;" parent="D8pQHVFaIGK7i9ME6TbG-1" source="Quzyp4nVB_slvUqgulEX-0" edge="1">
          <mxGeometry relative="1" as="geometry">
            <mxPoint x="300" y="145" as="sourcePoint" />
            <mxPoint x="80" y="210" as="targetPoint" />
          </mxGeometry>
        </mxCell>
        <mxCell id="D8pQHVFaIGK7i9ME6TbG-52" style="edgeStyle=orthogonalEdgeStyle;rounded=1;orthogonalLoop=1;jettySize=auto;html=1;entryX=0.5;entryY=0;entryDx=0;entryDy=0;fontSize=12;exitX=0;exitY=0.5;exitDx=0;exitDy=0;" parent="D8pQHVFaIGK7i9ME6TbG-1" source="Quzyp4nVB_slvUqgulEX-0" target="D8pQHVFaIGK7i9ME6TbG-64" edge="1">
          <mxGeometry relative="1" as="geometry">
            <Array as="points">
              <mxPoint x="207" y="145" />
            </Array>
            <mxPoint x="300" y="145" as="sourcePoint" />
            <mxPoint x="205" y="210" as="targetPoint" />
          </mxGeometry>
        </mxCell>
        <mxCell id="D8pQHVFaIGK7i9ME6TbG-73" style="edgeStyle=orthogonalEdgeStyle;rounded=1;orthogonalLoop=1;jettySize=auto;html=1;entryX=0;entryY=0.5;entryDx=0;entryDy=0;" parent="D8pQHVFaIGK7i9ME6TbG-1" source="D8pQHVFaIGK7i9ME6TbG-62" target="D8pQHVFaIGK7i9ME6TbG-16" edge="1">
          <mxGeometry relative="1" as="geometry">
            <Array as="points">
              <mxPoint x="80" y="355" />
            </Array>
          </mxGeometry>
        </mxCell>
        <mxCell id="D8pQHVFaIGK7i9ME6TbG-62" value="&lt;font style=&quot;font-size: 12px&quot;&gt;智慧城市3D台北&lt;/font&gt;" style="html=1;whiteSpace=wrap;rounded=1;fontFamily=微軟正黑體;fontSize=14;" parent="D8pQHVFaIGK7i9ME6TbG-1" vertex="1">
          <mxGeometry x="30" y="210" width="100" height="80" as="geometry" />
        </mxCell>
        <UserObject label="" link="data:page/id,jQUmSZ4QsnT62ELFB8Ex" id="D8pQHVFaIGK7i9ME6TbG-63">
          <mxCell style="html=1;shape=plus;outlineConnect=0;fontFamily=微軟正黑體;fontSize=14;" parent="D8pQHVFaIGK7i9ME6TbG-62" vertex="1">
            <mxGeometry x="0.5" y="1" width="14" height="14" relative="1" as="geometry">
              <mxPoint x="-7" y="-14" as="offset" />
            </mxGeometry>
          </mxCell>
        </UserObject>
        <mxCell id="D8pQHVFaIGK7i9ME6TbG-74" style="edgeStyle=orthogonalEdgeStyle;rounded=1;orthogonalLoop=1;jettySize=auto;html=1;entryX=1;entryY=0.5;entryDx=0;entryDy=0;exitX=0.5;exitY=1;exitDx=0;exitDy=0;" parent="D8pQHVFaIGK7i9ME6TbG-1" source="D8pQHVFaIGK7i9ME6TbG-65" target="D8pQHVFaIGK7i9ME6TbG-16" edge="1">
          <mxGeometry relative="1" as="geometry">
            <Array as="points">
              <mxPoint x="207" y="355" />
            </Array>
          </mxGeometry>
        </mxCell>
        <mxCell id="D8pQHVFaIGK7i9ME6TbG-64" value="&lt;span class=&quot;fontstyle0&quot;&gt;&lt;font style=&quot;font-size: 12px;&quot;&gt;統計資料庫&lt;br&gt;查詢系統&lt;/font&gt;&lt;/span&gt; " style="html=1;whiteSpace=wrap;rounded=1;fontFamily=微軟正黑體;fontSize=14;" parent="D8pQHVFaIGK7i9ME6TbG-1" vertex="1">
          <mxGeometry x="157" y="210" width="100" height="80" as="geometry" />
        </mxCell>
        <UserObject label="" link="data:page/id,Mc9D3HgziyTy6CkTLCU5" id="D8pQHVFaIGK7i9ME6TbG-65">
          <mxCell style="html=1;shape=plus;outlineConnect=0;fontFamily=微軟正黑體;fontSize=14;" parent="D8pQHVFaIGK7i9ME6TbG-64" vertex="1">
            <mxGeometry x="0.5" y="1" width="14" height="14" relative="1" as="geometry">
              <mxPoint x="-7" y="-14" as="offset" />
            </mxGeometry>
          </mxCell>
        </UserObject>
        <mxCell id="Quzyp4nVB_slvUqgulEX-0" value="" style="shape=mxgraph.bpmn.shape;html=1;verticalLabelPosition=bottom;labelBackgroundColor=#ffffff;verticalAlign=top;align=center;perimeter=rhombusPerimeter;background=gateway;outlineConnect=0;outline=none;symbol=exclusiveGw;fontFamily=微軟正黑體;fontSize=14;" parent="D8pQHVFaIGK7i9ME6TbG-1" vertex="1">
          <mxGeometry x="120" y="120" width="50" height="50" as="geometry" />
        </mxCell>
        <mxCell id="D8pQHVFaIGK7i9ME6TbG-77" value="&lt;font style=&quot;font-size: 20px&quot;&gt;03_BPMN_01_Level 0_進入系統服務&lt;/font&gt;" style="text;html=1;align=center;verticalAlign=middle;resizable=0;points=[];autosize=1;" parent="heqgejfWATC9Zoeq-Nri-1" vertex="1">
          <mxGeometry x="290" y="140" width="350" height="20" as="geometry" />
        </mxCell>
      </root>
    </mxGraphModel>
  </diagram>
  <diagram name="03_BPMN_01_01_智慧城市3D台北" id="jQUmSZ4QsnT62ELFB8Ex">
    <mxGraphModel dx="910" dy="515" grid="1" gridSize="10" guides="1" tooltips="1" connect="1" arrows="1" fold="1" page="1" pageScale="1" pageWidth="1169" pageHeight="827" math="0" shadow="0">
      <root>
        <mxCell id="KFW7b2lvfJ16VD_TCrer-0" />
        <mxCell id="KFW7b2lvfJ16VD_TCrer-1" parent="KFW7b2lvfJ16VD_TCrer-0" />
        <mxCell id="KFW7b2lvfJ16VD_TCrer-94" value="3D台北系統" style="swimlane;html=1;childLayout=stackLayout;resizeParent=1;resizeParentMax=0;startSize=20;" parent="KFW7b2lvfJ16VD_TCrer-1" vertex="1">
          <mxGeometry x="30" y="90" width="1110" height="550" as="geometry" />
        </mxCell>
        <mxCell id="KFW7b2lvfJ16VD_TCrer-95" value="民眾" style="swimlane;html=1;startSize=20;" parent="KFW7b2lvfJ16VD_TCrer-94" vertex="1">
          <mxGeometry y="20" width="1110" height="530" as="geometry" />
        </mxCell>
        <mxCell id="KFW7b2lvfJ16VD_TCrer-96" style="edgeStyle=orthogonalEdgeStyle;rounded=1;orthogonalLoop=1;jettySize=auto;html=1;entryX=0.5;entryY=0;entryDx=0;entryDy=0;fontSize=12;" parent="KFW7b2lvfJ16VD_TCrer-95" source="KFW7b2lvfJ16VD_TCrer-97" target="ITy21ShE9jNJX9Lea9Zd-0" edge="1">
          <mxGeometry relative="1" as="geometry">
            <mxPoint x="267" y="120" as="targetPoint" />
          </mxGeometry>
        </mxCell>
        <mxCell id="KFW7b2lvfJ16VD_TCrer-97" value="" style="shape=mxgraph.bpmn.shape;html=1;verticalLabelPosition=bottom;labelBackgroundColor=#ffffff;verticalAlign=top;align=center;perimeter=ellipsePerimeter;outlineConnect=0;outline=standard;symbol=general;fontFamily=微軟正黑體;fontSize=14;" parent="KFW7b2lvfJ16VD_TCrer-95" vertex="1">
          <mxGeometry x="525" y="40" width="50" height="50" as="geometry" />
        </mxCell>
        <mxCell id="KFW7b2lvfJ16VD_TCrer-98" value="" style="shape=mxgraph.bpmn.shape;html=1;verticalLabelPosition=bottom;labelBackgroundColor=#ffffff;verticalAlign=top;align=center;perimeter=ellipsePerimeter;outlineConnect=0;outline=end;symbol=general;fontFamily=微軟正黑體;fontSize=14;" parent="KFW7b2lvfJ16VD_TCrer-95" vertex="1">
          <mxGeometry x="525" y="450" width="50" height="50" as="geometry" />
        </mxCell>
        <mxCell id="KFW7b2lvfJ16VD_TCrer-99" style="edgeStyle=orthogonalEdgeStyle;rounded=1;orthogonalLoop=1;jettySize=auto;html=1;entryX=0.5;entryY=0;entryDx=0;entryDy=0;fontSize=12;exitX=0;exitY=0.5;exitDx=0;exitDy=0;" parent="KFW7b2lvfJ16VD_TCrer-95" source="ITy21ShE9jNJX9Lea9Zd-0" target="KFW7b2lvfJ16VD_TCrer-59" edge="1">
          <mxGeometry relative="1" as="geometry">
            <mxPoint x="242" y="145" as="sourcePoint" />
            <mxPoint x="22" y="210" as="targetPoint" />
          </mxGeometry>
        </mxCell>
        <mxCell id="KFW7b2lvfJ16VD_TCrer-100" style="edgeStyle=orthogonalEdgeStyle;rounded=1;orthogonalLoop=1;jettySize=auto;html=1;entryX=0.5;entryY=0;entryDx=0;entryDy=0;fontSize=12;exitX=0;exitY=0.5;exitDx=0;exitDy=0;" parent="KFW7b2lvfJ16VD_TCrer-95" source="ITy21ShE9jNJX9Lea9Zd-0" target="KFW7b2lvfJ16VD_TCrer-43" edge="1">
          <mxGeometry relative="1" as="geometry">
            <Array as="points">
              <mxPoint x="150" y="145" />
            </Array>
            <mxPoint x="242" y="145" as="sourcePoint" />
            <mxPoint x="147" y="210" as="targetPoint" />
          </mxGeometry>
        </mxCell>
        <mxCell id="KFW7b2lvfJ16VD_TCrer-102" style="edgeStyle=orthogonalEdgeStyle;rounded=1;orthogonalLoop=1;jettySize=auto;html=1;fontSize=12;entryX=0.5;entryY=0;entryDx=0;entryDy=0;exitX=0;exitY=0.5;exitDx=0;exitDy=0;" parent="KFW7b2lvfJ16VD_TCrer-95" source="ITy21ShE9jNJX9Lea9Zd-0" target="KFW7b2lvfJ16VD_TCrer-37" edge="1">
          <mxGeometry relative="1" as="geometry">
            <mxPoint x="292" y="145" as="sourcePoint" />
            <mxPoint x="512" y="210" as="targetPoint" />
          </mxGeometry>
        </mxCell>
        <mxCell id="KFW7b2lvfJ16VD_TCrer-103" style="edgeStyle=orthogonalEdgeStyle;rounded=1;orthogonalLoop=1;jettySize=auto;html=1;entryX=0.5;entryY=0;entryDx=0;entryDy=0;fontSize=12;exitX=0;exitY=0.5;exitDx=0;exitDy=0;" parent="KFW7b2lvfJ16VD_TCrer-95" source="ITy21ShE9jNJX9Lea9Zd-0" target="KFW7b2lvfJ16VD_TCrer-46" edge="1">
          <mxGeometry relative="1" as="geometry">
            <mxPoint x="350" y="145" as="sourcePoint" />
            <mxPoint x="392.5" y="210" as="targetPoint" />
            <Array as="points">
              <mxPoint x="230" y="145" />
            </Array>
          </mxGeometry>
        </mxCell>
        <mxCell id="KFW7b2lvfJ16VD_TCrer-105" style="edgeStyle=orthogonalEdgeStyle;rounded=1;orthogonalLoop=1;jettySize=auto;html=1;entryX=0;entryY=0.5;entryDx=0;entryDy=0;exitX=0.5;exitY=1;exitDx=0;exitDy=0;startArrow=none;" parent="KFW7b2lvfJ16VD_TCrer-95" source="KFW7b2lvfJ16VD_TCrer-43" target="KFW7b2lvfJ16VD_TCrer-98" edge="1">
          <mxGeometry relative="1" as="geometry">
            <mxPoint x="22" y="290" as="sourcePoint" />
            <Array as="points">
              <mxPoint x="150" y="475" />
            </Array>
          </mxGeometry>
        </mxCell>
        <mxCell id="KFW7b2lvfJ16VD_TCrer-108" style="edgeStyle=orthogonalEdgeStyle;rounded=1;orthogonalLoop=1;jettySize=auto;html=1;entryX=0;entryY=0.5;entryDx=0;entryDy=0;exitX=0.5;exitY=1;exitDx=0;exitDy=0;" parent="KFW7b2lvfJ16VD_TCrer-95" source="KFW7b2lvfJ16VD_TCrer-43" target="KFW7b2lvfJ16VD_TCrer-98" edge="1">
          <mxGeometry relative="1" as="geometry">
            <mxPoint x="147" y="290" as="sourcePoint" />
            <Array as="points">
              <mxPoint x="150" y="475" />
            </Array>
          </mxGeometry>
        </mxCell>
        <mxCell id="KFW7b2lvfJ16VD_TCrer-114" style="edgeStyle=orthogonalEdgeStyle;rounded=1;orthogonalLoop=1;jettySize=auto;html=1;entryX=0;entryY=0.5;entryDx=0;entryDy=0;exitX=0.5;exitY=1;exitDx=0;exitDy=0;" parent="KFW7b2lvfJ16VD_TCrer-95" source="KFW7b2lvfJ16VD_TCrer-46" target="KFW7b2lvfJ16VD_TCrer-98" edge="1">
          <mxGeometry relative="1" as="geometry">
            <mxPoint x="392" y="290" as="sourcePoint" />
            <Array as="points">
              <mxPoint x="230" y="475" />
            </Array>
          </mxGeometry>
        </mxCell>
        <mxCell id="KFW7b2lvfJ16VD_TCrer-119" style="edgeStyle=orthogonalEdgeStyle;rounded=1;orthogonalLoop=1;jettySize=auto;html=1;entryX=0;entryY=0.5;entryDx=0;entryDy=0;exitX=0.5;exitY=1;exitDx=0;exitDy=0;" parent="KFW7b2lvfJ16VD_TCrer-95" source="KFW7b2lvfJ16VD_TCrer-37" target="KFW7b2lvfJ16VD_TCrer-98" edge="1">
          <mxGeometry relative="1" as="geometry">
            <mxPoint x="292" y="350" as="targetPoint" />
            <mxPoint x="512" y="290" as="sourcePoint" />
            <Array as="points">
              <mxPoint x="310" y="475" />
            </Array>
          </mxGeometry>
        </mxCell>
        <mxCell id="KFW7b2lvfJ16VD_TCrer-59" value="&lt;span style=&quot;font-size: 12px;&quot;&gt;統計台北&lt;/span&gt;" style="html=1;whiteSpace=wrap;rounded=1;fontFamily=微軟正黑體;fontSize=14;align=center;" parent="KFW7b2lvfJ16VD_TCrer-95" vertex="1">
          <mxGeometry x="22" y="210" width="100" height="80" as="geometry" />
        </mxCell>
        <mxCell id="KFW7b2lvfJ16VD_TCrer-60" value="" style="html=1;shape=mxgraph.bpmn.user_task;outlineConnect=0;fontFamily=微軟正黑體;fontSize=14;align=left;" parent="KFW7b2lvfJ16VD_TCrer-59" vertex="1">
          <mxGeometry width="14" height="14" relative="1" as="geometry">
            <mxPoint x="7" y="7" as="offset" />
          </mxGeometry>
        </mxCell>
        <mxCell id="KFW7b2lvfJ16VD_TCrer-46" value="交通資訊" style="html=1;whiteSpace=wrap;rounded=1;fontFamily=微軟正黑體;fontSize=12;align=center;" parent="KFW7b2lvfJ16VD_TCrer-95" vertex="1">
          <mxGeometry x="180" y="210" width="100" height="80" as="geometry" />
        </mxCell>
        <mxCell id="KFW7b2lvfJ16VD_TCrer-47" value="" style="html=1;shape=mxgraph.bpmn.user_task;outlineConnect=0;fontFamily=微軟正黑體;fontSize=14;align=left;" parent="KFW7b2lvfJ16VD_TCrer-46" vertex="1">
          <mxGeometry width="14" height="14" relative="1" as="geometry">
            <mxPoint x="7" y="7" as="offset" />
          </mxGeometry>
        </mxCell>
        <mxCell id="KFW7b2lvfJ16VD_TCrer-37" value="空氣汙染" style="html=1;whiteSpace=wrap;rounded=1;fontFamily=微軟正黑體;fontSize=12;align=center;" parent="KFW7b2lvfJ16VD_TCrer-95" vertex="1">
          <mxGeometry x="260" y="330" width="100" height="80" as="geometry" />
        </mxCell>
        <mxCell id="KFW7b2lvfJ16VD_TCrer-38" value="" style="html=1;shape=mxgraph.bpmn.user_task;outlineConnect=0;fontFamily=微軟正黑體;fontSize=14;align=left;" parent="KFW7b2lvfJ16VD_TCrer-37" vertex="1">
          <mxGeometry width="14" height="14" relative="1" as="geometry">
            <mxPoint x="7" y="7" as="offset" />
          </mxGeometry>
        </mxCell>
        <mxCell id="6Dj1ftSNZiOZT07AsL27-6" style="edgeStyle=orthogonalEdgeStyle;rounded=1;orthogonalLoop=1;jettySize=auto;html=1;entryX=0.5;entryY=0;entryDx=0;entryDy=0;" parent="KFW7b2lvfJ16VD_TCrer-95" source="ITy21ShE9jNJX9Lea9Zd-0" target="6Dj1ftSNZiOZT07AsL27-0" edge="1">
          <mxGeometry relative="1" as="geometry" />
        </mxCell>
        <mxCell id="6Dj1ftSNZiOZT07AsL27-7" style="edgeStyle=orthogonalEdgeStyle;rounded=1;orthogonalLoop=1;jettySize=auto;html=1;entryX=0.5;entryY=0;entryDx=0;entryDy=0;" parent="KFW7b2lvfJ16VD_TCrer-95" source="ITy21ShE9jNJX9Lea9Zd-0" target="6Dj1ftSNZiOZT07AsL27-2" edge="1">
          <mxGeometry relative="1" as="geometry" />
        </mxCell>
        <mxCell id="6Dj1ftSNZiOZT07AsL27-8" style="edgeStyle=orthogonalEdgeStyle;rounded=1;orthogonalLoop=1;jettySize=auto;html=1;entryX=0.5;entryY=0;entryDx=0;entryDy=0;" parent="KFW7b2lvfJ16VD_TCrer-95" source="ITy21ShE9jNJX9Lea9Zd-0" target="6Dj1ftSNZiOZT07AsL27-4" edge="1">
          <mxGeometry relative="1" as="geometry" />
        </mxCell>
        <mxCell id="AqW2zeRlfAL-vhNHmNca-6" style="edgeStyle=orthogonalEdgeStyle;rounded=1;orthogonalLoop=1;jettySize=auto;html=1;entryX=0.5;entryY=0;entryDx=0;entryDy=0;fontSize=12;" parent="KFW7b2lvfJ16VD_TCrer-95" source="ITy21ShE9jNJX9Lea9Zd-0" target="AqW2zeRlfAL-vhNHmNca-2" edge="1">
          <mxGeometry relative="1" as="geometry" />
        </mxCell>
        <mxCell id="AqW2zeRlfAL-vhNHmNca-9" style="edgeStyle=orthogonalEdgeStyle;rounded=1;orthogonalLoop=1;jettySize=auto;html=1;entryX=0.5;entryY=0;entryDx=0;entryDy=0;fontSize=12;" parent="KFW7b2lvfJ16VD_TCrer-95" source="ITy21ShE9jNJX9Lea9Zd-0" target="AqW2zeRlfAL-vhNHmNca-7" edge="1">
          <mxGeometry relative="1" as="geometry" />
        </mxCell>
        <mxCell id="AqW2zeRlfAL-vhNHmNca-16" style="edgeStyle=orthogonalEdgeStyle;rounded=1;orthogonalLoop=1;jettySize=auto;html=1;entryX=0.5;entryY=0;entryDx=0;entryDy=0;fontSize=12;" parent="KFW7b2lvfJ16VD_TCrer-95" source="ITy21ShE9jNJX9Lea9Zd-0" target="AqW2zeRlfAL-vhNHmNca-0" edge="1">
          <mxGeometry relative="1" as="geometry" />
        </mxCell>
        <mxCell id="AqW2zeRlfAL-vhNHmNca-17" style="edgeStyle=orthogonalEdgeStyle;rounded=1;orthogonalLoop=1;jettySize=auto;html=1;entryX=0.5;entryY=0;entryDx=0;entryDy=0;fontSize=12;" parent="KFW7b2lvfJ16VD_TCrer-95" source="ITy21ShE9jNJX9Lea9Zd-0" target="AqW2zeRlfAL-vhNHmNca-10" edge="1">
          <mxGeometry relative="1" as="geometry" />
        </mxCell>
        <mxCell id="AqW2zeRlfAL-vhNHmNca-18" style="edgeStyle=orthogonalEdgeStyle;rounded=1;orthogonalLoop=1;jettySize=auto;html=1;entryX=0.5;entryY=0;entryDx=0;entryDy=0;fontSize=12;" parent="KFW7b2lvfJ16VD_TCrer-95" source="ITy21ShE9jNJX9Lea9Zd-0" target="AqW2zeRlfAL-vhNHmNca-14" edge="1">
          <mxGeometry relative="1" as="geometry" />
        </mxCell>
        <mxCell id="AqW2zeRlfAL-vhNHmNca-19" style="edgeStyle=orthogonalEdgeStyle;rounded=1;orthogonalLoop=1;jettySize=auto;html=1;entryX=0.5;entryY=0;entryDx=0;entryDy=0;fontSize=12;" parent="KFW7b2lvfJ16VD_TCrer-95" source="ITy21ShE9jNJX9Lea9Zd-0" target="AqW2zeRlfAL-vhNHmNca-12" edge="1">
          <mxGeometry relative="1" as="geometry" />
        </mxCell>
        <mxCell id="ITy21ShE9jNJX9Lea9Zd-0" value="" style="shape=mxgraph.bpmn.shape;html=1;verticalLabelPosition=bottom;labelBackgroundColor=#ffffff;verticalAlign=top;align=center;perimeter=rhombusPerimeter;background=gateway;outlineConnect=0;outline=none;symbol=exclusiveGw;fontFamily=微軟正黑體;fontSize=14;" parent="KFW7b2lvfJ16VD_TCrer-95" vertex="1">
          <mxGeometry x="525" y="120" width="50" height="50" as="geometry" />
        </mxCell>
        <mxCell id="6Dj1ftSNZiOZT07AsL27-9" style="edgeStyle=orthogonalEdgeStyle;rounded=1;orthogonalLoop=1;jettySize=auto;html=1;entryX=0;entryY=0.5;entryDx=0;entryDy=0;exitX=0.5;exitY=1;exitDx=0;exitDy=0;" parent="KFW7b2lvfJ16VD_TCrer-95" source="6Dj1ftSNZiOZT07AsL27-0" target="KFW7b2lvfJ16VD_TCrer-98" edge="1">
          <mxGeometry relative="1" as="geometry">
            <Array as="points">
              <mxPoint x="390" y="475" />
            </Array>
          </mxGeometry>
        </mxCell>
        <mxCell id="6Dj1ftSNZiOZT07AsL27-0" value="城市外交" style="html=1;whiteSpace=wrap;rounded=1;fontFamily=微軟正黑體;fontSize=12;align=center;" parent="KFW7b2lvfJ16VD_TCrer-95" vertex="1">
          <mxGeometry x="340" y="210" width="100" height="80" as="geometry" />
        </mxCell>
        <mxCell id="6Dj1ftSNZiOZT07AsL27-1" value="" style="html=1;shape=mxgraph.bpmn.user_task;outlineConnect=0;fontFamily=微軟正黑體;fontSize=14;align=left;" parent="6Dj1ftSNZiOZT07AsL27-0" vertex="1">
          <mxGeometry width="14" height="14" relative="1" as="geometry">
            <mxPoint x="7" y="7" as="offset" />
          </mxGeometry>
        </mxCell>
        <mxCell id="6Dj1ftSNZiOZT07AsL27-2" value="都市計畫" style="html=1;whiteSpace=wrap;rounded=1;fontFamily=微軟正黑體;fontSize=12;align=center;" parent="KFW7b2lvfJ16VD_TCrer-95" vertex="1">
          <mxGeometry x="420" y="330" width="100" height="80" as="geometry" />
        </mxCell>
        <mxCell id="6Dj1ftSNZiOZT07AsL27-3" value="" style="html=1;shape=mxgraph.bpmn.user_task;outlineConnect=0;fontFamily=微軟正黑體;fontSize=14;align=left;" parent="6Dj1ftSNZiOZT07AsL27-2" vertex="1">
          <mxGeometry width="14" height="14" relative="1" as="geometry">
            <mxPoint x="7" y="7" as="offset" />
          </mxGeometry>
        </mxCell>
        <mxCell id="6Dj1ftSNZiOZT07AsL27-11" style="edgeStyle=orthogonalEdgeStyle;rounded=1;orthogonalLoop=1;jettySize=auto;html=1;entryX=0.5;entryY=0;entryDx=0;entryDy=0;" parent="KFW7b2lvfJ16VD_TCrer-95" source="6Dj1ftSNZiOZT07AsL27-4" target="KFW7b2lvfJ16VD_TCrer-98" edge="1">
          <mxGeometry relative="1" as="geometry">
            <Array as="points">
              <mxPoint x="550" y="360" />
              <mxPoint x="550" y="500" />
            </Array>
          </mxGeometry>
        </mxCell>
        <mxCell id="6Dj1ftSNZiOZT07AsL27-4" value="文化藝術" style="html=1;whiteSpace=wrap;rounded=1;fontFamily=微軟正黑體;fontSize=12;align=center;" parent="KFW7b2lvfJ16VD_TCrer-95" vertex="1">
          <mxGeometry x="500" y="210" width="100" height="80" as="geometry" />
        </mxCell>
        <mxCell id="6Dj1ftSNZiOZT07AsL27-5" value="" style="html=1;shape=mxgraph.bpmn.user_task;outlineConnect=0;fontFamily=微軟正黑體;fontSize=14;align=left;" parent="6Dj1ftSNZiOZT07AsL27-4" vertex="1">
          <mxGeometry width="14" height="14" relative="1" as="geometry">
            <mxPoint x="7" y="7" as="offset" />
          </mxGeometry>
        </mxCell>
        <mxCell id="6Dj1ftSNZiOZT07AsL27-10" style="edgeStyle=orthogonalEdgeStyle;rounded=1;orthogonalLoop=1;jettySize=auto;html=1;entryX=0;entryY=0.5;entryDx=0;entryDy=0;exitX=0.5;exitY=1;exitDx=0;exitDy=0;" parent="KFW7b2lvfJ16VD_TCrer-95" source="6Dj1ftSNZiOZT07AsL27-2" target="KFW7b2lvfJ16VD_TCrer-98" edge="1">
          <mxGeometry relative="1" as="geometry">
            <mxPoint x="670" y="380" as="targetPoint" />
            <Array as="points">
              <mxPoint x="470" y="475" />
            </Array>
          </mxGeometry>
        </mxCell>
        <mxCell id="AqW2zeRlfAL-vhNHmNca-20" style="edgeStyle=orthogonalEdgeStyle;rounded=1;orthogonalLoop=1;jettySize=auto;html=1;entryX=1;entryY=0.5;entryDx=0;entryDy=0;fontSize=12;exitX=0.5;exitY=1;exitDx=0;exitDy=0;" parent="KFW7b2lvfJ16VD_TCrer-95" source="AqW2zeRlfAL-vhNHmNca-2" target="KFW7b2lvfJ16VD_TCrer-98" edge="1">
          <mxGeometry relative="1" as="geometry" />
        </mxCell>
        <mxCell id="AqW2zeRlfAL-vhNHmNca-2" value="學習城市" style="html=1;whiteSpace=wrap;rounded=1;fontFamily=微軟正黑體;fontSize=12;align=center;" parent="KFW7b2lvfJ16VD_TCrer-95" vertex="1">
          <mxGeometry x="581" y="330" width="100" height="80" as="geometry" />
        </mxCell>
        <mxCell id="AqW2zeRlfAL-vhNHmNca-3" value="" style="html=1;shape=mxgraph.bpmn.user_task;outlineConnect=0;fontFamily=微軟正黑體;fontSize=14;align=left;" parent="AqW2zeRlfAL-vhNHmNca-2" vertex="1">
          <mxGeometry width="14" height="14" relative="1" as="geometry">
            <mxPoint x="7" y="7" as="offset" />
          </mxGeometry>
        </mxCell>
        <mxCell id="AqW2zeRlfAL-vhNHmNca-22" style="edgeStyle=orthogonalEdgeStyle;rounded=1;orthogonalLoop=1;jettySize=auto;html=1;entryX=1;entryY=0.5;entryDx=0;entryDy=0;fontSize=12;exitX=0.5;exitY=1;exitDx=0;exitDy=0;" parent="KFW7b2lvfJ16VD_TCrer-95" source="AqW2zeRlfAL-vhNHmNca-0" target="KFW7b2lvfJ16VD_TCrer-98" edge="1">
          <mxGeometry relative="1" as="geometry" />
        </mxCell>
        <mxCell id="AqW2zeRlfAL-vhNHmNca-0" value="休閒生活" style="html=1;whiteSpace=wrap;rounded=1;fontFamily=微軟正黑體;fontSize=12;align=center;" parent="KFW7b2lvfJ16VD_TCrer-95" vertex="1">
          <mxGeometry x="660" y="210" width="100" height="80" as="geometry" />
        </mxCell>
        <mxCell id="AqW2zeRlfAL-vhNHmNca-1" value="" style="html=1;shape=mxgraph.bpmn.user_task;outlineConnect=0;fontFamily=微軟正黑體;fontSize=14;align=left;" parent="AqW2zeRlfAL-vhNHmNca-0" vertex="1">
          <mxGeometry width="14" height="14" relative="1" as="geometry">
            <mxPoint x="7" y="7" as="offset" />
          </mxGeometry>
        </mxCell>
        <mxCell id="KFW7b2lvfJ16VD_TCrer-43" value="防災資訊" style="html=1;whiteSpace=wrap;rounded=1;fontFamily=微軟正黑體;fontSize=12;align=center;" parent="KFW7b2lvfJ16VD_TCrer-95" vertex="1">
          <mxGeometry x="100" y="330" width="100" height="80" as="geometry" />
        </mxCell>
        <mxCell id="KFW7b2lvfJ16VD_TCrer-44" value="" style="html=1;shape=mxgraph.bpmn.user_task;outlineConnect=0;fontFamily=微軟正黑體;fontSize=14;align=left;" parent="KFW7b2lvfJ16VD_TCrer-43" vertex="1">
          <mxGeometry width="14" height="14" relative="1" as="geometry">
            <mxPoint x="7" y="7" as="offset" />
          </mxGeometry>
        </mxCell>
        <mxCell id="AqW2zeRlfAL-vhNHmNca-5" value="" style="edgeStyle=orthogonalEdgeStyle;rounded=1;orthogonalLoop=1;jettySize=auto;html=1;entryX=0;entryY=0.5;entryDx=0;entryDy=0;exitX=0.5;exitY=1;exitDx=0;exitDy=0;endArrow=none;" parent="KFW7b2lvfJ16VD_TCrer-95" source="KFW7b2lvfJ16VD_TCrer-59" target="KFW7b2lvfJ16VD_TCrer-98" edge="1">
          <mxGeometry relative="1" as="geometry">
            <mxPoint x="102" y="400" as="sourcePoint" />
            <Array as="points" />
            <mxPoint x="579.9999999999859" y="635" as="targetPoint" />
          </mxGeometry>
        </mxCell>
        <mxCell id="AqW2zeRlfAL-vhNHmNca-21" style="edgeStyle=orthogonalEdgeStyle;rounded=1;orthogonalLoop=1;jettySize=auto;html=1;entryX=1;entryY=0.5;entryDx=0;entryDy=0;fontSize=12;exitX=0.5;exitY=1;exitDx=0;exitDy=0;" parent="KFW7b2lvfJ16VD_TCrer-95" source="AqW2zeRlfAL-vhNHmNca-7" target="KFW7b2lvfJ16VD_TCrer-98" edge="1">
          <mxGeometry relative="1" as="geometry" />
        </mxCell>
        <mxCell id="AqW2zeRlfAL-vhNHmNca-7" value="市政建設" style="html=1;whiteSpace=wrap;rounded=1;fontFamily=微軟正黑體;fontSize=12;align=center;" parent="KFW7b2lvfJ16VD_TCrer-95" vertex="1">
          <mxGeometry x="740" y="330" width="100" height="80" as="geometry" />
        </mxCell>
        <mxCell id="AqW2zeRlfAL-vhNHmNca-8" value="" style="html=1;shape=mxgraph.bpmn.user_task;outlineConnect=0;fontFamily=微軟正黑體;fontSize=14;align=left;" parent="AqW2zeRlfAL-vhNHmNca-7" vertex="1">
          <mxGeometry width="14" height="14" relative="1" as="geometry">
            <mxPoint x="7" y="7" as="offset" />
          </mxGeometry>
        </mxCell>
        <mxCell id="AqW2zeRlfAL-vhNHmNca-23" style="edgeStyle=orthogonalEdgeStyle;rounded=1;orthogonalLoop=1;jettySize=auto;html=1;entryX=1;entryY=0.5;entryDx=0;entryDy=0;fontSize=12;exitX=0.5;exitY=1;exitDx=0;exitDy=0;" parent="KFW7b2lvfJ16VD_TCrer-95" source="AqW2zeRlfAL-vhNHmNca-10" target="KFW7b2lvfJ16VD_TCrer-98" edge="1">
          <mxGeometry relative="1" as="geometry" />
        </mxCell>
        <mxCell id="AqW2zeRlfAL-vhNHmNca-10" value="社會福利" style="html=1;whiteSpace=wrap;rounded=1;fontFamily=微軟正黑體;fontSize=12;align=center;" parent="KFW7b2lvfJ16VD_TCrer-95" vertex="1">
          <mxGeometry x="820" y="210" width="100" height="80" as="geometry" />
        </mxCell>
        <mxCell id="AqW2zeRlfAL-vhNHmNca-11" value="" style="html=1;shape=mxgraph.bpmn.user_task;outlineConnect=0;fontFamily=微軟正黑體;fontSize=14;align=left;" parent="AqW2zeRlfAL-vhNHmNca-10" vertex="1">
          <mxGeometry width="14" height="14" relative="1" as="geometry">
            <mxPoint x="7" y="7" as="offset" />
          </mxGeometry>
        </mxCell>
        <mxCell id="AqW2zeRlfAL-vhNHmNca-24" style="edgeStyle=orthogonalEdgeStyle;rounded=1;orthogonalLoop=1;jettySize=auto;html=1;entryX=1;entryY=0.5;entryDx=0;entryDy=0;fontSize=12;exitX=0.5;exitY=1;exitDx=0;exitDy=0;" parent="KFW7b2lvfJ16VD_TCrer-95" source="AqW2zeRlfAL-vhNHmNca-12" target="KFW7b2lvfJ16VD_TCrer-98" edge="1">
          <mxGeometry relative="1" as="geometry" />
        </mxCell>
        <mxCell id="AqW2zeRlfAL-vhNHmNca-12" value="實價登錄" style="html=1;whiteSpace=wrap;rounded=1;fontFamily=微軟正黑體;fontSize=12;align=center;" parent="KFW7b2lvfJ16VD_TCrer-95" vertex="1">
          <mxGeometry x="900" y="330" width="100" height="80" as="geometry" />
        </mxCell>
        <mxCell id="AqW2zeRlfAL-vhNHmNca-13" value="" style="html=1;shape=mxgraph.bpmn.user_task;outlineConnect=0;fontFamily=微軟正黑體;fontSize=14;align=left;" parent="AqW2zeRlfAL-vhNHmNca-12" vertex="1">
          <mxGeometry width="14" height="14" relative="1" as="geometry">
            <mxPoint x="7" y="7" as="offset" />
          </mxGeometry>
        </mxCell>
        <mxCell id="AqW2zeRlfAL-vhNHmNca-25" style="edgeStyle=orthogonalEdgeStyle;rounded=1;orthogonalLoop=1;jettySize=auto;html=1;entryX=1;entryY=0.5;entryDx=0;entryDy=0;fontSize=12;exitX=0.5;exitY=1;exitDx=0;exitDy=0;" parent="KFW7b2lvfJ16VD_TCrer-95" source="AqW2zeRlfAL-vhNHmNca-14" target="KFW7b2lvfJ16VD_TCrer-98" edge="1">
          <mxGeometry relative="1" as="geometry" />
        </mxCell>
        <mxCell id="AqW2zeRlfAL-vhNHmNca-14" value="文化導覽" style="html=1;whiteSpace=wrap;rounded=1;fontFamily=微軟正黑體;fontSize=12;align=center;" parent="KFW7b2lvfJ16VD_TCrer-95" vertex="1">
          <mxGeometry x="980" y="210" width="100" height="80" as="geometry" />
        </mxCell>
        <mxCell id="AqW2zeRlfAL-vhNHmNca-15" value="" style="html=1;shape=mxgraph.bpmn.user_task;outlineConnect=0;fontFamily=微軟正黑體;fontSize=14;align=left;" parent="AqW2zeRlfAL-vhNHmNca-14" vertex="1">
          <mxGeometry width="14" height="14" relative="1" as="geometry">
            <mxPoint x="7" y="7" as="offset" />
          </mxGeometry>
        </mxCell>
        <mxCell id="KFW7b2lvfJ16VD_TCrer-120" value="&lt;font style=&quot;font-size: 20px&quot;&gt;03_BPMN_01_01_智慧城市3D台北&lt;/font&gt;" style="text;html=1;align=center;verticalAlign=middle;resizable=0;points=[];autosize=1;" parent="KFW7b2lvfJ16VD_TCrer-1" vertex="1">
          <mxGeometry x="420" y="50" width="330" height="20" as="geometry" />
        </mxCell>
      </root>
    </mxGraphModel>
  </diagram>
  <diagram name="03_BPMN_01_02_統計資料庫查詢系統" id="Mc9D3HgziyTy6CkTLCU5">
    <mxGraphModel dx="910" dy="515" grid="1" gridSize="10" guides="1" tooltips="1" connect="1" arrows="1" fold="1" page="1" pageScale="1" pageWidth="1169" pageHeight="827" math="0" shadow="0">
      <root>
        <mxCell id="v-cYaVgkCgBfBu-Syo6J-0" />
        <mxCell id="v-cYaVgkCgBfBu-Syo6J-1" parent="v-cYaVgkCgBfBu-Syo6J-0" />
        <mxCell id="v-cYaVgkCgBfBu-Syo6J-80" value="3D台北系統" style="swimlane;html=1;childLayout=stackLayout;resizeParent=1;resizeParentMax=0;startSize=20;" parent="v-cYaVgkCgBfBu-Syo6J-1" vertex="1">
          <mxGeometry x="120" y="170" width="660" height="420" as="geometry" />
        </mxCell>
        <mxCell id="v-cYaVgkCgBfBu-Syo6J-81" value="民眾" style="swimlane;html=1;startSize=20;" parent="v-cYaVgkCgBfBu-Syo6J-80" vertex="1">
          <mxGeometry y="20" width="660" height="400" as="geometry" />
        </mxCell>
        <mxCell id="v-cYaVgkCgBfBu-Syo6J-82" style="edgeStyle=orthogonalEdgeStyle;rounded=1;orthogonalLoop=1;jettySize=auto;html=1;entryX=0.5;entryY=0;entryDx=0;entryDy=0;fontSize=12;" parent="v-cYaVgkCgBfBu-Syo6J-81" source="v-cYaVgkCgBfBu-Syo6J-83" target="vQ8ORpAptgFEpwrm1hNi-0" edge="1">
          <mxGeometry relative="1" as="geometry">
            <mxPoint x="205" y="120" as="targetPoint" />
          </mxGeometry>
        </mxCell>
        <mxCell id="v-cYaVgkCgBfBu-Syo6J-83" value="" style="shape=mxgraph.bpmn.shape;html=1;verticalLabelPosition=bottom;labelBackgroundColor=#ffffff;verticalAlign=top;align=center;perimeter=ellipsePerimeter;outlineConnect=0;outline=standard;symbol=general;fontFamily=微軟正黑體;fontSize=14;" parent="v-cYaVgkCgBfBu-Syo6J-81" vertex="1">
          <mxGeometry x="305" y="40" width="50" height="50" as="geometry" />
        </mxCell>
        <mxCell id="v-cYaVgkCgBfBu-Syo6J-84" value="" style="shape=mxgraph.bpmn.shape;html=1;verticalLabelPosition=bottom;labelBackgroundColor=#ffffff;verticalAlign=top;align=center;perimeter=ellipsePerimeter;outlineConnect=0;outline=end;symbol=general;fontFamily=微軟正黑體;fontSize=14;" parent="v-cYaVgkCgBfBu-Syo6J-81" vertex="1">
          <mxGeometry x="305" y="330" width="50" height="50" as="geometry" />
        </mxCell>
        <mxCell id="v-cYaVgkCgBfBu-Syo6J-85" style="edgeStyle=orthogonalEdgeStyle;rounded=1;orthogonalLoop=1;jettySize=auto;html=1;entryX=0.5;entryY=0;entryDx=0;entryDy=0;fontSize=12;exitX=0;exitY=0.5;exitDx=0;exitDy=0;" parent="v-cYaVgkCgBfBu-Syo6J-81" source="vQ8ORpAptgFEpwrm1hNi-0" target="v-cYaVgkCgBfBu-Syo6J-37" edge="1">
          <mxGeometry relative="1" as="geometry">
            <mxPoint x="180" y="145" as="sourcePoint" />
            <mxPoint x="10" y="210" as="targetPoint" />
          </mxGeometry>
        </mxCell>
        <mxCell id="v-cYaVgkCgBfBu-Syo6J-87" style="edgeStyle=orthogonalEdgeStyle;rounded=1;orthogonalLoop=1;jettySize=auto;html=1;fontSize=12;entryX=0.5;entryY=0;entryDx=0;entryDy=0;exitX=0.5;exitY=1;exitDx=0;exitDy=0;" parent="v-cYaVgkCgBfBu-Syo6J-81" source="vQ8ORpAptgFEpwrm1hNi-0" target="v-cYaVgkCgBfBu-Syo6J-100" edge="1">
          <mxGeometry relative="1" as="geometry">
            <mxPoint x="230" y="145" as="sourcePoint" />
            <mxPoint x="450" y="210" as="targetPoint" />
          </mxGeometry>
        </mxCell>
        <mxCell id="v-cYaVgkCgBfBu-Syo6J-89" style="edgeStyle=orthogonalEdgeStyle;rounded=1;orthogonalLoop=1;jettySize=auto;html=1;entryX=0;entryY=0.5;entryDx=0;entryDy=0;exitX=0.5;exitY=1;exitDx=0;exitDy=0;" parent="v-cYaVgkCgBfBu-Syo6J-81" source="v-cYaVgkCgBfBu-Syo6J-37" target="v-cYaVgkCgBfBu-Syo6J-84" edge="1">
          <mxGeometry relative="1" as="geometry">
            <mxPoint x="10" y="290" as="sourcePoint" />
            <Array as="points">
              <mxPoint x="80" y="355" />
            </Array>
          </mxGeometry>
        </mxCell>
        <mxCell id="v-cYaVgkCgBfBu-Syo6J-92" style="edgeStyle=orthogonalEdgeStyle;rounded=1;orthogonalLoop=1;jettySize=auto;html=1;entryX=0.5;entryY=0;entryDx=0;entryDy=0;exitX=0.5;exitY=1;exitDx=0;exitDy=0;" parent="v-cYaVgkCgBfBu-Syo6J-81" source="v-cYaVgkCgBfBu-Syo6J-100" target="v-cYaVgkCgBfBu-Syo6J-84" edge="1">
          <mxGeometry relative="1" as="geometry">
            <mxPoint x="230" y="350" as="targetPoint" />
            <mxPoint x="450" y="290" as="sourcePoint" />
            <Array as="points" />
          </mxGeometry>
        </mxCell>
        <mxCell id="_N9I-qQHRbNrQBIJyg8h-0" style="edgeStyle=orthogonalEdgeStyle;rounded=1;orthogonalLoop=1;jettySize=auto;html=1;entryX=0.5;entryY=0;entryDx=0;entryDy=0;exitX=0;exitY=0.5;exitDx=0;exitDy=0;" parent="v-cYaVgkCgBfBu-Syo6J-81" source="vQ8ORpAptgFEpwrm1hNi-0" target="v-cYaVgkCgBfBu-Syo6J-41" edge="1">
          <mxGeometry relative="1" as="geometry">
            <mxPoint x="205" y="170" as="sourcePoint" />
          </mxGeometry>
        </mxCell>
        <mxCell id="v-cYaVgkCgBfBu-Syo6J-100" value="物價統計資料庫" style="html=1;whiteSpace=wrap;rounded=1;fontFamily=微軟正黑體;fontSize=12;align=center;" parent="v-cYaVgkCgBfBu-Syo6J-81" vertex="1">
          <mxGeometry x="280" y="210" width="100" height="80" as="geometry" />
        </mxCell>
        <mxCell id="v-cYaVgkCgBfBu-Syo6J-101" value="" style="html=1;shape=mxgraph.bpmn.user_task;outlineConnect=0;fontFamily=微軟正黑體;fontSize=14;align=left;" parent="v-cYaVgkCgBfBu-Syo6J-100" vertex="1">
          <mxGeometry width="14" height="14" relative="1" as="geometry">
            <mxPoint x="7" y="7" as="offset" />
          </mxGeometry>
        </mxCell>
        <mxCell id="_N9I-qQHRbNrQBIJyg8h-1" style="edgeStyle=orthogonalEdgeStyle;rounded=1;orthogonalLoop=1;jettySize=auto;html=1;entryX=0;entryY=0.5;entryDx=0;entryDy=0;exitX=0.5;exitY=1;exitDx=0;exitDy=0;" parent="v-cYaVgkCgBfBu-Syo6J-81" source="v-cYaVgkCgBfBu-Syo6J-41" target="v-cYaVgkCgBfBu-Syo6J-84" edge="1">
          <mxGeometry relative="1" as="geometry" />
        </mxCell>
        <mxCell id="v-cYaVgkCgBfBu-Syo6J-41" value="重要統計指標" style="html=1;whiteSpace=wrap;rounded=1;fontFamily=微軟正黑體;fontSize=12;" parent="v-cYaVgkCgBfBu-Syo6J-81" vertex="1">
          <mxGeometry x="155" y="210" width="100" height="80" as="geometry" />
        </mxCell>
        <mxCell id="v-cYaVgkCgBfBu-Syo6J-42" value="" style="html=1;shape=mxgraph.bpmn.user_task;outlineConnect=0;fontFamily=微軟正黑體;fontSize=14;" parent="v-cYaVgkCgBfBu-Syo6J-41" vertex="1">
          <mxGeometry width="14" height="14" relative="1" as="geometry">
            <mxPoint x="7" y="7" as="offset" />
          </mxGeometry>
        </mxCell>
        <mxCell id="v-cYaVgkCgBfBu-Syo6J-37" value="重要統計資料庫" style="html=1;whiteSpace=wrap;rounded=1;fontFamily=微軟正黑體;fontSize=12;align=center;" parent="v-cYaVgkCgBfBu-Syo6J-81" vertex="1">
          <mxGeometry x="30" y="210" width="100" height="80" as="geometry" />
        </mxCell>
        <mxCell id="v-cYaVgkCgBfBu-Syo6J-38" value="" style="html=1;shape=mxgraph.bpmn.user_task;outlineConnect=0;fontFamily=微軟正黑體;fontSize=14;align=left;" parent="v-cYaVgkCgBfBu-Syo6J-37" vertex="1">
          <mxGeometry width="14" height="14" relative="1" as="geometry">
            <mxPoint x="7" y="7" as="offset" />
          </mxGeometry>
        </mxCell>
        <mxCell id="kvgnxi-Ofpms0jr49Ce8-4" style="edgeStyle=orthogonalEdgeStyle;rounded=1;orthogonalLoop=1;jettySize=auto;html=1;entryX=0.5;entryY=0;entryDx=0;entryDy=0;" parent="v-cYaVgkCgBfBu-Syo6J-81" source="vQ8ORpAptgFEpwrm1hNi-0" target="kvgnxi-Ofpms0jr49Ce8-0" edge="1">
          <mxGeometry relative="1" as="geometry" />
        </mxCell>
        <mxCell id="kvgnxi-Ofpms0jr49Ce8-7" style="edgeStyle=orthogonalEdgeStyle;rounded=1;orthogonalLoop=1;jettySize=auto;html=1;entryX=0.5;entryY=0;entryDx=0;entryDy=0;" parent="v-cYaVgkCgBfBu-Syo6J-81" source="vQ8ORpAptgFEpwrm1hNi-0" target="kvgnxi-Ofpms0jr49Ce8-2" edge="1">
          <mxGeometry relative="1" as="geometry" />
        </mxCell>
        <mxCell id="vQ8ORpAptgFEpwrm1hNi-0" value="" style="shape=mxgraph.bpmn.shape;html=1;verticalLabelPosition=bottom;labelBackgroundColor=#ffffff;verticalAlign=top;align=center;perimeter=rhombusPerimeter;background=gateway;outlineConnect=0;outline=none;symbol=exclusiveGw;fontFamily=微軟正黑體;fontSize=14;" parent="v-cYaVgkCgBfBu-Syo6J-81" vertex="1">
          <mxGeometry x="305" y="120" width="50" height="50" as="geometry" />
        </mxCell>
        <mxCell id="kvgnxi-Ofpms0jr49Ce8-5" style="edgeStyle=orthogonalEdgeStyle;rounded=1;orthogonalLoop=1;jettySize=auto;html=1;entryX=1;entryY=0.5;entryDx=0;entryDy=0;exitX=0.5;exitY=1;exitDx=0;exitDy=0;" parent="v-cYaVgkCgBfBu-Syo6J-81" source="kvgnxi-Ofpms0jr49Ce8-0" target="v-cYaVgkCgBfBu-Syo6J-84" edge="1">
          <mxGeometry relative="1" as="geometry" />
        </mxCell>
        <mxCell id="kvgnxi-Ofpms0jr49Ce8-0" value="家庭收支資料庫" style="html=1;whiteSpace=wrap;rounded=1;fontFamily=微軟正黑體;fontSize=12;align=center;" parent="v-cYaVgkCgBfBu-Syo6J-81" vertex="1">
          <mxGeometry x="405" y="210" width="100" height="80" as="geometry" />
        </mxCell>
        <mxCell id="kvgnxi-Ofpms0jr49Ce8-1" value="" style="html=1;shape=mxgraph.bpmn.user_task;outlineConnect=0;fontFamily=微軟正黑體;fontSize=14;align=left;" parent="kvgnxi-Ofpms0jr49Ce8-0" vertex="1">
          <mxGeometry width="14" height="14" relative="1" as="geometry">
            <mxPoint x="7" y="7" as="offset" />
          </mxGeometry>
        </mxCell>
        <mxCell id="kvgnxi-Ofpms0jr49Ce8-6" style="edgeStyle=orthogonalEdgeStyle;rounded=1;orthogonalLoop=1;jettySize=auto;html=1;entryX=1;entryY=0.5;entryDx=0;entryDy=0;" parent="v-cYaVgkCgBfBu-Syo6J-81" source="kvgnxi-Ofpms0jr49Ce8-2" target="v-cYaVgkCgBfBu-Syo6J-84" edge="1">
          <mxGeometry relative="1" as="geometry">
            <Array as="points">
              <mxPoint x="580" y="355" />
            </Array>
          </mxGeometry>
        </mxCell>
        <mxCell id="kvgnxi-Ofpms0jr49Ce8-2" value="臺北市各級學校&lt;br&gt;概況" style="html=1;whiteSpace=wrap;rounded=1;fontFamily=微軟正黑體;fontSize=12;align=center;" parent="v-cYaVgkCgBfBu-Syo6J-81" vertex="1">
          <mxGeometry x="528" y="210" width="100" height="80" as="geometry" />
        </mxCell>
        <mxCell id="kvgnxi-Ofpms0jr49Ce8-3" value="" style="html=1;shape=mxgraph.bpmn.user_task;outlineConnect=0;fontFamily=微軟正黑體;fontSize=14;align=left;" parent="kvgnxi-Ofpms0jr49Ce8-2" vertex="1">
          <mxGeometry width="14" height="14" relative="1" as="geometry">
            <mxPoint x="7" y="7" as="offset" />
          </mxGeometry>
        </mxCell>
        <mxCell id="v-cYaVgkCgBfBu-Syo6J-102" value="&lt;font style=&quot;font-size: 20px&quot;&gt;03_BPMN_01_02_&lt;/font&gt;&lt;span style=&quot;font-family: 微軟正黑體;&quot;&gt;&lt;font style=&quot;font-size: 20px;&quot;&gt;統計資料庫查詢系統&lt;/font&gt;&lt;/span&gt;" style="text;html=1;align=center;verticalAlign=middle;resizable=0;points=[];autosize=1;" parent="v-cYaVgkCgBfBu-Syo6J-1" vertex="1">
          <mxGeometry x="270" y="120" width="360" height="20" as="geometry" />
        </mxCell>
      </root>
    </mxGraphModel>
  </diagram>
  <diagram name="03_BPMN_02_Level 0_資料更新管理" id="UwkM62sK-wyMihTHO4J3">
    <mxGraphModel dx="910" dy="515" grid="1" gridSize="10" guides="1" tooltips="1" connect="1" arrows="1" fold="1" page="1" pageScale="1" pageWidth="1169" pageHeight="827" math="0" shadow="0">
      <root>
        <mxCell id="2lIp_Dph4CiPPlQwj3T4-0" />
        <mxCell id="2lIp_Dph4CiPPlQwj3T4-1" parent="2lIp_Dph4CiPPlQwj3T4-0" />
        <mxCell id="2lIp_Dph4CiPPlQwj3T4-2" value="3D台北系統" style="swimlane;html=1;childLayout=stackLayout;resizeParent=1;resizeParentMax=0;startSize=20;" parent="2lIp_Dph4CiPPlQwj3T4-1" vertex="1">
          <mxGeometry x="320" y="190" width="290" height="330" as="geometry" />
        </mxCell>
        <mxCell id="2lIp_Dph4CiPPlQwj3T4-3" value="市府員工" style="swimlane;html=1;startSize=20;" parent="2lIp_Dph4CiPPlQwj3T4-2" vertex="1">
          <mxGeometry y="20" width="290" height="310" as="geometry" />
        </mxCell>
        <mxCell id="2lIp_Dph4CiPPlQwj3T4-4" style="edgeStyle=orthogonalEdgeStyle;rounded=1;orthogonalLoop=1;jettySize=auto;html=1;entryX=0.5;entryY=0;entryDx=0;entryDy=0;fontSize=12;" parent="2lIp_Dph4CiPPlQwj3T4-3" source="2lIp_Dph4CiPPlQwj3T4-5" edge="1">
          <mxGeometry relative="1" as="geometry">
            <mxPoint x="145" y="120" as="targetPoint" />
          </mxGeometry>
        </mxCell>
        <mxCell id="2lIp_Dph4CiPPlQwj3T4-5" value="" style="shape=mxgraph.bpmn.shape;html=1;verticalLabelPosition=bottom;labelBackgroundColor=#ffffff;verticalAlign=top;align=center;perimeter=ellipsePerimeter;outlineConnect=0;outline=standard;symbol=general;fontFamily=微軟正黑體;fontSize=14;" parent="2lIp_Dph4CiPPlQwj3T4-3" vertex="1">
          <mxGeometry x="120" y="40" width="50" height="50" as="geometry" />
        </mxCell>
        <mxCell id="2lIp_Dph4CiPPlQwj3T4-6" value="" style="shape=mxgraph.bpmn.shape;html=1;verticalLabelPosition=bottom;labelBackgroundColor=#ffffff;verticalAlign=top;align=center;perimeter=ellipsePerimeter;outlineConnect=0;outline=end;symbol=general;fontFamily=微軟正黑體;fontSize=14;" parent="2lIp_Dph4CiPPlQwj3T4-3" vertex="1">
          <mxGeometry x="120" y="240" width="50" height="50" as="geometry" />
        </mxCell>
        <mxCell id="2lIp_Dph4CiPPlQwj3T4-9" style="edgeStyle=orthogonalEdgeStyle;rounded=1;orthogonalLoop=1;jettySize=auto;html=1;entryX=0.5;entryY=0;entryDx=0;entryDy=0;exitX=0.5;exitY=1;exitDx=0;exitDy=0;" parent="2lIp_Dph4CiPPlQwj3T4-3" source="2lIp_Dph4CiPPlQwj3T4-11" target="2lIp_Dph4CiPPlQwj3T4-6" edge="1">
          <mxGeometry relative="1" as="geometry">
            <Array as="points">
              <mxPoint x="145" y="240" />
            </Array>
          </mxGeometry>
        </mxCell>
        <mxCell id="2lIp_Dph4CiPPlQwj3T4-10" value="&lt;span style=&quot;font-size: 12px;&quot;&gt;更新資料大平台&lt;br&gt;&lt;/span&gt;&lt;span style=&quot;font-size: 12px;&quot;&gt;資料&lt;/span&gt;" style="html=1;whiteSpace=wrap;rounded=1;fontFamily=微軟正黑體;fontSize=14;" parent="2lIp_Dph4CiPPlQwj3T4-3" vertex="1">
          <mxGeometry x="95" y="120" width="100" height="80" as="geometry" />
        </mxCell>
        <UserObject label="" link="data:page/id,jQUmSZ4QsnT62ELFB8Ex" id="2lIp_Dph4CiPPlQwj3T4-11">
          <mxCell style="html=1;shape=plus;outlineConnect=0;fontFamily=微軟正黑體;fontSize=14;" parent="2lIp_Dph4CiPPlQwj3T4-10" vertex="1">
            <mxGeometry x="0.5" y="1" width="14" height="14" relative="1" as="geometry">
              <mxPoint x="-7" y="-14" as="offset" />
            </mxGeometry>
          </mxCell>
        </UserObject>
        <mxCell id="2lIp_Dph4CiPPlQwj3T4-16" value="&lt;font style=&quot;font-size: 20px&quot;&gt;03_BPMN_02_Level 0_資料更新管理&lt;/font&gt;" style="text;html=1;align=center;verticalAlign=middle;resizable=0;points=[];autosize=1;" parent="2lIp_Dph4CiPPlQwj3T4-1" vertex="1">
          <mxGeometry x="290" y="140" width="350" height="20" as="geometry" />
        </mxCell>
      </root>
    </mxGraphModel>
  </diagram>
  <diagram name="03_BPMN_02_01_更新資料大平台資料" id="pxLqF6zP1rrSbTF15GE1">
    <mxGraphModel dx="910" dy="515" grid="1" gridSize="10" guides="1" tooltips="1" connect="1" arrows="1" fold="1" page="1" pageScale="1" pageWidth="1169" pageHeight="827" math="0" shadow="0">
      <root>
        <mxCell id="0vfcrxvqoIDiXmHaB3ts-0" />
        <mxCell id="0vfcrxvqoIDiXmHaB3ts-1" parent="0vfcrxvqoIDiXmHaB3ts-0" />
        <mxCell id="0vfcrxvqoIDiXmHaB3ts-2" value="3D台北系統" style="swimlane;html=1;childLayout=stackLayout;resizeParent=1;resizeParentMax=0;startSize=20;" parent="0vfcrxvqoIDiXmHaB3ts-1" vertex="1">
          <mxGeometry x="30" y="90" width="1110" height="550" as="geometry" />
        </mxCell>
        <mxCell id="0vfcrxvqoIDiXmHaB3ts-3" value="市府員工" style="swimlane;html=1;startSize=20;" parent="0vfcrxvqoIDiXmHaB3ts-2" vertex="1">
          <mxGeometry y="20" width="1110" height="530" as="geometry" />
        </mxCell>
        <mxCell id="0vfcrxvqoIDiXmHaB3ts-4" style="edgeStyle=orthogonalEdgeStyle;rounded=1;orthogonalLoop=1;jettySize=auto;html=1;entryX=0.5;entryY=0;entryDx=0;entryDy=0;fontSize=12;" parent="0vfcrxvqoIDiXmHaB3ts-3" source="0vfcrxvqoIDiXmHaB3ts-5" target="0vfcrxvqoIDiXmHaB3ts-30" edge="1">
          <mxGeometry relative="1" as="geometry">
            <mxPoint x="267" y="120" as="targetPoint" />
          </mxGeometry>
        </mxCell>
        <mxCell id="0vfcrxvqoIDiXmHaB3ts-5" value="" style="shape=mxgraph.bpmn.shape;html=1;verticalLabelPosition=bottom;labelBackgroundColor=#ffffff;verticalAlign=top;align=center;perimeter=ellipsePerimeter;outlineConnect=0;outline=standard;symbol=general;fontFamily=微軟正黑體;fontSize=14;" parent="0vfcrxvqoIDiXmHaB3ts-3" vertex="1">
          <mxGeometry x="525" y="40" width="50" height="50" as="geometry" />
        </mxCell>
        <mxCell id="0vfcrxvqoIDiXmHaB3ts-6" value="" style="shape=mxgraph.bpmn.shape;html=1;verticalLabelPosition=bottom;labelBackgroundColor=#ffffff;verticalAlign=top;align=center;perimeter=ellipsePerimeter;outlineConnect=0;outline=end;symbol=general;fontFamily=微軟正黑體;fontSize=14;" parent="0vfcrxvqoIDiXmHaB3ts-3" vertex="1">
          <mxGeometry x="525" y="450" width="50" height="50" as="geometry" />
        </mxCell>
        <mxCell id="0vfcrxvqoIDiXmHaB3ts-7" style="edgeStyle=orthogonalEdgeStyle;rounded=1;orthogonalLoop=1;jettySize=auto;html=1;entryX=0.5;entryY=0;entryDx=0;entryDy=0;fontSize=12;exitX=0;exitY=0.5;exitDx=0;exitDy=0;" parent="0vfcrxvqoIDiXmHaB3ts-3" source="0vfcrxvqoIDiXmHaB3ts-30" target="0vfcrxvqoIDiXmHaB3ts-15" edge="1">
          <mxGeometry relative="1" as="geometry">
            <mxPoint x="242" y="145" as="sourcePoint" />
            <mxPoint x="22" y="210" as="targetPoint" />
          </mxGeometry>
        </mxCell>
        <mxCell id="0vfcrxvqoIDiXmHaB3ts-8" style="edgeStyle=orthogonalEdgeStyle;rounded=1;orthogonalLoop=1;jettySize=auto;html=1;entryX=0.5;entryY=0;entryDx=0;entryDy=0;fontSize=12;exitX=0;exitY=0.5;exitDx=0;exitDy=0;" parent="0vfcrxvqoIDiXmHaB3ts-3" source="0vfcrxvqoIDiXmHaB3ts-30" target="0vfcrxvqoIDiXmHaB3ts-46" edge="1">
          <mxGeometry relative="1" as="geometry">
            <Array as="points">
              <mxPoint x="150" y="145" />
            </Array>
            <mxPoint x="242" y="145" as="sourcePoint" />
            <mxPoint x="147" y="210" as="targetPoint" />
          </mxGeometry>
        </mxCell>
        <mxCell id="0vfcrxvqoIDiXmHaB3ts-9" style="edgeStyle=orthogonalEdgeStyle;rounded=1;orthogonalLoop=1;jettySize=auto;html=1;fontSize=12;entryX=0.5;entryY=0;entryDx=0;entryDy=0;exitX=0;exitY=0.5;exitDx=0;exitDy=0;" parent="0vfcrxvqoIDiXmHaB3ts-3" source="0vfcrxvqoIDiXmHaB3ts-30" target="0vfcrxvqoIDiXmHaB3ts-19" edge="1">
          <mxGeometry relative="1" as="geometry">
            <mxPoint x="292" y="145" as="sourcePoint" />
            <mxPoint x="512" y="210" as="targetPoint" />
          </mxGeometry>
        </mxCell>
        <mxCell id="0vfcrxvqoIDiXmHaB3ts-10" style="edgeStyle=orthogonalEdgeStyle;rounded=1;orthogonalLoop=1;jettySize=auto;html=1;entryX=0.5;entryY=0;entryDx=0;entryDy=0;fontSize=12;exitX=0;exitY=0.5;exitDx=0;exitDy=0;" parent="0vfcrxvqoIDiXmHaB3ts-3" source="0vfcrxvqoIDiXmHaB3ts-30" target="0vfcrxvqoIDiXmHaB3ts-17" edge="1">
          <mxGeometry relative="1" as="geometry">
            <mxPoint x="350" y="145" as="sourcePoint" />
            <mxPoint x="392.5" y="210" as="targetPoint" />
            <Array as="points">
              <mxPoint x="230" y="145" />
            </Array>
          </mxGeometry>
        </mxCell>
        <mxCell id="0vfcrxvqoIDiXmHaB3ts-11" style="edgeStyle=orthogonalEdgeStyle;rounded=1;orthogonalLoop=1;jettySize=auto;html=1;entryX=0;entryY=0.5;entryDx=0;entryDy=0;exitX=0.5;exitY=1;exitDx=0;exitDy=0;startArrow=none;" parent="0vfcrxvqoIDiXmHaB3ts-3" source="0vfcrxvqoIDiXmHaB3ts-46" target="0vfcrxvqoIDiXmHaB3ts-6" edge="1">
          <mxGeometry relative="1" as="geometry">
            <mxPoint x="22" y="290" as="sourcePoint" />
            <Array as="points">
              <mxPoint x="150" y="475" />
            </Array>
          </mxGeometry>
        </mxCell>
        <mxCell id="0vfcrxvqoIDiXmHaB3ts-12" style="edgeStyle=orthogonalEdgeStyle;rounded=1;orthogonalLoop=1;jettySize=auto;html=1;entryX=0;entryY=0.5;entryDx=0;entryDy=0;exitX=0.5;exitY=1;exitDx=0;exitDy=0;" parent="0vfcrxvqoIDiXmHaB3ts-3" source="0vfcrxvqoIDiXmHaB3ts-46" target="0vfcrxvqoIDiXmHaB3ts-6" edge="1">
          <mxGeometry relative="1" as="geometry">
            <mxPoint x="147" y="290" as="sourcePoint" />
            <Array as="points">
              <mxPoint x="150" y="475" />
            </Array>
          </mxGeometry>
        </mxCell>
        <mxCell id="0vfcrxvqoIDiXmHaB3ts-13" style="edgeStyle=orthogonalEdgeStyle;rounded=1;orthogonalLoop=1;jettySize=auto;html=1;entryX=0;entryY=0.5;entryDx=0;entryDy=0;exitX=0.5;exitY=1;exitDx=0;exitDy=0;" parent="0vfcrxvqoIDiXmHaB3ts-3" source="0vfcrxvqoIDiXmHaB3ts-17" target="0vfcrxvqoIDiXmHaB3ts-6" edge="1">
          <mxGeometry relative="1" as="geometry">
            <mxPoint x="392" y="290" as="sourcePoint" />
            <Array as="points">
              <mxPoint x="230" y="475" />
            </Array>
          </mxGeometry>
        </mxCell>
        <mxCell id="0vfcrxvqoIDiXmHaB3ts-14" style="edgeStyle=orthogonalEdgeStyle;rounded=1;orthogonalLoop=1;jettySize=auto;html=1;entryX=0;entryY=0.5;entryDx=0;entryDy=0;exitX=0.5;exitY=1;exitDx=0;exitDy=0;" parent="0vfcrxvqoIDiXmHaB3ts-3" source="0vfcrxvqoIDiXmHaB3ts-19" target="0vfcrxvqoIDiXmHaB3ts-6" edge="1">
          <mxGeometry relative="1" as="geometry">
            <mxPoint x="292" y="350" as="targetPoint" />
            <mxPoint x="512" y="290" as="sourcePoint" />
            <Array as="points">
              <mxPoint x="310" y="475" />
            </Array>
          </mxGeometry>
        </mxCell>
        <mxCell id="0vfcrxvqoIDiXmHaB3ts-15" value="&lt;span style=&quot;font-size: 12px;&quot;&gt;更新統計台北資料&lt;/span&gt;" style="html=1;whiteSpace=wrap;rounded=1;fontFamily=微軟正黑體;fontSize=14;align=center;" parent="0vfcrxvqoIDiXmHaB3ts-3" vertex="1">
          <mxGeometry x="22" y="210" width="100" height="80" as="geometry" />
        </mxCell>
        <mxCell id="0vfcrxvqoIDiXmHaB3ts-16" value="" style="html=1;shape=mxgraph.bpmn.user_task;outlineConnect=0;fontFamily=微軟正黑體;fontSize=14;align=left;" parent="0vfcrxvqoIDiXmHaB3ts-15" vertex="1">
          <mxGeometry width="14" height="14" relative="1" as="geometry">
            <mxPoint x="7" y="7" as="offset" />
          </mxGeometry>
        </mxCell>
        <mxCell id="0vfcrxvqoIDiXmHaB3ts-17" value="更新交通資訊資料" style="html=1;whiteSpace=wrap;rounded=1;fontFamily=微軟正黑體;fontSize=12;align=center;" parent="0vfcrxvqoIDiXmHaB3ts-3" vertex="1">
          <mxGeometry x="180" y="210" width="100" height="80" as="geometry" />
        </mxCell>
        <mxCell id="0vfcrxvqoIDiXmHaB3ts-18" value="" style="html=1;shape=mxgraph.bpmn.user_task;outlineConnect=0;fontFamily=微軟正黑體;fontSize=14;align=left;" parent="0vfcrxvqoIDiXmHaB3ts-17" vertex="1">
          <mxGeometry width="14" height="14" relative="1" as="geometry">
            <mxPoint x="7" y="7" as="offset" />
          </mxGeometry>
        </mxCell>
        <mxCell id="0vfcrxvqoIDiXmHaB3ts-19" value="更新空氣汙染資料" style="html=1;whiteSpace=wrap;rounded=1;fontFamily=微軟正黑體;fontSize=12;align=center;" parent="0vfcrxvqoIDiXmHaB3ts-3" vertex="1">
          <mxGeometry x="260" y="330" width="100" height="80" as="geometry" />
        </mxCell>
        <mxCell id="0vfcrxvqoIDiXmHaB3ts-20" value="" style="html=1;shape=mxgraph.bpmn.user_task;outlineConnect=0;fontFamily=微軟正黑體;fontSize=14;align=left;" parent="0vfcrxvqoIDiXmHaB3ts-19" vertex="1">
          <mxGeometry width="14" height="14" relative="1" as="geometry">
            <mxPoint x="7" y="7" as="offset" />
          </mxGeometry>
        </mxCell>
        <mxCell id="0vfcrxvqoIDiXmHaB3ts-21" style="edgeStyle=orthogonalEdgeStyle;rounded=1;orthogonalLoop=1;jettySize=auto;html=1;entryX=0.5;entryY=0;entryDx=0;entryDy=0;" parent="0vfcrxvqoIDiXmHaB3ts-3" source="0vfcrxvqoIDiXmHaB3ts-30" target="0vfcrxvqoIDiXmHaB3ts-32" edge="1">
          <mxGeometry relative="1" as="geometry" />
        </mxCell>
        <mxCell id="0vfcrxvqoIDiXmHaB3ts-22" style="edgeStyle=orthogonalEdgeStyle;rounded=1;orthogonalLoop=1;jettySize=auto;html=1;entryX=0.5;entryY=0;entryDx=0;entryDy=0;" parent="0vfcrxvqoIDiXmHaB3ts-3" source="0vfcrxvqoIDiXmHaB3ts-30" target="0vfcrxvqoIDiXmHaB3ts-34" edge="1">
          <mxGeometry relative="1" as="geometry" />
        </mxCell>
        <mxCell id="0vfcrxvqoIDiXmHaB3ts-23" style="edgeStyle=orthogonalEdgeStyle;rounded=1;orthogonalLoop=1;jettySize=auto;html=1;entryX=0.5;entryY=0;entryDx=0;entryDy=0;" parent="0vfcrxvqoIDiXmHaB3ts-3" source="0vfcrxvqoIDiXmHaB3ts-30" target="0vfcrxvqoIDiXmHaB3ts-37" edge="1">
          <mxGeometry relative="1" as="geometry" />
        </mxCell>
        <mxCell id="0vfcrxvqoIDiXmHaB3ts-24" style="edgeStyle=orthogonalEdgeStyle;rounded=1;orthogonalLoop=1;jettySize=auto;html=1;entryX=0.5;entryY=0;entryDx=0;entryDy=0;fontSize=12;" parent="0vfcrxvqoIDiXmHaB3ts-3" source="0vfcrxvqoIDiXmHaB3ts-30" target="0vfcrxvqoIDiXmHaB3ts-41" edge="1">
          <mxGeometry relative="1" as="geometry" />
        </mxCell>
        <mxCell id="0vfcrxvqoIDiXmHaB3ts-25" style="edgeStyle=orthogonalEdgeStyle;rounded=1;orthogonalLoop=1;jettySize=auto;html=1;entryX=0.5;entryY=0;entryDx=0;entryDy=0;fontSize=12;" parent="0vfcrxvqoIDiXmHaB3ts-3" source="0vfcrxvqoIDiXmHaB3ts-30" target="0vfcrxvqoIDiXmHaB3ts-50" edge="1">
          <mxGeometry relative="1" as="geometry" />
        </mxCell>
        <mxCell id="0vfcrxvqoIDiXmHaB3ts-26" style="edgeStyle=orthogonalEdgeStyle;rounded=1;orthogonalLoop=1;jettySize=auto;html=1;entryX=0.5;entryY=0;entryDx=0;entryDy=0;fontSize=12;" parent="0vfcrxvqoIDiXmHaB3ts-3" source="0vfcrxvqoIDiXmHaB3ts-30" target="0vfcrxvqoIDiXmHaB3ts-44" edge="1">
          <mxGeometry relative="1" as="geometry" />
        </mxCell>
        <mxCell id="0vfcrxvqoIDiXmHaB3ts-27" style="edgeStyle=orthogonalEdgeStyle;rounded=1;orthogonalLoop=1;jettySize=auto;html=1;entryX=0.5;entryY=0;entryDx=0;entryDy=0;fontSize=12;" parent="0vfcrxvqoIDiXmHaB3ts-3" source="0vfcrxvqoIDiXmHaB3ts-30" target="0vfcrxvqoIDiXmHaB3ts-53" edge="1">
          <mxGeometry relative="1" as="geometry" />
        </mxCell>
        <mxCell id="0vfcrxvqoIDiXmHaB3ts-28" style="edgeStyle=orthogonalEdgeStyle;rounded=1;orthogonalLoop=1;jettySize=auto;html=1;entryX=0.5;entryY=0;entryDx=0;entryDy=0;fontSize=12;" parent="0vfcrxvqoIDiXmHaB3ts-3" source="0vfcrxvqoIDiXmHaB3ts-30" target="0vfcrxvqoIDiXmHaB3ts-59" edge="1">
          <mxGeometry relative="1" as="geometry" />
        </mxCell>
        <mxCell id="0vfcrxvqoIDiXmHaB3ts-29" style="edgeStyle=orthogonalEdgeStyle;rounded=1;orthogonalLoop=1;jettySize=auto;html=1;entryX=0.5;entryY=0;entryDx=0;entryDy=0;fontSize=12;" parent="0vfcrxvqoIDiXmHaB3ts-3" source="0vfcrxvqoIDiXmHaB3ts-30" target="0vfcrxvqoIDiXmHaB3ts-56" edge="1">
          <mxGeometry relative="1" as="geometry" />
        </mxCell>
        <mxCell id="0vfcrxvqoIDiXmHaB3ts-30" value="" style="shape=mxgraph.bpmn.shape;html=1;verticalLabelPosition=bottom;labelBackgroundColor=#ffffff;verticalAlign=top;align=center;perimeter=rhombusPerimeter;background=gateway;outlineConnect=0;outline=none;symbol=exclusiveGw;fontFamily=微軟正黑體;fontSize=14;" parent="0vfcrxvqoIDiXmHaB3ts-3" vertex="1">
          <mxGeometry x="525" y="120" width="50" height="50" as="geometry" />
        </mxCell>
        <mxCell id="0vfcrxvqoIDiXmHaB3ts-31" style="edgeStyle=orthogonalEdgeStyle;rounded=1;orthogonalLoop=1;jettySize=auto;html=1;entryX=0;entryY=0.5;entryDx=0;entryDy=0;exitX=0.5;exitY=1;exitDx=0;exitDy=0;" parent="0vfcrxvqoIDiXmHaB3ts-3" source="0vfcrxvqoIDiXmHaB3ts-32" target="0vfcrxvqoIDiXmHaB3ts-6" edge="1">
          <mxGeometry relative="1" as="geometry">
            <Array as="points">
              <mxPoint x="390" y="475" />
            </Array>
          </mxGeometry>
        </mxCell>
        <mxCell id="0vfcrxvqoIDiXmHaB3ts-32" value="更新城市外交資料" style="html=1;whiteSpace=wrap;rounded=1;fontFamily=微軟正黑體;fontSize=12;align=center;" parent="0vfcrxvqoIDiXmHaB3ts-3" vertex="1">
          <mxGeometry x="340" y="210" width="100" height="80" as="geometry" />
        </mxCell>
        <mxCell id="0vfcrxvqoIDiXmHaB3ts-33" value="" style="html=1;shape=mxgraph.bpmn.user_task;outlineConnect=0;fontFamily=微軟正黑體;fontSize=14;align=left;" parent="0vfcrxvqoIDiXmHaB3ts-32" vertex="1">
          <mxGeometry width="14" height="14" relative="1" as="geometry">
            <mxPoint x="7" y="7" as="offset" />
          </mxGeometry>
        </mxCell>
        <mxCell id="0vfcrxvqoIDiXmHaB3ts-34" value="更新都市計畫資料" style="html=1;whiteSpace=wrap;rounded=1;fontFamily=微軟正黑體;fontSize=12;align=center;" parent="0vfcrxvqoIDiXmHaB3ts-3" vertex="1">
          <mxGeometry x="420" y="330" width="100" height="80" as="geometry" />
        </mxCell>
        <mxCell id="0vfcrxvqoIDiXmHaB3ts-35" value="" style="html=1;shape=mxgraph.bpmn.user_task;outlineConnect=0;fontFamily=微軟正黑體;fontSize=14;align=left;" parent="0vfcrxvqoIDiXmHaB3ts-34" vertex="1">
          <mxGeometry width="14" height="14" relative="1" as="geometry">
            <mxPoint x="7" y="7" as="offset" />
          </mxGeometry>
        </mxCell>
        <mxCell id="0vfcrxvqoIDiXmHaB3ts-36" style="edgeStyle=orthogonalEdgeStyle;rounded=1;orthogonalLoop=1;jettySize=auto;html=1;entryX=0.5;entryY=0;entryDx=0;entryDy=0;" parent="0vfcrxvqoIDiXmHaB3ts-3" source="0vfcrxvqoIDiXmHaB3ts-37" target="0vfcrxvqoIDiXmHaB3ts-6" edge="1">
          <mxGeometry relative="1" as="geometry">
            <Array as="points">
              <mxPoint x="550" y="360" />
              <mxPoint x="550" y="500" />
            </Array>
          </mxGeometry>
        </mxCell>
        <mxCell id="0vfcrxvqoIDiXmHaB3ts-37" value="更新文化藝術資料" style="html=1;whiteSpace=wrap;rounded=1;fontFamily=微軟正黑體;fontSize=12;align=center;" parent="0vfcrxvqoIDiXmHaB3ts-3" vertex="1">
          <mxGeometry x="500" y="210" width="100" height="80" as="geometry" />
        </mxCell>
        <mxCell id="0vfcrxvqoIDiXmHaB3ts-38" value="" style="html=1;shape=mxgraph.bpmn.user_task;outlineConnect=0;fontFamily=微軟正黑體;fontSize=14;align=left;" parent="0vfcrxvqoIDiXmHaB3ts-37" vertex="1">
          <mxGeometry width="14" height="14" relative="1" as="geometry">
            <mxPoint x="7" y="7" as="offset" />
          </mxGeometry>
        </mxCell>
        <mxCell id="0vfcrxvqoIDiXmHaB3ts-39" style="edgeStyle=orthogonalEdgeStyle;rounded=1;orthogonalLoop=1;jettySize=auto;html=1;entryX=0;entryY=0.5;entryDx=0;entryDy=0;exitX=0.5;exitY=1;exitDx=0;exitDy=0;" parent="0vfcrxvqoIDiXmHaB3ts-3" source="0vfcrxvqoIDiXmHaB3ts-34" target="0vfcrxvqoIDiXmHaB3ts-6" edge="1">
          <mxGeometry relative="1" as="geometry">
            <mxPoint x="670" y="380" as="targetPoint" />
            <Array as="points">
              <mxPoint x="470" y="475" />
            </Array>
          </mxGeometry>
        </mxCell>
        <mxCell id="0vfcrxvqoIDiXmHaB3ts-40" style="edgeStyle=orthogonalEdgeStyle;rounded=1;orthogonalLoop=1;jettySize=auto;html=1;entryX=1;entryY=0.5;entryDx=0;entryDy=0;fontSize=12;exitX=0.5;exitY=1;exitDx=0;exitDy=0;" parent="0vfcrxvqoIDiXmHaB3ts-3" source="0vfcrxvqoIDiXmHaB3ts-41" target="0vfcrxvqoIDiXmHaB3ts-6" edge="1">
          <mxGeometry relative="1" as="geometry" />
        </mxCell>
        <mxCell id="0vfcrxvqoIDiXmHaB3ts-41" value="更新學習城市資料" style="html=1;whiteSpace=wrap;rounded=1;fontFamily=微軟正黑體;fontSize=12;align=center;" parent="0vfcrxvqoIDiXmHaB3ts-3" vertex="1">
          <mxGeometry x="581" y="330" width="100" height="80" as="geometry" />
        </mxCell>
        <mxCell id="0vfcrxvqoIDiXmHaB3ts-42" value="" style="html=1;shape=mxgraph.bpmn.user_task;outlineConnect=0;fontFamily=微軟正黑體;fontSize=14;align=left;" parent="0vfcrxvqoIDiXmHaB3ts-41" vertex="1">
          <mxGeometry width="14" height="14" relative="1" as="geometry">
            <mxPoint x="7" y="7" as="offset" />
          </mxGeometry>
        </mxCell>
        <mxCell id="0vfcrxvqoIDiXmHaB3ts-43" style="edgeStyle=orthogonalEdgeStyle;rounded=1;orthogonalLoop=1;jettySize=auto;html=1;entryX=1;entryY=0.5;entryDx=0;entryDy=0;fontSize=12;exitX=0.5;exitY=1;exitDx=0;exitDy=0;" parent="0vfcrxvqoIDiXmHaB3ts-3" source="0vfcrxvqoIDiXmHaB3ts-44" target="0vfcrxvqoIDiXmHaB3ts-6" edge="1">
          <mxGeometry relative="1" as="geometry" />
        </mxCell>
        <mxCell id="0vfcrxvqoIDiXmHaB3ts-44" value="更新休閒生活資料" style="html=1;whiteSpace=wrap;rounded=1;fontFamily=微軟正黑體;fontSize=12;align=center;" parent="0vfcrxvqoIDiXmHaB3ts-3" vertex="1">
          <mxGeometry x="660" y="210" width="100" height="80" as="geometry" />
        </mxCell>
        <mxCell id="0vfcrxvqoIDiXmHaB3ts-45" value="" style="html=1;shape=mxgraph.bpmn.user_task;outlineConnect=0;fontFamily=微軟正黑體;fontSize=14;align=left;" parent="0vfcrxvqoIDiXmHaB3ts-44" vertex="1">
          <mxGeometry width="14" height="14" relative="1" as="geometry">
            <mxPoint x="7" y="7" as="offset" />
          </mxGeometry>
        </mxCell>
        <mxCell id="0vfcrxvqoIDiXmHaB3ts-46" value="更新防災資訊資料" style="html=1;whiteSpace=wrap;rounded=1;fontFamily=微軟正黑體;fontSize=12;align=center;" parent="0vfcrxvqoIDiXmHaB3ts-3" vertex="1">
          <mxGeometry x="100" y="330" width="100" height="80" as="geometry" />
        </mxCell>
        <mxCell id="0vfcrxvqoIDiXmHaB3ts-47" value="" style="html=1;shape=mxgraph.bpmn.user_task;outlineConnect=0;fontFamily=微軟正黑體;fontSize=14;align=left;" parent="0vfcrxvqoIDiXmHaB3ts-46" vertex="1">
          <mxGeometry width="14" height="14" relative="1" as="geometry">
            <mxPoint x="7" y="7" as="offset" />
          </mxGeometry>
        </mxCell>
        <mxCell id="0vfcrxvqoIDiXmHaB3ts-48" value="" style="edgeStyle=orthogonalEdgeStyle;rounded=1;orthogonalLoop=1;jettySize=auto;html=1;entryX=0;entryY=0.5;entryDx=0;entryDy=0;exitX=0.5;exitY=1;exitDx=0;exitDy=0;endArrow=none;" parent="0vfcrxvqoIDiXmHaB3ts-3" source="0vfcrxvqoIDiXmHaB3ts-15" target="0vfcrxvqoIDiXmHaB3ts-6" edge="1">
          <mxGeometry relative="1" as="geometry">
            <mxPoint x="102" y="400" as="sourcePoint" />
            <Array as="points" />
            <mxPoint x="579.9999999999859" y="635" as="targetPoint" />
          </mxGeometry>
        </mxCell>
        <mxCell id="0vfcrxvqoIDiXmHaB3ts-49" style="edgeStyle=orthogonalEdgeStyle;rounded=1;orthogonalLoop=1;jettySize=auto;html=1;entryX=1;entryY=0.5;entryDx=0;entryDy=0;fontSize=12;exitX=0.5;exitY=1;exitDx=0;exitDy=0;" parent="0vfcrxvqoIDiXmHaB3ts-3" source="0vfcrxvqoIDiXmHaB3ts-50" target="0vfcrxvqoIDiXmHaB3ts-6" edge="1">
          <mxGeometry relative="1" as="geometry" />
        </mxCell>
        <mxCell id="0vfcrxvqoIDiXmHaB3ts-50" value="更新市政建設資料" style="html=1;whiteSpace=wrap;rounded=1;fontFamily=微軟正黑體;fontSize=12;align=center;" parent="0vfcrxvqoIDiXmHaB3ts-3" vertex="1">
          <mxGeometry x="740" y="330" width="100" height="80" as="geometry" />
        </mxCell>
        <mxCell id="0vfcrxvqoIDiXmHaB3ts-51" value="" style="html=1;shape=mxgraph.bpmn.user_task;outlineConnect=0;fontFamily=微軟正黑體;fontSize=14;align=left;" parent="0vfcrxvqoIDiXmHaB3ts-50" vertex="1">
          <mxGeometry width="14" height="14" relative="1" as="geometry">
            <mxPoint x="7" y="7" as="offset" />
          </mxGeometry>
        </mxCell>
        <mxCell id="0vfcrxvqoIDiXmHaB3ts-52" style="edgeStyle=orthogonalEdgeStyle;rounded=1;orthogonalLoop=1;jettySize=auto;html=1;entryX=1;entryY=0.5;entryDx=0;entryDy=0;fontSize=12;exitX=0.5;exitY=1;exitDx=0;exitDy=0;" parent="0vfcrxvqoIDiXmHaB3ts-3" source="0vfcrxvqoIDiXmHaB3ts-53" target="0vfcrxvqoIDiXmHaB3ts-6" edge="1">
          <mxGeometry relative="1" as="geometry" />
        </mxCell>
        <mxCell id="0vfcrxvqoIDiXmHaB3ts-53" value="更新社會福利資料" style="html=1;whiteSpace=wrap;rounded=1;fontFamily=微軟正黑體;fontSize=12;align=center;" parent="0vfcrxvqoIDiXmHaB3ts-3" vertex="1">
          <mxGeometry x="820" y="210" width="100" height="80" as="geometry" />
        </mxCell>
        <mxCell id="0vfcrxvqoIDiXmHaB3ts-54" value="" style="html=1;shape=mxgraph.bpmn.user_task;outlineConnect=0;fontFamily=微軟正黑體;fontSize=14;align=left;" parent="0vfcrxvqoIDiXmHaB3ts-53" vertex="1">
          <mxGeometry width="14" height="14" relative="1" as="geometry">
            <mxPoint x="7" y="7" as="offset" />
          </mxGeometry>
        </mxCell>
        <mxCell id="0vfcrxvqoIDiXmHaB3ts-55" style="edgeStyle=orthogonalEdgeStyle;rounded=1;orthogonalLoop=1;jettySize=auto;html=1;entryX=1;entryY=0.5;entryDx=0;entryDy=0;fontSize=12;exitX=0.5;exitY=1;exitDx=0;exitDy=0;" parent="0vfcrxvqoIDiXmHaB3ts-3" source="0vfcrxvqoIDiXmHaB3ts-56" target="0vfcrxvqoIDiXmHaB3ts-6" edge="1">
          <mxGeometry relative="1" as="geometry" />
        </mxCell>
        <mxCell id="0vfcrxvqoIDiXmHaB3ts-56" value="更新實價登錄資料" style="html=1;whiteSpace=wrap;rounded=1;fontFamily=微軟正黑體;fontSize=12;align=center;" parent="0vfcrxvqoIDiXmHaB3ts-3" vertex="1">
          <mxGeometry x="900" y="330" width="100" height="80" as="geometry" />
        </mxCell>
        <mxCell id="0vfcrxvqoIDiXmHaB3ts-57" value="" style="html=1;shape=mxgraph.bpmn.user_task;outlineConnect=0;fontFamily=微軟正黑體;fontSize=14;align=left;" parent="0vfcrxvqoIDiXmHaB3ts-56" vertex="1">
          <mxGeometry width="14" height="14" relative="1" as="geometry">
            <mxPoint x="7" y="7" as="offset" />
          </mxGeometry>
        </mxCell>
        <mxCell id="0vfcrxvqoIDiXmHaB3ts-58" style="edgeStyle=orthogonalEdgeStyle;rounded=1;orthogonalLoop=1;jettySize=auto;html=1;entryX=1;entryY=0.5;entryDx=0;entryDy=0;fontSize=12;exitX=0.5;exitY=1;exitDx=0;exitDy=0;" parent="0vfcrxvqoIDiXmHaB3ts-3" source="0vfcrxvqoIDiXmHaB3ts-59" target="0vfcrxvqoIDiXmHaB3ts-6" edge="1">
          <mxGeometry relative="1" as="geometry" />
        </mxCell>
        <mxCell id="0vfcrxvqoIDiXmHaB3ts-59" value="更新文化導覽資料" style="html=1;whiteSpace=wrap;rounded=1;fontFamily=微軟正黑體;fontSize=12;align=center;" parent="0vfcrxvqoIDiXmHaB3ts-3" vertex="1">
          <mxGeometry x="980" y="210" width="100" height="80" as="geometry" />
        </mxCell>
        <mxCell id="0vfcrxvqoIDiXmHaB3ts-60" value="" style="html=1;shape=mxgraph.bpmn.user_task;outlineConnect=0;fontFamily=微軟正黑體;fontSize=14;align=left;" parent="0vfcrxvqoIDiXmHaB3ts-59" vertex="1">
          <mxGeometry width="14" height="14" relative="1" as="geometry">
            <mxPoint x="7" y="7" as="offset" />
          </mxGeometry>
        </mxCell>
        <mxCell id="0vfcrxvqoIDiXmHaB3ts-61" value="&lt;font style=&quot;font-size: 20px&quot;&gt;03_BPMN_02_01_更新資料大平台資料&lt;/font&gt;" style="text;html=1;align=center;verticalAlign=middle;resizable=0;points=[];autosize=1;" parent="0vfcrxvqoIDiXmHaB3ts-1" vertex="1">
          <mxGeometry x="405" y="50" width="360" height="20" as="geometry" />
        </mxCell>
      </root>
    </mxGraphModel>
  </diagram>
  <diagram name="03_BPMN_03_Level 0_系統維運" id="zPH7nloQbnqhc4aUPUc5">
    <mxGraphModel dx="910" dy="515" grid="1" gridSize="10" guides="1" tooltips="1" connect="1" arrows="1" fold="1" page="1" pageScale="1" pageWidth="1169" pageHeight="827" math="0" shadow="0">
      <root>
        <mxCell id="J9fnf8CFtfgSjDSqf6ux-0" />
        <mxCell id="J9fnf8CFtfgSjDSqf6ux-1" parent="J9fnf8CFtfgSjDSqf6ux-0" />
        <mxCell id="J9fnf8CFtfgSjDSqf6ux-2" value="3D台北系統" style="swimlane;html=1;childLayout=stackLayout;resizeParent=1;resizeParentMax=0;startSize=20;" parent="J9fnf8CFtfgSjDSqf6ux-1" vertex="1">
          <mxGeometry x="320" y="190" width="290" height="330" as="geometry" />
        </mxCell>
        <mxCell id="J9fnf8CFtfgSjDSqf6ux-3" value="維運廠商" style="swimlane;html=1;startSize=20;" parent="J9fnf8CFtfgSjDSqf6ux-2" vertex="1">
          <mxGeometry y="20" width="290" height="310" as="geometry" />
        </mxCell>
        <mxCell id="J9fnf8CFtfgSjDSqf6ux-4" style="edgeStyle=orthogonalEdgeStyle;rounded=1;orthogonalLoop=1;jettySize=auto;html=1;entryX=0.5;entryY=0;entryDx=0;entryDy=0;fontSize=12;" parent="J9fnf8CFtfgSjDSqf6ux-3" source="J9fnf8CFtfgSjDSqf6ux-5" edge="1">
          <mxGeometry relative="1" as="geometry">
            <mxPoint x="145" y="120" as="targetPoint" />
          </mxGeometry>
        </mxCell>
        <mxCell id="J9fnf8CFtfgSjDSqf6ux-5" value="" style="shape=mxgraph.bpmn.shape;html=1;verticalLabelPosition=bottom;labelBackgroundColor=#ffffff;verticalAlign=top;align=center;perimeter=ellipsePerimeter;outlineConnect=0;outline=standard;symbol=general;fontFamily=微軟正黑體;fontSize=14;" parent="J9fnf8CFtfgSjDSqf6ux-3" vertex="1">
          <mxGeometry x="120" y="40" width="50" height="50" as="geometry" />
        </mxCell>
        <mxCell id="J9fnf8CFtfgSjDSqf6ux-6" value="" style="shape=mxgraph.bpmn.shape;html=1;verticalLabelPosition=bottom;labelBackgroundColor=#ffffff;verticalAlign=top;align=center;perimeter=ellipsePerimeter;outlineConnect=0;outline=end;symbol=general;fontFamily=微軟正黑體;fontSize=14;" parent="J9fnf8CFtfgSjDSqf6ux-3" vertex="1">
          <mxGeometry x="120" y="240" width="50" height="50" as="geometry" />
        </mxCell>
        <mxCell id="J9fnf8CFtfgSjDSqf6ux-7" style="edgeStyle=orthogonalEdgeStyle;rounded=1;orthogonalLoop=1;jettySize=auto;html=1;entryX=0.5;entryY=0;entryDx=0;entryDy=0;exitX=0.5;exitY=1;exitDx=0;exitDy=0;" parent="J9fnf8CFtfgSjDSqf6ux-3" source="J9fnf8CFtfgSjDSqf6ux-9" target="J9fnf8CFtfgSjDSqf6ux-6" edge="1">
          <mxGeometry relative="1" as="geometry">
            <Array as="points">
              <mxPoint x="145" y="240" />
            </Array>
          </mxGeometry>
        </mxCell>
        <mxCell id="J9fnf8CFtfgSjDSqf6ux-8" value="&lt;span style=&quot;font-size: 12px;&quot;&gt;系統維運&lt;/span&gt;" style="html=1;whiteSpace=wrap;rounded=1;fontFamily=微軟正黑體;fontSize=14;" parent="J9fnf8CFtfgSjDSqf6ux-3" vertex="1">
          <mxGeometry x="95" y="120" width="100" height="80" as="geometry" />
        </mxCell>
        <UserObject label="" link="data:page/id,jQUmSZ4QsnT62ELFB8Ex" id="J9fnf8CFtfgSjDSqf6ux-9">
          <mxCell style="html=1;shape=plus;outlineConnect=0;fontFamily=微軟正黑體;fontSize=14;" parent="J9fnf8CFtfgSjDSqf6ux-8" vertex="1">
            <mxGeometry x="0.5" y="1" width="14" height="14" relative="1" as="geometry">
              <mxPoint x="-7" y="-14" as="offset" />
            </mxGeometry>
          </mxCell>
        </UserObject>
        <mxCell id="J9fnf8CFtfgSjDSqf6ux-10" value="&lt;font style=&quot;font-size: 20px&quot;&gt;03_BPMN_03_Level 0_系統維運&lt;/font&gt;" style="text;html=1;align=center;verticalAlign=middle;resizable=0;points=[];autosize=1;" parent="J9fnf8CFtfgSjDSqf6ux-1" vertex="1">
          <mxGeometry x="310" y="140" width="310" height="20" as="geometry" />
        </mxCell>
      </root>
    </mxGraphModel>
  </diagram>
  <diagram name="03_BPMN_03_01_系統維運" id="fBm4TBKnYmhFBRmCtl5c">
    <mxGraphModel dx="910" dy="515" grid="1" gridSize="10" guides="1" tooltips="1" connect="1" arrows="1" fold="1" page="1" pageScale="1" pageWidth="1169" pageHeight="827" math="0" shadow="0">
      <root>
        <mxCell id="w_22P06DnhoQTgOE3YS4-0" />
        <mxCell id="w_22P06DnhoQTgOE3YS4-1" parent="w_22P06DnhoQTgOE3YS4-0" />
        <mxCell id="w_22P06DnhoQTgOE3YS4-50" value="3D台北系統" style="swimlane;html=1;childLayout=stackLayout;resizeParent=1;resizeParentMax=0;startSize=20;" parent="w_22P06DnhoQTgOE3YS4-1" vertex="1">
          <mxGeometry x="355" y="150" width="290" height="420" as="geometry" />
        </mxCell>
        <mxCell id="w_22P06DnhoQTgOE3YS4-51" value="維運廠商" style="swimlane;html=1;startSize=20;" parent="w_22P06DnhoQTgOE3YS4-50" vertex="1">
          <mxGeometry y="20" width="290" height="400" as="geometry" />
        </mxCell>
        <mxCell id="w_22P06DnhoQTgOE3YS4-52" style="edgeStyle=orthogonalEdgeStyle;rounded=1;orthogonalLoop=1;jettySize=auto;html=1;entryX=0.5;entryY=0;entryDx=0;entryDy=0;fontSize=12;" parent="w_22P06DnhoQTgOE3YS4-51" source="w_22P06DnhoQTgOE3YS4-53" target="__ns5tavO3qtTwJlCet6-0" edge="1">
          <mxGeometry relative="1" as="geometry">
            <mxPoint x="205" y="120" as="targetPoint" />
          </mxGeometry>
        </mxCell>
        <mxCell id="w_22P06DnhoQTgOE3YS4-53" value="" style="shape=mxgraph.bpmn.shape;html=1;verticalLabelPosition=bottom;labelBackgroundColor=#ffffff;verticalAlign=top;align=center;perimeter=ellipsePerimeter;outlineConnect=0;outline=standard;symbol=general;fontFamily=微軟正黑體;fontSize=14;" parent="w_22P06DnhoQTgOE3YS4-51" vertex="1">
          <mxGeometry x="120" y="40" width="50" height="50" as="geometry" />
        </mxCell>
        <mxCell id="w_22P06DnhoQTgOE3YS4-54" value="" style="shape=mxgraph.bpmn.shape;html=1;verticalLabelPosition=bottom;labelBackgroundColor=#ffffff;verticalAlign=top;align=center;perimeter=ellipsePerimeter;outlineConnect=0;outline=end;symbol=general;fontFamily=微軟正黑體;fontSize=14;" parent="w_22P06DnhoQTgOE3YS4-51" vertex="1">
          <mxGeometry x="120" y="330" width="50" height="50" as="geometry" />
        </mxCell>
        <mxCell id="w_22P06DnhoQTgOE3YS4-55" style="edgeStyle=orthogonalEdgeStyle;rounded=1;orthogonalLoop=1;jettySize=auto;html=1;entryX=0.5;entryY=0;entryDx=0;entryDy=0;fontSize=12;exitX=0;exitY=0.5;exitDx=0;exitDy=0;" parent="w_22P06DnhoQTgOE3YS4-51" source="__ns5tavO3qtTwJlCet6-0" target="w_22P06DnhoQTgOE3YS4-38" edge="1">
          <mxGeometry relative="1" as="geometry">
            <mxPoint x="180" y="145" as="sourcePoint" />
            <mxPoint x="130" y="210" as="targetPoint" />
            <Array as="points">
              <mxPoint x="80" y="145" />
            </Array>
          </mxGeometry>
        </mxCell>
        <mxCell id="w_22P06DnhoQTgOE3YS4-57" style="edgeStyle=orthogonalEdgeStyle;rounded=1;orthogonalLoop=1;jettySize=auto;html=1;entryX=0;entryY=0.5;entryDx=0;entryDy=0;exitX=0.5;exitY=1;exitDx=0;exitDy=0;" parent="w_22P06DnhoQTgOE3YS4-51" source="w_22P06DnhoQTgOE3YS4-38" target="w_22P06DnhoQTgOE3YS4-54" edge="1">
          <mxGeometry relative="1" as="geometry">
            <mxPoint x="130" y="290" as="sourcePoint" />
            <Array as="points">
              <mxPoint x="80" y="355" />
            </Array>
          </mxGeometry>
        </mxCell>
        <mxCell id="kiAcc0NEiBV7ZbfgHOvn-0" style="edgeStyle=orthogonalEdgeStyle;rounded=1;orthogonalLoop=1;jettySize=auto;html=1;entryX=0.5;entryY=0;entryDx=0;entryDy=0;exitX=1;exitY=0.5;exitDx=0;exitDy=0;" parent="w_22P06DnhoQTgOE3YS4-51" source="__ns5tavO3qtTwJlCet6-0" target="w_22P06DnhoQTgOE3YS4-41" edge="1">
          <mxGeometry relative="1" as="geometry">
            <mxPoint x="205" y="170" as="sourcePoint" />
          </mxGeometry>
        </mxCell>
        <mxCell id="w_22P06DnhoQTgOE3YS4-38" value="&lt;font style=&quot;font-size: 12px&quot;&gt;3D建物模型更新&lt;/font&gt;" style="html=1;whiteSpace=wrap;rounded=1;fontFamily=微軟正黑體;fontSize=12;" parent="w_22P06DnhoQTgOE3YS4-51" vertex="1">
          <mxGeometry x="30" y="210" width="100" height="80" as="geometry" />
        </mxCell>
        <mxCell id="w_22P06DnhoQTgOE3YS4-39" value="" style="html=1;shape=mxgraph.bpmn.user_task;outlineConnect=0;fontFamily=微軟正黑體;fontSize=14;" parent="w_22P06DnhoQTgOE3YS4-38" vertex="1">
          <mxGeometry width="14" height="14" relative="1" as="geometry">
            <mxPoint x="7" y="7" as="offset" />
          </mxGeometry>
        </mxCell>
        <mxCell id="kiAcc0NEiBV7ZbfgHOvn-1" style="edgeStyle=orthogonalEdgeStyle;rounded=1;orthogonalLoop=1;jettySize=auto;html=1;entryX=1;entryY=0.5;entryDx=0;entryDy=0;exitX=0.5;exitY=1;exitDx=0;exitDy=0;" parent="w_22P06DnhoQTgOE3YS4-51" source="w_22P06DnhoQTgOE3YS4-41" target="w_22P06DnhoQTgOE3YS4-54" edge="1">
          <mxGeometry relative="1" as="geometry" />
        </mxCell>
        <mxCell id="w_22P06DnhoQTgOE3YS4-41" value="&lt;font style=&quot;font-size: 12px&quot;&gt;Cesium圖台資料更新&lt;/font&gt;" style="html=1;whiteSpace=wrap;rounded=1;fontFamily=微軟正黑體;fontSize=12;" parent="w_22P06DnhoQTgOE3YS4-51" vertex="1">
          <mxGeometry x="155" y="210" width="100" height="80" as="geometry" />
        </mxCell>
        <mxCell id="w_22P06DnhoQTgOE3YS4-42" value="" style="html=1;shape=mxgraph.bpmn.user_task;outlineConnect=0;fontFamily=微軟正黑體;fontSize=14;" parent="w_22P06DnhoQTgOE3YS4-41" vertex="1">
          <mxGeometry width="14" height="14" relative="1" as="geometry">
            <mxPoint x="7" y="7" as="offset" />
          </mxGeometry>
        </mxCell>
        <mxCell id="__ns5tavO3qtTwJlCet6-0" value="" style="shape=mxgraph.bpmn.shape;html=1;verticalLabelPosition=bottom;labelBackgroundColor=#ffffff;verticalAlign=top;align=center;perimeter=rhombusPerimeter;background=gateway;outlineConnect=0;outline=none;symbol=exclusiveGw;fontFamily=微軟正黑體;fontSize=14;" parent="w_22P06DnhoQTgOE3YS4-51" vertex="1">
          <mxGeometry x="120" y="120" width="50" height="50" as="geometry" />
        </mxCell>
        <mxCell id="w_22P06DnhoQTgOE3YS4-64" value="&lt;font style=&quot;font-size: 20px&quot;&gt;03_BPMN_03_01_系統維運&lt;/font&gt;" style="text;html=1;align=center;verticalAlign=middle;resizable=0;points=[];autosize=1;" parent="w_22P06DnhoQTgOE3YS4-1" vertex="1">
          <mxGeometry x="370" y="100" width="260" height="20" as="geometry" />
        </mxCell>
      </root>
    </mxGraphModel>
  </diagram>
  <diagram id="mN46UspuV8-y03GWL2eB" name="05_ACD_3D 台北系統">
    <mxGraphModel dx="910" dy="515" grid="1" gridSize="10" guides="1" tooltips="1" connect="1" arrows="1" fold="1" page="1" pageScale="1" pageWidth="1169" pageHeight="827" math="0" shadow="0">
      <root>
        <mxCell id="VnPsaf1fOgnWxRLPpmIB-0" />
        <mxCell id="VnPsaf1fOgnWxRLPpmIB-1" parent="VnPsaf1fOgnWxRLPpmIB-0" />
        <mxCell id="VnPsaf1fOgnWxRLPpmIB-86" value="&lt;font style=&quot;font-size: 20px&quot;&gt;05_ACD_3D 台北&lt;/font&gt;&lt;span style=&quot;font-size: 20px;&quot;&gt;系統&lt;/span&gt;" style="text;html=1;align=center;verticalAlign=middle;resizable=0;points=[];autosize=1;strokeColor=none;fillColor=none;" parent="VnPsaf1fOgnWxRLPpmIB-1" vertex="1">
          <mxGeometry x="490" y="30" width="210" height="20" as="geometry" />
        </mxCell>
        <mxCell id="4V6hsMgdvqKIR4vV5b8r-0" style="edgeStyle=orthogonalEdgeStyle;rounded=0;orthogonalLoop=1;jettySize=auto;html=1;entryX=1;entryY=0.5;entryDx=0;entryDy=0;" parent="VnPsaf1fOgnWxRLPpmIB-1" source="4V6hsMgdvqKIR4vV5b8r-2" target="4V6hsMgdvqKIR4vV5b8r-56" edge="1">
          <mxGeometry relative="1" as="geometry" />
        </mxCell>
        <mxCell id="4V6hsMgdvqKIR4vV5b8r-1" value="被使用" style="edgeLabel;html=1;align=center;verticalAlign=middle;resizable=0;points=[];" parent="4V6hsMgdvqKIR4vV5b8r-0" vertex="1" connectable="0">
          <mxGeometry x="-0.3301" y="-1" relative="1" as="geometry">
            <mxPoint x="-9" y="1" as="offset" />
          </mxGeometry>
        </mxCell>
        <mxCell id="4V6hsMgdvqKIR4vV5b8r-2" value="業務子系統集" style="shape=ext;rounded=1;html=1;whiteSpace=wrap;fontFamily=微軟正黑體;fontSize=14;verticalAlign=top;" parent="VnPsaf1fOgnWxRLPpmIB-1" vertex="1">
          <mxGeometry x="341" y="609" width="159" height="130" as="geometry" />
        </mxCell>
        <mxCell id="4V6hsMgdvqKIR4vV5b8r-3" value="" style="group" parent="VnPsaf1fOgnWxRLPpmIB-1" vertex="1" connectable="0">
          <mxGeometry x="110" y="328" width="970" height="330" as="geometry" />
        </mxCell>
        <mxCell id="4V6hsMgdvqKIR4vV5b8r-4" value="3D 台北系統" style="shape=ext;rounded=1;html=1;whiteSpace=wrap;fontFamily=微軟正黑體;fontSize=14;verticalAlign=top;" parent="4V6hsMgdvqKIR4vV5b8r-3" vertex="1">
          <mxGeometry y="-116" width="880" height="370" as="geometry" />
        </mxCell>
        <mxCell id="4V6hsMgdvqKIR4vV5b8r-6" value="" style="group" parent="4V6hsMgdvqKIR4vV5b8r-3" vertex="1" connectable="0">
          <mxGeometry x="21" y="5" width="900" height="300" as="geometry" />
        </mxCell>
        <mxCell id="4V6hsMgdvqKIR4vV5b8r-7" value="3D 台北系統核心子系統集" style="shape=ext;rounded=1;html=1;whiteSpace=wrap;fontFamily=微軟正黑體;fontSize=14;verticalAlign=top;" parent="4V6hsMgdvqKIR4vV5b8r-6" vertex="1">
          <mxGeometry y="8" width="840" height="227" as="geometry" />
        </mxCell>
        <mxCell id="4V6hsMgdvqKIR4vV5b8r-8" value="" style="shape=mxgraph.bpmn.service_task;html=1;outlineConnect=0;" parent="4V6hsMgdvqKIR4vV5b8r-6" vertex="1">
          <mxGeometry x="18.00333333333333" y="28" width="11.666666666666668" height="14" as="geometry" />
        </mxCell>
        <mxCell id="4V6hsMgdvqKIR4vV5b8r-9" value="&lt;span style=&quot;font-size: 12px&quot;&gt;統計台北&lt;/span&gt;" style="html=1;whiteSpace=wrap;rounded=1;fontFamily=微軟正黑體;fontSize=14;" parent="4V6hsMgdvqKIR4vV5b8r-6" vertex="1">
          <mxGeometry x="160" y="48" width="100" height="80" as="geometry" />
        </mxCell>
        <mxCell id="4V6hsMgdvqKIR4vV5b8r-10" value="" style="html=1;shape=plus;outlineConnect=0;fontFamily=微軟正黑體;fontSize=14;" parent="4V6hsMgdvqKIR4vV5b8r-9" vertex="1">
          <mxGeometry x="0.5" y="1" width="14" height="14" relative="1" as="geometry">
            <mxPoint x="-7" y="-14" as="offset" />
          </mxGeometry>
        </mxCell>
        <mxCell id="4V6hsMgdvqKIR4vV5b8r-11" value="" style="shape=mxgraph.bpmn.service_task;html=1;outlineConnect=0;" parent="4V6hsMgdvqKIR4vV5b8r-9" vertex="1">
          <mxGeometry x="10.00333333333333" y="10" width="11.666666666666668" height="14" as="geometry" />
        </mxCell>
        <mxCell id="4V6hsMgdvqKIR4vV5b8r-12" value="&lt;span style=&quot;font-size: 12px&quot;&gt;防災資訊&lt;/span&gt;" style="html=1;whiteSpace=wrap;rounded=1;fontFamily=微軟正黑體;fontSize=14;" parent="4V6hsMgdvqKIR4vV5b8r-6" vertex="1">
          <mxGeometry x="272" y="48" width="100" height="80" as="geometry" />
        </mxCell>
        <mxCell id="4V6hsMgdvqKIR4vV5b8r-13" value="" style="html=1;shape=plus;outlineConnect=0;fontFamily=微軟正黑體;fontSize=14;" parent="4V6hsMgdvqKIR4vV5b8r-12" vertex="1">
          <mxGeometry x="0.5" y="1" width="14" height="14" relative="1" as="geometry">
            <mxPoint x="-7" y="-14" as="offset" />
          </mxGeometry>
        </mxCell>
        <mxCell id="4V6hsMgdvqKIR4vV5b8r-14" value="" style="shape=mxgraph.bpmn.service_task;html=1;outlineConnect=0;" parent="4V6hsMgdvqKIR4vV5b8r-12" vertex="1">
          <mxGeometry x="10.00333333333333" y="10" width="11.666666666666668" height="14" as="geometry" />
        </mxCell>
        <mxCell id="4V6hsMgdvqKIR4vV5b8r-15" value="&lt;span style=&quot;font-size: 12px&quot;&gt;交通資訊&lt;/span&gt;" style="html=1;whiteSpace=wrap;rounded=1;fontFamily=微軟正黑體;fontSize=14;" parent="4V6hsMgdvqKIR4vV5b8r-6" vertex="1">
          <mxGeometry x="385" y="48" width="100" height="80" as="geometry" />
        </mxCell>
        <mxCell id="4V6hsMgdvqKIR4vV5b8r-16" value="" style="html=1;shape=plus;outlineConnect=0;fontFamily=微軟正黑體;fontSize=14;" parent="4V6hsMgdvqKIR4vV5b8r-15" vertex="1">
          <mxGeometry x="0.5" y="1" width="14" height="14" relative="1" as="geometry">
            <mxPoint x="-7" y="-14" as="offset" />
          </mxGeometry>
        </mxCell>
        <mxCell id="4V6hsMgdvqKIR4vV5b8r-17" value="" style="shape=mxgraph.bpmn.service_task;html=1;outlineConnect=0;" parent="4V6hsMgdvqKIR4vV5b8r-15" vertex="1">
          <mxGeometry x="10.00333333333333" y="10" width="11.666666666666668" height="14" as="geometry" />
        </mxCell>
        <mxCell id="4V6hsMgdvqKIR4vV5b8r-18" value="&lt;span style=&quot;font-size: 12px&quot;&gt;城市外交&lt;/span&gt;" style="html=1;whiteSpace=wrap;rounded=1;fontFamily=微軟正黑體;fontSize=14;" parent="4V6hsMgdvqKIR4vV5b8r-6" vertex="1">
          <mxGeometry x="497" y="48" width="100" height="80" as="geometry" />
        </mxCell>
        <mxCell id="4V6hsMgdvqKIR4vV5b8r-19" value="" style="html=1;shape=plus;outlineConnect=0;fontFamily=微軟正黑體;fontSize=14;" parent="4V6hsMgdvqKIR4vV5b8r-18" vertex="1">
          <mxGeometry x="0.5" y="1" width="14" height="14" relative="1" as="geometry">
            <mxPoint x="-7" y="-14" as="offset" />
          </mxGeometry>
        </mxCell>
        <mxCell id="4V6hsMgdvqKIR4vV5b8r-20" value="" style="shape=mxgraph.bpmn.service_task;html=1;outlineConnect=0;" parent="4V6hsMgdvqKIR4vV5b8r-18" vertex="1">
          <mxGeometry x="10.00333333333333" y="10" width="11.666666666666668" height="14" as="geometry" />
        </mxCell>
        <mxCell id="4V6hsMgdvqKIR4vV5b8r-21" value="&lt;span style=&quot;font-size: 12px&quot;&gt;都市計畫&lt;/span&gt;" style="html=1;whiteSpace=wrap;rounded=1;fontFamily=微軟正黑體;fontSize=14;" parent="4V6hsMgdvqKIR4vV5b8r-6" vertex="1">
          <mxGeometry x="49" y="137" width="100" height="80" as="geometry" />
        </mxCell>
        <mxCell id="4V6hsMgdvqKIR4vV5b8r-22" value="" style="html=1;shape=plus;outlineConnect=0;fontFamily=微軟正黑體;fontSize=14;" parent="4V6hsMgdvqKIR4vV5b8r-21" vertex="1">
          <mxGeometry x="0.5" y="1" width="14" height="14" relative="1" as="geometry">
            <mxPoint x="-7" y="-14" as="offset" />
          </mxGeometry>
        </mxCell>
        <mxCell id="4V6hsMgdvqKIR4vV5b8r-23" value="" style="shape=mxgraph.bpmn.service_task;html=1;outlineConnect=0;" parent="4V6hsMgdvqKIR4vV5b8r-21" vertex="1">
          <mxGeometry x="10.00333333333333" y="10" width="11.666666666666668" height="14" as="geometry" />
        </mxCell>
        <mxCell id="4V6hsMgdvqKIR4vV5b8r-24" value="&lt;span style=&quot;font-size: 12px&quot;&gt;文化藝術&lt;/span&gt;" style="html=1;whiteSpace=wrap;rounded=1;fontFamily=微軟正黑體;fontSize=14;" parent="4V6hsMgdvqKIR4vV5b8r-6" vertex="1">
          <mxGeometry x="161" y="138" width="100" height="80" as="geometry" />
        </mxCell>
        <mxCell id="4V6hsMgdvqKIR4vV5b8r-25" value="" style="html=1;shape=plus;outlineConnect=0;fontFamily=微軟正黑體;fontSize=14;" parent="4V6hsMgdvqKIR4vV5b8r-24" vertex="1">
          <mxGeometry x="0.5" y="1" width="14" height="14" relative="1" as="geometry">
            <mxPoint x="-7" y="-14" as="offset" />
          </mxGeometry>
        </mxCell>
        <mxCell id="4V6hsMgdvqKIR4vV5b8r-26" value="" style="shape=mxgraph.bpmn.service_task;html=1;outlineConnect=0;" parent="4V6hsMgdvqKIR4vV5b8r-24" vertex="1">
          <mxGeometry x="10.00333333333333" y="10" width="11.666666666666668" height="14" as="geometry" />
        </mxCell>
        <mxCell id="4V6hsMgdvqKIR4vV5b8r-27" value="&lt;span style=&quot;font-size: 12px&quot;&gt;學習城市&lt;/span&gt;" style="html=1;whiteSpace=wrap;rounded=1;fontFamily=微軟正黑體;fontSize=14;" parent="4V6hsMgdvqKIR4vV5b8r-6" vertex="1">
          <mxGeometry x="272" y="139" width="100" height="80" as="geometry" />
        </mxCell>
        <mxCell id="4V6hsMgdvqKIR4vV5b8r-28" value="" style="html=1;shape=plus;outlineConnect=0;fontFamily=微軟正黑體;fontSize=14;" parent="4V6hsMgdvqKIR4vV5b8r-27" vertex="1">
          <mxGeometry x="0.5" y="1" width="14" height="14" relative="1" as="geometry">
            <mxPoint x="-7" y="-14" as="offset" />
          </mxGeometry>
        </mxCell>
        <mxCell id="4V6hsMgdvqKIR4vV5b8r-29" value="" style="shape=mxgraph.bpmn.service_task;html=1;outlineConnect=0;" parent="4V6hsMgdvqKIR4vV5b8r-27" vertex="1">
          <mxGeometry x="10.00333333333333" y="10" width="11.666666666666668" height="14" as="geometry" />
        </mxCell>
        <mxCell id="4V6hsMgdvqKIR4vV5b8r-30" value="&lt;span style=&quot;font-size: 12px&quot;&gt;休閒生活&lt;/span&gt;" style="html=1;whiteSpace=wrap;rounded=1;fontFamily=微軟正黑體;fontSize=14;" parent="4V6hsMgdvqKIR4vV5b8r-6" vertex="1">
          <mxGeometry x="385" y="139" width="100" height="80" as="geometry" />
        </mxCell>
        <mxCell id="4V6hsMgdvqKIR4vV5b8r-31" value="" style="html=1;shape=plus;outlineConnect=0;fontFamily=微軟正黑體;fontSize=14;" parent="4V6hsMgdvqKIR4vV5b8r-30" vertex="1">
          <mxGeometry x="0.5" y="1" width="14" height="14" relative="1" as="geometry">
            <mxPoint x="-7" y="-14" as="offset" />
          </mxGeometry>
        </mxCell>
        <mxCell id="4V6hsMgdvqKIR4vV5b8r-32" value="" style="shape=mxgraph.bpmn.service_task;html=1;outlineConnect=0;" parent="4V6hsMgdvqKIR4vV5b8r-30" vertex="1">
          <mxGeometry x="10.00333333333333" y="10" width="11.666666666666668" height="14" as="geometry" />
        </mxCell>
        <mxCell id="4V6hsMgdvqKIR4vV5b8r-33" value="&lt;span style=&quot;font-size: 12px&quot;&gt;市政建設&lt;/span&gt;" style="html=1;whiteSpace=wrap;rounded=1;fontFamily=微軟正黑體;fontSize=14;" parent="4V6hsMgdvqKIR4vV5b8r-6" vertex="1">
          <mxGeometry x="498" y="139" width="100" height="80" as="geometry" />
        </mxCell>
        <mxCell id="4V6hsMgdvqKIR4vV5b8r-34" value="" style="html=1;shape=plus;outlineConnect=0;fontFamily=微軟正黑體;fontSize=14;" parent="4V6hsMgdvqKIR4vV5b8r-33" vertex="1">
          <mxGeometry x="0.5" y="1" width="14" height="14" relative="1" as="geometry">
            <mxPoint x="-7" y="-14" as="offset" />
          </mxGeometry>
        </mxCell>
        <mxCell id="4V6hsMgdvqKIR4vV5b8r-35" value="" style="shape=mxgraph.bpmn.service_task;html=1;outlineConnect=0;" parent="4V6hsMgdvqKIR4vV5b8r-33" vertex="1">
          <mxGeometry x="10.00333333333333" y="10" width="11.666666666666668" height="14" as="geometry" />
        </mxCell>
        <mxCell id="kuGlWOPwzVs5m90xsd0W-3" value="&lt;span style=&quot;font-size: 12px&quot;&gt;文化導覽&lt;/span&gt;" style="html=1;whiteSpace=wrap;rounded=1;fontFamily=微軟正黑體;fontSize=14;" parent="4V6hsMgdvqKIR4vV5b8r-6" vertex="1">
          <mxGeometry x="609" y="48" width="100" height="80" as="geometry" />
        </mxCell>
        <mxCell id="kuGlWOPwzVs5m90xsd0W-4" value="" style="html=1;shape=plus;outlineConnect=0;fontFamily=微軟正黑體;fontSize=14;" parent="kuGlWOPwzVs5m90xsd0W-3" vertex="1">
          <mxGeometry x="0.5" y="1" width="14" height="14" relative="1" as="geometry">
            <mxPoint x="-7" y="-14" as="offset" />
          </mxGeometry>
        </mxCell>
        <mxCell id="kuGlWOPwzVs5m90xsd0W-5" value="" style="shape=mxgraph.bpmn.service_task;html=1;outlineConnect=0;" parent="kuGlWOPwzVs5m90xsd0W-3" vertex="1">
          <mxGeometry x="10.00333333333333" y="10" width="11.666666666666668" height="14" as="geometry" />
        </mxCell>
        <mxCell id="kuGlWOPwzVs5m90xsd0W-6" value="&lt;span style=&quot;font-size: 12px&quot;&gt;空氣品質&lt;/span&gt;" style="html=1;whiteSpace=wrap;rounded=1;fontFamily=微軟正黑體;fontSize=14;" parent="4V6hsMgdvqKIR4vV5b8r-6" vertex="1">
          <mxGeometry x="609" y="139" width="100" height="80" as="geometry" />
        </mxCell>
        <mxCell id="kuGlWOPwzVs5m90xsd0W-8" value="" style="shape=mxgraph.bpmn.service_task;html=1;outlineConnect=0;" parent="kuGlWOPwzVs5m90xsd0W-6" vertex="1">
          <mxGeometry x="10.00333333333333" y="10" width="11.666666666666668" height="14" as="geometry" />
        </mxCell>
        <mxCell id="kuGlWOPwzVs5m90xsd0W-9" value="&lt;span style=&quot;font-size: 12px&quot;&gt;實價登錄&lt;/span&gt;" style="html=1;whiteSpace=wrap;rounded=1;fontFamily=微軟正黑體;fontSize=14;" parent="4V6hsMgdvqKIR4vV5b8r-6" vertex="1">
          <mxGeometry x="719" y="48" width="100" height="80" as="geometry" />
        </mxCell>
        <mxCell id="kuGlWOPwzVs5m90xsd0W-10" value="" style="shape=mxgraph.bpmn.service_task;html=1;outlineConnect=0;" parent="kuGlWOPwzVs5m90xsd0W-9" vertex="1">
          <mxGeometry x="10.00333333333333" y="10" width="11.666666666666668" height="14" as="geometry" />
        </mxCell>
        <mxCell id="kuGlWOPwzVs5m90xsd0W-11" value="&lt;span style=&quot;font-size: 12px&quot;&gt;台北4D城市&lt;br&gt;儀錶板&lt;br&gt;&lt;/span&gt;" style="html=1;whiteSpace=wrap;rounded=1;fontFamily=微軟正黑體;fontSize=14;" parent="4V6hsMgdvqKIR4vV5b8r-6" vertex="1">
          <mxGeometry x="719" y="137" width="100" height="80" as="geometry" />
        </mxCell>
        <mxCell id="kuGlWOPwzVs5m90xsd0W-12" value="" style="shape=mxgraph.bpmn.service_task;html=1;outlineConnect=0;" parent="kuGlWOPwzVs5m90xsd0W-11" vertex="1">
          <mxGeometry x="10.00333333333333" y="10" width="11.666666666666668" height="14" as="geometry" />
        </mxCell>
        <mxCell id="4V6hsMgdvqKIR4vV5b8r-36" value="&lt;font style=&quot;font-size: 12px&quot;&gt;智慧城市3D台北&lt;br&gt;Web GUI&lt;/font&gt;" style="shape=ext;rounded=1;html=1;whiteSpace=wrap;fontFamily=微軟正黑體;fontSize=14;" parent="4V6hsMgdvqKIR4vV5b8r-3" vertex="1">
          <mxGeometry x="442" y="-82" width="100" height="80" as="geometry" />
        </mxCell>
        <mxCell id="4V6hsMgdvqKIR4vV5b8r-5" value="" style="shape=mxgraph.bpmn.service_task;html=1;outlineConnect=0;" parent="4V6hsMgdvqKIR4vV5b8r-3" vertex="1">
          <mxGeometry x="30" y="-96" width="14" height="14" as="geometry" />
        </mxCell>
        <mxCell id="4V6hsMgdvqKIR4vV5b8r-45" value="使用者" style="shape=umlActor;verticalLabelPosition=bottom;verticalAlign=top;html=1;outlineConnect=0;" parent="VnPsaf1fOgnWxRLPpmIB-1" vertex="1">
          <mxGeometry x="334" y="102" width="30" height="60" as="geometry" />
        </mxCell>
        <mxCell id="4V6hsMgdvqKIR4vV5b8r-46" value="" style="group" parent="VnPsaf1fOgnWxRLPpmIB-1" vertex="1" connectable="0">
          <mxGeometry x="439" y="92" width="100" height="80" as="geometry" />
        </mxCell>
        <mxCell id="4V6hsMgdvqKIR4vV5b8r-47" value="&lt;font style=&quot;font-size: 12px&quot;&gt;資訊局&lt;br&gt;Web GUI&lt;br&gt;&lt;/font&gt;" style="shape=ext;rounded=1;html=1;whiteSpace=wrap;fontFamily=微軟正黑體;fontSize=14;" parent="4V6hsMgdvqKIR4vV5b8r-46" vertex="1">
          <mxGeometry width="100" height="80" as="geometry" />
        </mxCell>
        <mxCell id="4V6hsMgdvqKIR4vV5b8r-48" value="" style="shape=mxgraph.bpmn.service_task;html=1;outlineConnect=0;" parent="4V6hsMgdvqKIR4vV5b8r-46" vertex="1">
          <mxGeometry x="8.333333333333334" y="10" width="11.666666666666668" height="14" as="geometry" />
        </mxCell>
        <mxCell id="4V6hsMgdvqKIR4vV5b8r-49" style="edgeStyle=orthogonalEdgeStyle;rounded=1;orthogonalLoop=1;jettySize=auto;html=1;entryX=1;entryY=0.5;entryDx=0;entryDy=0;exitX=0.5;exitY=0;exitDx=0;exitDy=0;" parent="VnPsaf1fOgnWxRLPpmIB-1" source="4V6hsMgdvqKIR4vV5b8r-36" target="4V6hsMgdvqKIR4vV5b8r-47" edge="1">
          <mxGeometry relative="1" as="geometry" />
        </mxCell>
        <mxCell id="4V6hsMgdvqKIR4vV5b8r-50" value="被使用" style="edgeLabel;html=1;align=center;verticalAlign=middle;resizable=0;points=[];" parent="4V6hsMgdvqKIR4vV5b8r-49" vertex="1" connectable="0">
          <mxGeometry x="-0.2577" y="1" relative="1" as="geometry">
            <mxPoint x="-6" y="-49" as="offset" />
          </mxGeometry>
        </mxCell>
        <mxCell id="4V6hsMgdvqKIR4vV5b8r-51" style="edgeStyle=orthogonalEdgeStyle;rounded=1;orthogonalLoop=1;jettySize=auto;html=1;entryX=1;entryY=0.5;entryDx=0;entryDy=0;" parent="VnPsaf1fOgnWxRLPpmIB-1" source="4V6hsMgdvqKIR4vV5b8r-47" edge="1">
          <mxGeometry relative="1" as="geometry">
            <mxPoint x="370" y="132" as="targetPoint" />
          </mxGeometry>
        </mxCell>
        <mxCell id="4V6hsMgdvqKIR4vV5b8r-52" value="被使用" style="edgeLabel;html=1;align=center;verticalAlign=middle;resizable=0;points=[];" parent="4V6hsMgdvqKIR4vV5b8r-51" vertex="1" connectable="0">
          <mxGeometry x="-0.2249" y="1" relative="1" as="geometry">
            <mxPoint as="offset" />
          </mxGeometry>
        </mxCell>
        <mxCell id="4V6hsMgdvqKIR4vV5b8r-55" value="" style="group" parent="VnPsaf1fOgnWxRLPpmIB-1" vertex="1" connectable="0">
          <mxGeometry x="182" y="634" width="100" height="80" as="geometry" />
        </mxCell>
        <mxCell id="4V6hsMgdvqKIR4vV5b8r-56" value="&lt;font style=&quot;font-size: 12px&quot;&gt;API&lt;/font&gt;" style="shape=ext;rounded=1;html=1;whiteSpace=wrap;fontFamily=微軟正黑體;fontSize=14;" parent="4V6hsMgdvqKIR4vV5b8r-55" vertex="1">
          <mxGeometry x="-1" width="100" height="80" as="geometry" />
        </mxCell>
        <mxCell id="4V6hsMgdvqKIR4vV5b8r-57" value="" style="shape=mxgraph.bpmn.service_task;html=1;outlineConnect=0;" parent="4V6hsMgdvqKIR4vV5b8r-55" vertex="1">
          <mxGeometry x="8.333333333333334" y="10" width="11.666666666666668" height="14" as="geometry" />
        </mxCell>
        <mxCell id="4V6hsMgdvqKIR4vV5b8r-58" value="" style="group" parent="VnPsaf1fOgnWxRLPpmIB-1" vertex="1" connectable="0">
          <mxGeometry x="332" y="649" width="490" height="80" as="geometry" />
        </mxCell>
        <mxCell id="4V6hsMgdvqKIR4vV5b8r-59" value="" style="group" parent="4V6hsMgdvqKIR4vV5b8r-58" vertex="1" connectable="0">
          <mxGeometry x="39.00000000000004" y="-10" width="100" height="80" as="geometry" />
        </mxCell>
        <mxCell id="4V6hsMgdvqKIR4vV5b8r-60" value="" style="group" parent="4V6hsMgdvqKIR4vV5b8r-59" vertex="1" connectable="0">
          <mxGeometry width="100" height="80" as="geometry" />
        </mxCell>
        <mxCell id="4V6hsMgdvqKIR4vV5b8r-61" value="&lt;font style=&quot;font-size: 12px&quot;&gt;資料大平台&lt;/font&gt;" style="shape=ext;rounded=1;html=1;whiteSpace=wrap;fontFamily=微軟正黑體;fontSize=14;" parent="4V6hsMgdvqKIR4vV5b8r-60" vertex="1">
          <mxGeometry width="100" height="80" as="geometry" />
        </mxCell>
        <mxCell id="4V6hsMgdvqKIR4vV5b8r-62" value="" style="shape=mxgraph.bpmn.service_task;html=1;outlineConnect=0;" parent="4V6hsMgdvqKIR4vV5b8r-60" vertex="1">
          <mxGeometry x="8.333333333333334" y="10" width="11.666666666666668" height="14" as="geometry" />
        </mxCell>
        <mxCell id="4V6hsMgdvqKIR4vV5b8r-64" value="" style="shape=mxgraph.bpmn.service_task;html=1;outlineConnect=0;" parent="VnPsaf1fOgnWxRLPpmIB-1" vertex="1">
          <mxGeometry x="352" y="620" width="14" height="14" as="geometry" />
        </mxCell>
        <mxCell id="4V6hsMgdvqKIR4vV5b8r-73" style="edgeStyle=orthogonalEdgeStyle;rounded=0;orthogonalLoop=1;jettySize=auto;html=1;" parent="VnPsaf1fOgnWxRLPpmIB-1" source="4V6hsMgdvqKIR4vV5b8r-56" edge="1">
          <mxGeometry relative="1" as="geometry">
            <mxPoint x="231" y="569" as="targetPoint" />
          </mxGeometry>
        </mxCell>
        <mxCell id="4V6hsMgdvqKIR4vV5b8r-74" value="被使用" style="edgeLabel;html=1;align=center;verticalAlign=middle;resizable=0;points=[];" parent="4V6hsMgdvqKIR4vV5b8r-73" vertex="1" connectable="0">
          <mxGeometry x="-0.2416" y="1" relative="1" as="geometry">
            <mxPoint as="offset" />
          </mxGeometry>
        </mxCell>
        <mxCell id="4V6hsMgdvqKIR4vV5b8r-75" value="" style="group" parent="VnPsaf1fOgnWxRLPpmIB-1" vertex="1" connectable="0">
          <mxGeometry x="670" y="92" width="100" height="80" as="geometry" />
        </mxCell>
        <mxCell id="4V6hsMgdvqKIR4vV5b8r-76" value="&lt;font style=&quot;font-size: 12px&quot;&gt;權限管理子系統&lt;br&gt;&lt;/font&gt;" style="shape=ext;rounded=1;html=1;whiteSpace=wrap;fontFamily=微軟正黑體;fontSize=14;" parent="4V6hsMgdvqKIR4vV5b8r-75" vertex="1">
          <mxGeometry width="100" height="80" as="geometry" />
        </mxCell>
        <mxCell id="4V6hsMgdvqKIR4vV5b8r-77" value="" style="shape=mxgraph.bpmn.service_task;html=1;outlineConnect=0;" parent="4V6hsMgdvqKIR4vV5b8r-75" vertex="1">
          <mxGeometry x="8.333333333333334" y="10" width="11.666666666666668" height="14" as="geometry" />
        </mxCell>
        <mxCell id="4V6hsMgdvqKIR4vV5b8r-78" style="edgeStyle=orthogonalEdgeStyle;rounded=0;orthogonalLoop=1;jettySize=auto;html=1;" parent="VnPsaf1fOgnWxRLPpmIB-1" source="4V6hsMgdvqKIR4vV5b8r-76" edge="1">
          <mxGeometry relative="1" as="geometry">
            <mxPoint x="720" y="209" as="targetPoint" />
          </mxGeometry>
        </mxCell>
        <mxCell id="4V6hsMgdvqKIR4vV5b8r-79" value="被使用" style="edgeLabel;html=1;align=center;verticalAlign=middle;resizable=0;points=[];" parent="4V6hsMgdvqKIR4vV5b8r-78" vertex="1" connectable="0">
          <mxGeometry x="-0.3236" y="1" relative="1" as="geometry">
            <mxPoint as="offset" />
          </mxGeometry>
        </mxCell>
        <mxCell id="4V6hsMgdvqKIR4vV5b8r-80" style="edgeStyle=orthogonalEdgeStyle;rounded=1;orthogonalLoop=1;jettySize=auto;html=1;" parent="VnPsaf1fOgnWxRLPpmIB-1" source="4V6hsMgdvqKIR4vV5b8r-82" edge="1">
          <mxGeometry relative="1" as="geometry">
            <mxPoint x="900" y="582" as="targetPoint" />
          </mxGeometry>
        </mxCell>
        <mxCell id="4V6hsMgdvqKIR4vV5b8r-81" value="被使用" style="edgeLabel;html=1;align=center;verticalAlign=middle;resizable=0;points=[];" parent="4V6hsMgdvqKIR4vV5b8r-80" vertex="1" connectable="0">
          <mxGeometry x="-0.198" relative="1" as="geometry">
            <mxPoint as="offset" />
          </mxGeometry>
        </mxCell>
        <mxCell id="4V6hsMgdvqKIR4vV5b8r-82" value="3D台北系統&lt;br&gt;資料庫" style="shape=datastore;whiteSpace=wrap;html=1;" parent="VnPsaf1fOgnWxRLPpmIB-1" vertex="1">
          <mxGeometry x="864" y="630" width="72.5" height="72.5" as="geometry" />
        </mxCell>
        <mxCell id="kuGlWOPwzVs5m90xsd0W-0" value="&lt;span style=&quot;font-size: 12px&quot;&gt;社會福利&lt;/span&gt;" style="html=1;whiteSpace=wrap;rounded=1;fontFamily=微軟正黑體;fontSize=14;" parent="VnPsaf1fOgnWxRLPpmIB-1" vertex="1">
          <mxGeometry x="180" y="381" width="100" height="80" as="geometry" />
        </mxCell>
        <mxCell id="kuGlWOPwzVs5m90xsd0W-1" value="" style="html=1;shape=plus;outlineConnect=0;fontFamily=微軟正黑體;fontSize=14;" parent="kuGlWOPwzVs5m90xsd0W-0" vertex="1">
          <mxGeometry x="0.5" y="1" width="14" height="14" relative="1" as="geometry">
            <mxPoint x="-7" y="-14" as="offset" />
          </mxGeometry>
        </mxCell>
        <mxCell id="kuGlWOPwzVs5m90xsd0W-2" value="" style="shape=mxgraph.bpmn.service_task;html=1;outlineConnect=0;" parent="kuGlWOPwzVs5m90xsd0W-0" vertex="1">
          <mxGeometry x="10.00333333333333" y="10" width="11.666666666666668" height="14" as="geometry" />
        </mxCell>
        <mxCell id="4V6hsMgdvqKIR4vV5b8r-37" value="" style="shape=mxgraph.bpmn.service_task;html=1;outlineConnect=0;" parent="VnPsaf1fOgnWxRLPpmIB-1" vertex="1">
          <mxGeometry x="560.0033333333332" y="256" width="11.666666666666668" height="14" as="geometry" />
        </mxCell>
      </root>
    </mxGraphModel>
  </diagram>
  <diagram id="3WqepZRzRodnthh498a9" name="07_RACI_3D 台北系統">
    <mxGraphModel dx="910" dy="515" grid="1" gridSize="10" guides="1" tooltips="1" connect="1" arrows="1" fold="1" page="1" pageScale="1" pageWidth="1169" pageHeight="827" math="0" shadow="0">
      <root>
        <mxCell id="7PkPAG3ts2pdo1U26o5w-0" />
        <mxCell id="7PkPAG3ts2pdo1U26o5w-1" parent="7PkPAG3ts2pdo1U26o5w-0" />
        <mxCell id="7PkPAG3ts2pdo1U26o5w-2" value="" style="shape=table;html=1;whiteSpace=wrap;startSize=0;container=1;collapsible=0;childLayout=tableLayout;" parent="7PkPAG3ts2pdo1U26o5w-1" vertex="1">
          <mxGeometry x="190" y="130" width="688.5" height="240" as="geometry" />
        </mxCell>
        <mxCell id="7PkPAG3ts2pdo1U26o5w-3" value="" style="shape=partialRectangle;html=1;whiteSpace=wrap;collapsible=0;dropTarget=0;pointerEvents=0;fillColor=none;top=0;left=0;bottom=0;right=0;points=[[0,0.5],[1,0.5]];portConstraint=eastwest;" parent="7PkPAG3ts2pdo1U26o5w-2" vertex="1">
          <mxGeometry width="688.5" height="65" as="geometry" />
        </mxCell>
        <mxCell id="7PkPAG3ts2pdo1U26o5w-4" value="&lt;span style=&quot;font-size: 15px&quot;&gt;Case\Actor&lt;/span&gt;" style="shape=partialRectangle;html=1;whiteSpace=wrap;connectable=0;fillColor=none;top=0;left=0;bottom=0;right=0;overflow=hidden;" parent="7PkPAG3ts2pdo1U26o5w-3" vertex="1">
          <mxGeometry width="173" height="65" as="geometry">
            <mxRectangle width="173" height="65" as="alternateBounds" />
          </mxGeometry>
        </mxCell>
        <mxCell id="7PkPAG3ts2pdo1U26o5w-5" value="&lt;font style=&quot;font-size: 15px&quot;&gt;市府員工&lt;/font&gt;" style="shape=partialRectangle;html=1;whiteSpace=wrap;connectable=0;fillColor=none;top=0;left=0;bottom=0;right=0;overflow=hidden;" parent="7PkPAG3ts2pdo1U26o5w-3" vertex="1">
          <mxGeometry x="173" width="172" height="65" as="geometry">
            <mxRectangle width="172" height="65" as="alternateBounds" />
          </mxGeometry>
        </mxCell>
        <mxCell id="7PkPAG3ts2pdo1U26o5w-6" value="&lt;span style=&quot;font-size: 15px&quot;&gt;民眾&lt;/span&gt;" style="shape=partialRectangle;html=1;whiteSpace=wrap;connectable=0;fillColor=none;top=0;left=0;bottom=0;right=0;overflow=hidden;" parent="7PkPAG3ts2pdo1U26o5w-3" vertex="1">
          <mxGeometry x="345" width="172" height="65" as="geometry">
            <mxRectangle width="172" height="65" as="alternateBounds" />
          </mxGeometry>
        </mxCell>
        <mxCell id="7PkPAG3ts2pdo1U26o5w-7" value="&lt;font style=&quot;font-size: 15px&quot;&gt;維運廠商&lt;/font&gt;" style="shape=partialRectangle;html=1;whiteSpace=wrap;connectable=0;fillColor=none;top=0;left=0;bottom=0;right=0;overflow=hidden;" parent="7PkPAG3ts2pdo1U26o5w-3" vertex="1">
          <mxGeometry x="517" width="172" height="65" as="geometry">
            <mxRectangle width="172" height="65" as="alternateBounds" />
          </mxGeometry>
        </mxCell>
        <mxCell id="7PkPAG3ts2pdo1U26o5w-8" value="" style="shape=partialRectangle;html=1;whiteSpace=wrap;collapsible=0;dropTarget=0;pointerEvents=0;fillColor=none;top=0;left=0;bottom=0;right=0;points=[[0,0.5],[1,0.5]];portConstraint=eastwest;" parent="7PkPAG3ts2pdo1U26o5w-2" vertex="1">
          <mxGeometry y="65" width="688.5" height="55" as="geometry" />
        </mxCell>
        <mxCell id="7PkPAG3ts2pdo1U26o5w-9" value="&lt;font style=&quot;font-size: 15px&quot;&gt;資料更新管理&lt;/font&gt;" style="shape=partialRectangle;html=1;whiteSpace=wrap;connectable=0;fillColor=none;top=0;left=0;bottom=0;right=0;overflow=hidden;" parent="7PkPAG3ts2pdo1U26o5w-8" vertex="1">
          <mxGeometry width="173" height="55" as="geometry">
            <mxRectangle width="173" height="55" as="alternateBounds" />
          </mxGeometry>
        </mxCell>
        <mxCell id="7PkPAG3ts2pdo1U26o5w-10" value="&lt;span style=&quot;font-size: 15px;&quot;&gt;R&lt;/span&gt;" style="shape=partialRectangle;html=1;whiteSpace=wrap;connectable=0;fillColor=none;top=0;left=0;bottom=0;right=0;overflow=hidden;" parent="7PkPAG3ts2pdo1U26o5w-8" vertex="1">
          <mxGeometry x="173" width="172" height="55" as="geometry">
            <mxRectangle width="172" height="55" as="alternateBounds" />
          </mxGeometry>
        </mxCell>
        <mxCell id="7PkPAG3ts2pdo1U26o5w-11" value="" style="shape=partialRectangle;html=1;whiteSpace=wrap;connectable=0;fillColor=none;top=0;left=0;bottom=0;right=0;overflow=hidden;" parent="7PkPAG3ts2pdo1U26o5w-8" vertex="1">
          <mxGeometry x="345" width="172" height="55" as="geometry">
            <mxRectangle width="172" height="55" as="alternateBounds" />
          </mxGeometry>
        </mxCell>
        <mxCell id="7PkPAG3ts2pdo1U26o5w-12" style="shape=partialRectangle;html=1;whiteSpace=wrap;connectable=0;fillColor=none;top=0;left=0;bottom=0;right=0;overflow=hidden;" parent="7PkPAG3ts2pdo1U26o5w-8" vertex="1">
          <mxGeometry x="517" width="172" height="55" as="geometry">
            <mxRectangle width="172" height="55" as="alternateBounds" />
          </mxGeometry>
        </mxCell>
        <mxCell id="7PkPAG3ts2pdo1U26o5w-13" value="" style="shape=partialRectangle;html=1;whiteSpace=wrap;collapsible=0;dropTarget=0;pointerEvents=0;fillColor=none;top=0;left=0;bottom=0;right=0;points=[[0,0.5],[1,0.5]];portConstraint=eastwest;" parent="7PkPAG3ts2pdo1U26o5w-2" vertex="1">
          <mxGeometry y="120" width="688.5" height="60" as="geometry" />
        </mxCell>
        <mxCell id="7PkPAG3ts2pdo1U26o5w-14" value="&lt;font style=&quot;font-size: 15px&quot;&gt;進入系統服務&lt;/font&gt;" style="shape=partialRectangle;html=1;whiteSpace=wrap;connectable=0;fillColor=none;top=0;left=0;bottom=0;right=0;overflow=hidden;" parent="7PkPAG3ts2pdo1U26o5w-13" vertex="1">
          <mxGeometry width="173" height="60" as="geometry">
            <mxRectangle width="173" height="60" as="alternateBounds" />
          </mxGeometry>
        </mxCell>
        <mxCell id="7PkPAG3ts2pdo1U26o5w-15" value="" style="shape=partialRectangle;html=1;whiteSpace=wrap;connectable=0;fillColor=none;top=0;left=0;bottom=0;right=0;overflow=hidden;" parent="7PkPAG3ts2pdo1U26o5w-13" vertex="1">
          <mxGeometry x="173" width="172" height="60" as="geometry">
            <mxRectangle width="172" height="60" as="alternateBounds" />
          </mxGeometry>
        </mxCell>
        <mxCell id="7PkPAG3ts2pdo1U26o5w-16" value="&lt;span style=&quot;font-size: 15px;&quot;&gt;R&lt;/span&gt;" style="shape=partialRectangle;html=1;whiteSpace=wrap;connectable=0;fillColor=none;top=0;left=0;bottom=0;right=0;overflow=hidden;" parent="7PkPAG3ts2pdo1U26o5w-13" vertex="1">
          <mxGeometry x="345" width="172" height="60" as="geometry">
            <mxRectangle width="172" height="60" as="alternateBounds" />
          </mxGeometry>
        </mxCell>
        <mxCell id="7PkPAG3ts2pdo1U26o5w-17" value="" style="shape=partialRectangle;html=1;whiteSpace=wrap;connectable=0;fillColor=none;top=0;left=0;bottom=0;right=0;overflow=hidden;" parent="7PkPAG3ts2pdo1U26o5w-13" vertex="1">
          <mxGeometry x="517" width="172" height="60" as="geometry">
            <mxRectangle width="172" height="60" as="alternateBounds" />
          </mxGeometry>
        </mxCell>
        <mxCell id="7PkPAG3ts2pdo1U26o5w-18" value="" style="shape=partialRectangle;html=1;whiteSpace=wrap;collapsible=0;dropTarget=0;pointerEvents=0;fillColor=none;top=0;left=0;bottom=0;right=0;points=[[0,0.5],[1,0.5]];portConstraint=eastwest;" parent="7PkPAG3ts2pdo1U26o5w-2" vertex="1">
          <mxGeometry y="180" width="688.5" height="60" as="geometry" />
        </mxCell>
        <mxCell id="7PkPAG3ts2pdo1U26o5w-19" value="&lt;font style=&quot;font-size: 15px&quot;&gt;系統維運&lt;/font&gt;" style="shape=partialRectangle;html=1;whiteSpace=wrap;connectable=0;fillColor=none;top=0;left=0;bottom=0;right=0;overflow=hidden;" parent="7PkPAG3ts2pdo1U26o5w-18" vertex="1">
          <mxGeometry width="173" height="60" as="geometry">
            <mxRectangle width="173" height="60" as="alternateBounds" />
          </mxGeometry>
        </mxCell>
        <mxCell id="7PkPAG3ts2pdo1U26o5w-20" value="" style="shape=partialRectangle;html=1;whiteSpace=wrap;connectable=0;fillColor=none;top=0;left=0;bottom=0;right=0;overflow=hidden;" parent="7PkPAG3ts2pdo1U26o5w-18" vertex="1">
          <mxGeometry x="173" width="172" height="60" as="geometry">
            <mxRectangle width="172" height="60" as="alternateBounds" />
          </mxGeometry>
        </mxCell>
        <mxCell id="7PkPAG3ts2pdo1U26o5w-21" value="" style="shape=partialRectangle;html=1;whiteSpace=wrap;connectable=0;fillColor=none;top=0;left=0;bottom=0;right=0;overflow=hidden;" parent="7PkPAG3ts2pdo1U26o5w-18" vertex="1">
          <mxGeometry x="345" width="172" height="60" as="geometry">
            <mxRectangle width="172" height="60" as="alternateBounds" />
          </mxGeometry>
        </mxCell>
        <mxCell id="7PkPAG3ts2pdo1U26o5w-22" value="&lt;span style=&quot;font-size: 15px;&quot;&gt;R&lt;/span&gt;" style="shape=partialRectangle;html=1;whiteSpace=wrap;connectable=0;fillColor=none;top=0;left=0;bottom=0;right=0;overflow=hidden;" parent="7PkPAG3ts2pdo1U26o5w-18" vertex="1">
          <mxGeometry x="517" width="172" height="60" as="geometry">
            <mxRectangle width="172" height="60" as="alternateBounds" />
          </mxGeometry>
        </mxCell>
        <mxCell id="7PkPAG3ts2pdo1U26o5w-43" value="&lt;font style=&quot;font-size: 20px&quot;&gt;07_RACI_3D 台北系統&lt;br&gt;&lt;/font&gt;" style="text;html=1;align=center;verticalAlign=middle;resizable=0;points=[];autosize=1;strokeColor=none;fillColor=none;" parent="7PkPAG3ts2pdo1U26o5w-1" vertex="1">
          <mxGeometry x="424.25" y="70" width="220" height="20" as="geometry" />
        </mxCell>
      </root>
    </mxGraphModel>
  </diagram>
  <diagram id="eeMekH8Mi5TW7cuU4syX" name="08_Task\Service矩陣表_3D 台北系統">
    <mxGraphModel dx="910" dy="515" grid="1" gridSize="10" guides="1" tooltips="1" connect="1" arrows="1" fold="1" page="1" pageScale="1" pageWidth="1169" pageHeight="827" math="0" shadow="0">
      <root>
        <mxCell id="OjU-XeM3GScLvRBMh0__-0" />
        <mxCell id="OjU-XeM3GScLvRBMh0__-1" parent="OjU-XeM3GScLvRBMh0__-0" />
        <mxCell id="OjU-XeM3GScLvRBMh0__-2" value="" style="shape=table;html=1;whiteSpace=wrap;startSize=0;container=1;collapsible=0;childLayout=tableLayout;" parent="OjU-XeM3GScLvRBMh0__-1" vertex="1">
          <mxGeometry x="212" y="140" width="688.5" height="240" as="geometry" />
        </mxCell>
        <mxCell id="OjU-XeM3GScLvRBMh0__-3" value="" style="shape=partialRectangle;html=1;whiteSpace=wrap;collapsible=0;dropTarget=0;pointerEvents=0;fillColor=none;top=0;left=0;bottom=0;right=0;points=[[0,0.5],[1,0.5]];portConstraint=eastwest;" parent="OjU-XeM3GScLvRBMh0__-2" vertex="1">
          <mxGeometry width="688.5" height="65" as="geometry" />
        </mxCell>
        <mxCell id="OjU-XeM3GScLvRBMh0__-4" value="&lt;span style=&quot;font-size: 15px&quot;&gt;Task\Service&lt;/span&gt;" style="shape=partialRectangle;html=1;whiteSpace=wrap;connectable=0;fillColor=none;top=0;left=0;bottom=0;right=0;overflow=hidden;" parent="OjU-XeM3GScLvRBMh0__-3" vertex="1">
          <mxGeometry width="173" height="65" as="geometry">
            <mxRectangle width="173" height="65" as="alternateBounds" />
          </mxGeometry>
        </mxCell>
        <mxCell id="OjU-XeM3GScLvRBMh0__-5" value="&lt;span style=&quot;font-size: 15px&quot;&gt;系統維運服務&lt;/span&gt;" style="shape=partialRectangle;html=1;whiteSpace=wrap;connectable=0;fillColor=none;top=0;left=0;bottom=0;right=0;overflow=hidden;" parent="OjU-XeM3GScLvRBMh0__-3" vertex="1">
          <mxGeometry x="173" width="172" height="65" as="geometry">
            <mxRectangle width="172" height="65" as="alternateBounds" />
          </mxGeometry>
        </mxCell>
        <mxCell id="OjU-XeM3GScLvRBMh0__-6" value="&lt;span style=&quot;font-size: 15px&quot;&gt;進入系統服務&lt;/span&gt;" style="shape=partialRectangle;html=1;whiteSpace=wrap;connectable=0;fillColor=none;top=0;left=0;bottom=0;right=0;overflow=hidden;" parent="OjU-XeM3GScLvRBMh0__-3" vertex="1">
          <mxGeometry x="345" width="172" height="65" as="geometry">
            <mxRectangle width="172" height="65" as="alternateBounds" />
          </mxGeometry>
        </mxCell>
        <mxCell id="OjU-XeM3GScLvRBMh0__-7" value="&lt;span style=&quot;font-size: 15px&quot;&gt;資料更新管理服務&lt;/span&gt;" style="shape=partialRectangle;html=1;whiteSpace=wrap;connectable=0;fillColor=none;top=0;left=0;bottom=0;right=0;overflow=hidden;" parent="OjU-XeM3GScLvRBMh0__-3" vertex="1">
          <mxGeometry x="517" width="172" height="65" as="geometry">
            <mxRectangle width="172" height="65" as="alternateBounds" />
          </mxGeometry>
        </mxCell>
        <mxCell id="OjU-XeM3GScLvRBMh0__-8" value="" style="shape=partialRectangle;html=1;whiteSpace=wrap;collapsible=0;dropTarget=0;pointerEvents=0;fillColor=none;top=0;left=0;bottom=0;right=0;points=[[0,0.5],[1,0.5]];portConstraint=eastwest;" parent="OjU-XeM3GScLvRBMh0__-2" vertex="1">
          <mxGeometry y="65" width="688.5" height="55" as="geometry" />
        </mxCell>
        <mxCell id="OjU-XeM3GScLvRBMh0__-9" value="&lt;font style=&quot;font-size: 15px&quot;&gt;系統維運&lt;/font&gt;" style="shape=partialRectangle;html=1;whiteSpace=wrap;connectable=0;fillColor=none;top=0;left=0;bottom=0;right=0;overflow=hidden;" parent="OjU-XeM3GScLvRBMh0__-8" vertex="1">
          <mxGeometry width="173" height="55" as="geometry">
            <mxRectangle width="173" height="55" as="alternateBounds" />
          </mxGeometry>
        </mxCell>
        <mxCell id="OjU-XeM3GScLvRBMh0__-10" value="&lt;span style=&quot;font-size: 15px&quot;&gt;V&lt;/span&gt;" style="shape=partialRectangle;html=1;whiteSpace=wrap;connectable=0;fillColor=none;top=0;left=0;bottom=0;right=0;overflow=hidden;" parent="OjU-XeM3GScLvRBMh0__-8" vertex="1">
          <mxGeometry x="173" width="172" height="55" as="geometry">
            <mxRectangle width="172" height="55" as="alternateBounds" />
          </mxGeometry>
        </mxCell>
        <mxCell id="OjU-XeM3GScLvRBMh0__-11" value="" style="shape=partialRectangle;html=1;whiteSpace=wrap;connectable=0;fillColor=none;top=0;left=0;bottom=0;right=0;overflow=hidden;" parent="OjU-XeM3GScLvRBMh0__-8" vertex="1">
          <mxGeometry x="345" width="172" height="55" as="geometry">
            <mxRectangle width="172" height="55" as="alternateBounds" />
          </mxGeometry>
        </mxCell>
        <mxCell id="OjU-XeM3GScLvRBMh0__-12" value="" style="shape=partialRectangle;html=1;whiteSpace=wrap;connectable=0;fillColor=none;top=0;left=0;bottom=0;right=0;overflow=hidden;" parent="OjU-XeM3GScLvRBMh0__-8" vertex="1">
          <mxGeometry x="517" width="172" height="55" as="geometry">
            <mxRectangle width="172" height="55" as="alternateBounds" />
          </mxGeometry>
        </mxCell>
        <mxCell id="OjU-XeM3GScLvRBMh0__-13" value="" style="shape=partialRectangle;html=1;whiteSpace=wrap;collapsible=0;dropTarget=0;pointerEvents=0;fillColor=none;top=0;left=0;bottom=0;right=0;points=[[0,0.5],[1,0.5]];portConstraint=eastwest;" parent="OjU-XeM3GScLvRBMh0__-2" vertex="1">
          <mxGeometry y="120" width="688.5" height="60" as="geometry" />
        </mxCell>
        <mxCell id="OjU-XeM3GScLvRBMh0__-14" value="&lt;font style=&quot;font-size: 15px&quot;&gt;進入系統&lt;/font&gt;" style="shape=partialRectangle;html=1;whiteSpace=wrap;connectable=0;fillColor=none;top=0;left=0;bottom=0;right=0;overflow=hidden;" parent="OjU-XeM3GScLvRBMh0__-13" vertex="1">
          <mxGeometry width="173" height="60" as="geometry">
            <mxRectangle width="173" height="60" as="alternateBounds" />
          </mxGeometry>
        </mxCell>
        <mxCell id="OjU-XeM3GScLvRBMh0__-15" value="" style="shape=partialRectangle;html=1;whiteSpace=wrap;connectable=0;fillColor=none;top=0;left=0;bottom=0;right=0;overflow=hidden;" parent="OjU-XeM3GScLvRBMh0__-13" vertex="1">
          <mxGeometry x="173" width="172" height="60" as="geometry">
            <mxRectangle width="172" height="60" as="alternateBounds" />
          </mxGeometry>
        </mxCell>
        <mxCell id="OjU-XeM3GScLvRBMh0__-16" value="&lt;span style=&quot;font-size: 15px&quot;&gt;V&lt;/span&gt;" style="shape=partialRectangle;html=1;whiteSpace=wrap;connectable=0;fillColor=none;top=0;left=0;bottom=0;right=0;overflow=hidden;" parent="OjU-XeM3GScLvRBMh0__-13" vertex="1">
          <mxGeometry x="345" width="172" height="60" as="geometry">
            <mxRectangle width="172" height="60" as="alternateBounds" />
          </mxGeometry>
        </mxCell>
        <mxCell id="OjU-XeM3GScLvRBMh0__-17" style="shape=partialRectangle;html=1;whiteSpace=wrap;connectable=0;fillColor=none;top=0;left=0;bottom=0;right=0;overflow=hidden;" parent="OjU-XeM3GScLvRBMh0__-13" vertex="1">
          <mxGeometry x="517" width="172" height="60" as="geometry">
            <mxRectangle width="172" height="60" as="alternateBounds" />
          </mxGeometry>
        </mxCell>
        <mxCell id="OjU-XeM3GScLvRBMh0__-18" value="" style="shape=partialRectangle;html=1;whiteSpace=wrap;collapsible=0;dropTarget=0;pointerEvents=0;fillColor=none;top=0;left=0;bottom=0;right=0;points=[[0,0.5],[1,0.5]];portConstraint=eastwest;" parent="OjU-XeM3GScLvRBMh0__-2" vertex="1">
          <mxGeometry y="180" width="688.5" height="60" as="geometry" />
        </mxCell>
        <mxCell id="OjU-XeM3GScLvRBMh0__-19" value="&lt;font style=&quot;font-size: 15px&quot;&gt;資料更新管理&lt;/font&gt;" style="shape=partialRectangle;html=1;whiteSpace=wrap;connectable=0;fillColor=none;top=0;left=0;bottom=0;right=0;overflow=hidden;" parent="OjU-XeM3GScLvRBMh0__-18" vertex="1">
          <mxGeometry width="173" height="60" as="geometry">
            <mxRectangle width="173" height="60" as="alternateBounds" />
          </mxGeometry>
        </mxCell>
        <mxCell id="OjU-XeM3GScLvRBMh0__-20" value="" style="shape=partialRectangle;html=1;whiteSpace=wrap;connectable=0;fillColor=none;top=0;left=0;bottom=0;right=0;overflow=hidden;" parent="OjU-XeM3GScLvRBMh0__-18" vertex="1">
          <mxGeometry x="173" width="172" height="60" as="geometry">
            <mxRectangle width="172" height="60" as="alternateBounds" />
          </mxGeometry>
        </mxCell>
        <mxCell id="OjU-XeM3GScLvRBMh0__-21" style="shape=partialRectangle;html=1;whiteSpace=wrap;connectable=0;fillColor=none;top=0;left=0;bottom=0;right=0;overflow=hidden;" parent="OjU-XeM3GScLvRBMh0__-18" vertex="1">
          <mxGeometry x="345" width="172" height="60" as="geometry">
            <mxRectangle width="172" height="60" as="alternateBounds" />
          </mxGeometry>
        </mxCell>
        <mxCell id="OjU-XeM3GScLvRBMh0__-22" value="&lt;span style=&quot;font-size: 15px&quot;&gt;V&lt;/span&gt;" style="shape=partialRectangle;html=1;whiteSpace=wrap;connectable=0;fillColor=none;top=0;left=0;bottom=0;right=0;overflow=hidden;" parent="OjU-XeM3GScLvRBMh0__-18" vertex="1">
          <mxGeometry x="517" width="172" height="60" as="geometry">
            <mxRectangle width="172" height="60" as="alternateBounds" />
          </mxGeometry>
        </mxCell>
        <mxCell id="pUOkwuWH-NY2DswraHfy-0" value="08_Task\Service矩陣表_3D 台北系統" style="text;html=1;align=center;verticalAlign=middle;resizable=0;points=[];autosize=1;strokeColor=none;fillColor=none;fontSize=20;" parent="OjU-XeM3GScLvRBMh0__-1" vertex="1">
          <mxGeometry x="386.25" y="70" width="340" height="30" as="geometry" />
        </mxCell>
      </root>
    </mxGraphModel>
  </diagram>
  <diagram id="riOS8Rwgx3012WvGsIrY" name="10_SD_01_進入系統服務_民眾">
    <mxGraphModel dx="628" dy="355" grid="1" gridSize="10" guides="1" tooltips="1" connect="1" arrows="1" fold="1" page="1" pageScale="1" pageWidth="1169" pageHeight="827" math="0" shadow="0">
      <root>
        <mxCell id="l2rZPD30luuOPzpmNjVK-0" />
        <mxCell id="l2rZPD30luuOPzpmNjVK-1" parent="l2rZPD30luuOPzpmNjVK-0" />
        <mxCell id="l2rZPD30luuOPzpmNjVK-2" value=":智慧城市3D台北&lt;br&gt;Web GUI" style="shape=umlLifeline;perimeter=lifelinePerimeter;whiteSpace=wrap;html=1;container=1;collapsible=0;recursiveResize=0;outlineConnect=0;sketch=0;" parent="l2rZPD30luuOPzpmNjVK-1" vertex="1">
          <mxGeometry x="387" y="120" width="100" height="420" as="geometry" />
        </mxCell>
        <mxCell id="l2rZPD30luuOPzpmNjVK-3" value="" style="html=1;points=[];perimeter=orthogonalPerimeter;" parent="l2rZPD30luuOPzpmNjVK-2" vertex="1">
          <mxGeometry x="45" y="70" width="10" height="200" as="geometry" />
        </mxCell>
        <mxCell id="l2rZPD30luuOPzpmNjVK-4" value="1.1.1:authorize(id)" style="html=1;verticalAlign=bottom;endArrow=block;sketch=0;entryX=-0.06;entryY=0.233;entryDx=0;entryDy=0;entryPerimeter=0;" parent="l2rZPD30luuOPzpmNjVK-2" target="l2rZPD30luuOPzpmNjVK-22" edge="1">
          <mxGeometry width="80" relative="1" as="geometry">
            <mxPoint x="55" y="109" as="sourcePoint" />
            <mxPoint x="214.47000000000003" y="108.85000000000002" as="targetPoint" />
          </mxGeometry>
        </mxCell>
        <mxCell id="l2rZPD30luuOPzpmNjVK-23" value="" style="shape=umlDestroy;whiteSpace=wrap;html=1;strokeWidth=1;aspect=fixed;" parent="l2rZPD30luuOPzpmNjVK-2" vertex="1">
          <mxGeometry x="42.5" y="405" width="15" height="15" as="geometry" />
        </mxCell>
        <mxCell id="l2rZPD30luuOPzpmNjVK-5" value="民眾" style="shape=umlLifeline;participant=umlActor;perimeter=lifelinePerimeter;container=1;collapsible=0;recursiveResize=0;verticalAlign=top;spacingTop=36;outlineConnect=0;html=1;sketch=0;" parent="l2rZPD30luuOPzpmNjVK-1" vertex="1">
          <mxGeometry x="175" y="120" width="20" height="415" as="geometry" />
        </mxCell>
        <mxCell id="l2rZPD30luuOPzpmNjVK-9" value="1.1:transfer(id)" style="html=1;verticalAlign=bottom;endArrow=block;sketch=0;exitX=1.039;exitY=0.113;exitDx=0;exitDy=0;exitPerimeter=0;" parent="l2rZPD30luuOPzpmNjVK-1" source="e7kZtlN1MgexgLGHr2W6-1" edge="1">
          <mxGeometry width="80" relative="1" as="geometry">
            <mxPoint x="310" y="213" as="sourcePoint" />
            <mxPoint x="432" y="213" as="targetPoint" />
            <Array as="points">
              <mxPoint x="360" y="213" />
            </Array>
          </mxGeometry>
        </mxCell>
        <mxCell id="l2rZPD30luuOPzpmNjVK-10" value=":3D台北系統&lt;br&gt;資料庫" style="shape=umlLifeline;perimeter=lifelinePerimeter;whiteSpace=wrap;html=1;container=1;collapsible=0;recursiveResize=0;outlineConnect=0;sketch=0;" parent="l2rZPD30luuOPzpmNjVK-1" vertex="1">
          <mxGeometry x="660" y="120.5" width="100" height="420" as="geometry" />
        </mxCell>
        <mxCell id="l2rZPD30luuOPzpmNjVK-11" value="" style="html=1;points=[];perimeter=orthogonalPerimeter;" parent="l2rZPD30luuOPzpmNjVK-10" vertex="1">
          <mxGeometry x="45" y="70" width="10" height="120" as="geometry" />
        </mxCell>
        <mxCell id="l2rZPD30luuOPzpmNjVK-12" value="1.1.1.1:retrieveData(n)" style="html=1;verticalAlign=bottom;endArrow=block;sketch=0;exitX=1.059;exitY=0.309;exitDx=0;exitDy=0;exitPerimeter=0;entryX=-0.06;entryY=0.433;entryDx=0;entryDy=0;entryPerimeter=0;" parent="l2rZPD30luuOPzpmNjVK-1" target="l2rZPD30luuOPzpmNjVK-11" edge="1" source="l2rZPD30luuOPzpmNjVK-22">
          <mxGeometry x="0.0001" y="2" width="80" relative="1" as="geometry">
            <mxPoint x="602" y="243" as="sourcePoint" />
            <mxPoint x="670" y="243" as="targetPoint" />
            <mxPoint as="offset" />
          </mxGeometry>
        </mxCell>
        <mxCell id="l2rZPD30luuOPzpmNjVK-13" value="" style="html=1;points=[];perimeter=orthogonalPerimeter;sketch=0;" parent="l2rZPD30luuOPzpmNjVK-1" vertex="1">
          <mxGeometry x="181" y="190" width="10" height="90" as="geometry" />
        </mxCell>
        <mxCell id="l2rZPD30luuOPzpmNjVK-15" value="&lt;font style=&quot;font-size: 20px&quot;&gt;10_SD_01_進入系統服務_民眾&lt;/font&gt;" style="text;html=1;align=center;verticalAlign=middle;resizable=0;points=[];autosize=1;strokeColor=none;fillColor=none;" parent="l2rZPD30luuOPzpmNjVK-1" vertex="1">
          <mxGeometry x="320" y="60" width="290" height="20" as="geometry" />
        </mxCell>
        <mxCell id="l2rZPD30luuOPzpmNjVK-21" value=":權限管理子系統" style="shape=umlLifeline;perimeter=lifelinePerimeter;whiteSpace=wrap;html=1;container=1;collapsible=0;recursiveResize=0;outlineConnect=0;sketch=0;" parent="l2rZPD30luuOPzpmNjVK-1" vertex="1">
          <mxGeometry x="520" y="120" width="100" height="420" as="geometry" />
        </mxCell>
        <mxCell id="l2rZPD30luuOPzpmNjVK-22" value="" style="html=1;points=[];perimeter=orthogonalPerimeter;" parent="l2rZPD30luuOPzpmNjVK-21" vertex="1">
          <mxGeometry x="45" y="70" width="10" height="170" as="geometry" />
        </mxCell>
        <mxCell id="l2rZPD30luuOPzpmNjVK-29" value="1.1.1.1.1:get(data)" style="html=1;verticalAlign=bottom;endArrow=block;dashed=1;sketch=0;entryX=1.096;entryY=0.001;entryDx=0;entryDy=0;entryPerimeter=0;exitX=-0.034;exitY=0.529;exitDx=0;exitDy=0;exitPerimeter=0;" parent="l2rZPD30luuOPzpmNjVK-21" edge="1">
          <mxGeometry width="80" relative="1" as="geometry">
            <mxPoint x="184.66000000000008" y="165.0519999999999" as="sourcePoint" />
            <mxPoint x="55" y="166.0000000000001" as="targetPoint" />
          </mxGeometry>
        </mxCell>
        <mxCell id="l2rZPD30luuOPzpmNjVK-18" value="1.1.1.1.1.1:list(data)" style="html=1;verticalAlign=bottom;endArrow=block;dashed=1;sketch=0;entryX=1.124;entryY=0.504;entryDx=0;entryDy=0;entryPerimeter=0;" parent="l2rZPD30luuOPzpmNjVK-21" edge="1">
          <mxGeometry width="80" relative="1" as="geometry">
            <mxPoint x="45" y="185" as="sourcePoint" />
            <mxPoint x="-76.75999999999999" y="185.80000000000007" as="targetPoint" />
          </mxGeometry>
        </mxCell>
        <mxCell id="e7kZtlN1MgexgLGHr2W6-0" value=":資訊局&lt;br&gt;Web GUI" style="shape=umlLifeline;perimeter=lifelinePerimeter;whiteSpace=wrap;html=1;container=1;collapsible=0;recursiveResize=0;outlineConnect=0;sketch=0;" vertex="1" parent="l2rZPD30luuOPzpmNjVK-1">
          <mxGeometry x="250" y="120.5" width="100" height="420" as="geometry" />
        </mxCell>
        <mxCell id="e7kZtlN1MgexgLGHr2W6-1" value="" style="html=1;points=[];perimeter=orthogonalPerimeter;" vertex="1" parent="e7kZtlN1MgexgLGHr2W6-0">
          <mxGeometry x="45" y="70" width="10" height="200" as="geometry" />
        </mxCell>
        <mxCell id="e7kZtlN1MgexgLGHr2W6-4" value="1:visit" style="html=1;verticalAlign=bottom;endArrow=block;sketch=0;exitX=1.079;exitY=0.112;exitDx=0;exitDy=0;exitPerimeter=0;entryX=0.033;entryY=0.001;entryDx=0;entryDy=0;entryPerimeter=0;" edge="1" parent="l2rZPD30luuOPzpmNjVK-1" target="e7kZtlN1MgexgLGHr2W6-1">
          <mxGeometry width="80" relative="1" as="geometry">
            <mxPoint x="191.00000000000017" y="189.99999999999997" as="sourcePoint" />
            <mxPoint x="290" y="190" as="targetPoint" />
            <Array as="points">
              <mxPoint x="245.20999999999998" y="190.1" />
            </Array>
          </mxGeometry>
        </mxCell>
      </root>
    </mxGraphModel>
  </diagram>
  <diagram name="10_SD_02_3D台北系統_市府員工" id="dZMS957qvVajcPs7BsTa">
    <mxGraphModel dx="1300" dy="736" grid="1" gridSize="10" guides="1" tooltips="1" connect="1" arrows="1" fold="1" page="1" pageScale="1" pageWidth="1169" pageHeight="827" math="0" shadow="0">
      <root>
        <mxCell id="9EnYMdB_R-tY7NyxVLSY-0" />
        <mxCell id="9EnYMdB_R-tY7NyxVLSY-1" parent="9EnYMdB_R-tY7NyxVLSY-0" />
        <mxCell id="9EnYMdB_R-tY7NyxVLSY-11" value="&lt;font style=&quot;font-size: 20px&quot;&gt;10_SD_02_3D台北系統_市府員工&lt;/font&gt;" style="text;html=1;align=center;verticalAlign=middle;resizable=0;points=[];autosize=1;strokeColor=none;fillColor=none;" parent="9EnYMdB_R-tY7NyxVLSY-1" vertex="1">
          <mxGeometry x="425" y="50" width="320" height="20" as="geometry" />
        </mxCell>
        <mxCell id="ZKvrLeCc4XlX2sVGu9ZF-0" value=":資料大平台&lt;br&gt;後台" style="shape=umlLifeline;perimeter=lifelinePerimeter;whiteSpace=wrap;html=1;container=1;collapsible=0;recursiveResize=0;outlineConnect=0;sketch=0;" vertex="1" parent="9EnYMdB_R-tY7NyxVLSY-1">
          <mxGeometry x="195" y="120" width="100" height="420" as="geometry" />
        </mxCell>
        <mxCell id="ZKvrLeCc4XlX2sVGu9ZF-1" value="" style="html=1;points=[];perimeter=orthogonalPerimeter;" vertex="1" parent="ZKvrLeCc4XlX2sVGu9ZF-0">
          <mxGeometry x="45" y="70" width="10" height="90" as="geometry" />
        </mxCell>
        <mxCell id="ZKvrLeCc4XlX2sVGu9ZF-2" value="1.1:transfer(id)" style="html=1;verticalAlign=bottom;endArrow=block;sketch=0;entryX=0.047;entryY=-0.001;entryDx=0;entryDy=0;entryPerimeter=0;" edge="1" parent="ZKvrLeCc4XlX2sVGu9ZF-0" target="ZKvrLeCc4XlX2sVGu9ZF-19">
          <mxGeometry width="80" relative="1" as="geometry">
            <mxPoint x="55" y="90" as="sourcePoint" />
            <mxPoint x="265" y="90" as="targetPoint" />
          </mxGeometry>
        </mxCell>
        <mxCell id="ZKvrLeCc4XlX2sVGu9ZF-3" value="市府員工" style="shape=umlLifeline;participant=umlActor;perimeter=lifelinePerimeter;container=1;collapsible=0;recursiveResize=0;verticalAlign=top;spacingTop=36;outlineConnect=0;html=1;sketch=0;" vertex="1" parent="9EnYMdB_R-tY7NyxVLSY-1">
          <mxGeometry x="92" y="120" width="20" height="415" as="geometry" />
        </mxCell>
        <mxCell id="ZKvrLeCc4XlX2sVGu9ZF-4" value=":3D台北系統&lt;br&gt;資料庫" style="shape=umlLifeline;perimeter=lifelinePerimeter;whiteSpace=wrap;html=1;container=1;collapsible=0;recursiveResize=0;outlineConnect=0;sketch=0;" vertex="1" parent="9EnYMdB_R-tY7NyxVLSY-1">
          <mxGeometry x="694" y="300" width="100" height="240" as="geometry" />
        </mxCell>
        <mxCell id="ZKvrLeCc4XlX2sVGu9ZF-5" value="" style="html=1;points=[];perimeter=orthogonalPerimeter;" vertex="1" parent="ZKvrLeCc4XlX2sVGu9ZF-4">
          <mxGeometry x="45" y="80" width="10" height="100" as="geometry" />
        </mxCell>
        <mxCell id="ZKvrLeCc4XlX2sVGu9ZF-7" value="1:login(id, pw)" style="html=1;verticalAlign=bottom;endArrow=block;exitX=0.96;exitY=-0.001;exitDx=0;exitDy=0;exitPerimeter=0;sketch=0;" edge="1" parent="9EnYMdB_R-tY7NyxVLSY-1" source="ZKvrLeCc4XlX2sVGu9ZF-11" target="ZKvrLeCc4XlX2sVGu9ZF-1">
          <mxGeometry width="80" relative="1" as="geometry">
            <mxPoint x="82" y="200" as="sourcePoint" />
            <mxPoint x="162" y="200" as="targetPoint" />
            <Array as="points">
              <mxPoint x="142" y="190" />
            </Array>
          </mxGeometry>
        </mxCell>
        <mxCell id="ZKvrLeCc4XlX2sVGu9ZF-8" value=":權限管理子系統" style="shape=umlLifeline;perimeter=lifelinePerimeter;whiteSpace=wrap;html=1;container=1;collapsible=0;recursiveResize=0;outlineConnect=0;sketch=0;" vertex="1" parent="9EnYMdB_R-tY7NyxVLSY-1">
          <mxGeometry x="779" y="120" width="100" height="420" as="geometry" />
        </mxCell>
        <mxCell id="ZKvrLeCc4XlX2sVGu9ZF-9" value="" style="html=1;points=[];perimeter=orthogonalPerimeter;" vertex="1" parent="ZKvrLeCc4XlX2sVGu9ZF-8">
          <mxGeometry x="45" y="100" width="10" height="30" as="geometry" />
        </mxCell>
        <mxCell id="ZKvrLeCc4XlX2sVGu9ZF-10" value="1.1.1:authorize(id)" style="html=1;verticalAlign=bottom;endArrow=block;sketch=0;entryX=-0.1;entryY=0.002;entryDx=0;entryDy=0;entryPerimeter=0;exitX=1.114;exitY=0.045;exitDx=0;exitDy=0;exitPerimeter=0;" edge="1" parent="9EnYMdB_R-tY7NyxVLSY-1" source="ZKvrLeCc4XlX2sVGu9ZF-19" target="ZKvrLeCc4XlX2sVGu9ZF-9">
          <mxGeometry width="80" relative="1" as="geometry">
            <mxPoint x="490" y="220" as="sourcePoint" />
            <mxPoint x="850" y="220" as="targetPoint" />
          </mxGeometry>
        </mxCell>
        <mxCell id="ZKvrLeCc4XlX2sVGu9ZF-11" value="" style="html=1;points=[];perimeter=orthogonalPerimeter;sketch=0;" vertex="1" parent="9EnYMdB_R-tY7NyxVLSY-1">
          <mxGeometry x="97" y="190" width="10" height="90" as="geometry" />
        </mxCell>
        <mxCell id="ZKvrLeCc4XlX2sVGu9ZF-12" value="1.1.2:callSystem(id)" style="html=1;verticalAlign=bottom;endArrow=block;sketch=0;entryX=-0.08;entryY=0.002;entryDx=0;entryDy=0;entryPerimeter=0;exitX=1.052;exitY=0.559;exitDx=0;exitDy=0;exitPerimeter=0;" edge="1" parent="9EnYMdB_R-tY7NyxVLSY-1" source="ZKvrLeCc4XlX2sVGu9ZF-19" target="ZKvrLeCc4XlX2sVGu9ZF-22">
          <mxGeometry width="80" relative="1" as="geometry">
            <mxPoint x="510" y="361" as="sourcePoint" />
            <mxPoint x="620.63" y="360" as="targetPoint" />
            <Array as="points" />
          </mxGeometry>
        </mxCell>
        <mxCell id="ZKvrLeCc4XlX2sVGu9ZF-14" value="1.1.1.1:retrieveData(n)" style="html=1;verticalAlign=bottom;endArrow=block;sketch=0;entryX=-0.093;entryY=0.005;entryDx=0;entryDy=0;entryPerimeter=0;exitX=1.112;exitY=0.375;exitDx=0;exitDy=0;exitPerimeter=0;" edge="1" parent="9EnYMdB_R-tY7NyxVLSY-1" source="ZKvrLeCc4XlX2sVGu9ZF-9" target="ZKvrLeCc4XlX2sVGu9ZF-25">
          <mxGeometry width="80" relative="1" as="geometry">
            <mxPoint x="960" y="231" as="sourcePoint" />
            <mxPoint x="1125.6999999999998" y="230.32999999999993" as="targetPoint" />
            <Array as="points">
              <mxPoint x="1000" y="231" />
            </Array>
          </mxGeometry>
        </mxCell>
        <mxCell id="ZKvrLeCc4XlX2sVGu9ZF-15" value="1.1.1.1.1:list(data)" style="html=1;verticalAlign=bottom;endArrow=block;dashed=1;sketch=0;exitX=-0.06;exitY=0.488;exitDx=0;exitDy=0;exitPerimeter=0;entryX=1.274;entryY=0.238;entryDx=0;entryDy=0;entryPerimeter=0;" edge="1" parent="9EnYMdB_R-tY7NyxVLSY-1" source="ZKvrLeCc4XlX2sVGu9ZF-25" target="ZKvrLeCc4XlX2sVGu9ZF-19">
          <mxGeometry width="80" relative="1" as="geometry">
            <mxPoint x="974.52" y="273.91999999999996" as="sourcePoint" />
            <mxPoint x="490.19000000000005" y="274.23" as="targetPoint" />
          </mxGeometry>
        </mxCell>
        <mxCell id="ZKvrLeCc4XlX2sVGu9ZF-18" value=":資料大平台&lt;br&gt;後台 GUI" style="shape=umlLifeline;perimeter=lifelinePerimeter;whiteSpace=wrap;html=1;container=1;collapsible=0;recursiveResize=0;outlineConnect=0;sketch=0;" vertex="1" parent="9EnYMdB_R-tY7NyxVLSY-1">
          <mxGeometry x="364" y="120" width="100" height="420" as="geometry" />
        </mxCell>
        <mxCell id="ZKvrLeCc4XlX2sVGu9ZF-19" value="" style="html=1;points=[];perimeter=orthogonalPerimeter;" vertex="1" parent="ZKvrLeCc4XlX2sVGu9ZF-18">
          <mxGeometry x="45" y="90" width="10" height="270" as="geometry" />
        </mxCell>
        <mxCell id="ZKvrLeCc4XlX2sVGu9ZF-20" value="" style="shape=umlDestroy;whiteSpace=wrap;html=1;strokeWidth=1;aspect=fixed;" vertex="1" parent="ZKvrLeCc4XlX2sVGu9ZF-18">
          <mxGeometry x="372.5" y="405" width="15" height="15" as="geometry" />
        </mxCell>
        <mxCell id="ZKvrLeCc4XlX2sVGu9ZF-21" value=":API" style="shape=umlLifeline;perimeter=lifelinePerimeter;whiteSpace=wrap;html=1;container=1;collapsible=0;recursiveResize=0;outlineConnect=0;sketch=0;" vertex="1" parent="9EnYMdB_R-tY7NyxVLSY-1">
          <mxGeometry x="524" y="300" width="100" height="240" as="geometry" />
        </mxCell>
        <mxCell id="ZKvrLeCc4XlX2sVGu9ZF-22" value="" style="html=1;points=[];perimeter=orthogonalPerimeter;" vertex="1" parent="ZKvrLeCc4XlX2sVGu9ZF-21">
          <mxGeometry x="45" y="61" width="10" height="119" as="geometry" />
        </mxCell>
        <mxCell id="ZKvrLeCc4XlX2sVGu9ZF-23" value="1.1.2.1:write(data)" style="html=1;verticalAlign=bottom;endArrow=block;sketch=0;exitX=1.017;exitY=0.522;exitDx=0;exitDy=0;exitPerimeter=0;entryX=-0.098;entryY=-0.003;entryDx=0;entryDy=0;entryPerimeter=0;" edge="1" parent="ZKvrLeCc4XlX2sVGu9ZF-21" target="ZKvrLeCc4XlX2sVGu9ZF-5">
          <mxGeometry width="80" relative="1" as="geometry">
            <mxPoint x="55.000000000000114" y="80.00000000000011" as="sourcePoint" />
            <mxPoint x="192.0300000000001" y="80.04000000000008" as="targetPoint" />
            <Array as="points" />
          </mxGeometry>
        </mxCell>
        <mxCell id="ZKvrLeCc4XlX2sVGu9ZF-24" value=":資料大平台&lt;br&gt;資料庫" style="shape=umlLifeline;perimeter=lifelinePerimeter;whiteSpace=wrap;html=1;container=1;collapsible=0;recursiveResize=0;outlineConnect=0;sketch=0;" vertex="1" parent="9EnYMdB_R-tY7NyxVLSY-1">
          <mxGeometry x="962" y="120" width="100" height="420" as="geometry" />
        </mxCell>
        <mxCell id="ZKvrLeCc4XlX2sVGu9ZF-25" value="" style="html=1;points=[];perimeter=orthogonalPerimeter;" vertex="1" parent="ZKvrLeCc4XlX2sVGu9ZF-24">
          <mxGeometry x="45" y="111" width="10" height="89" as="geometry" />
        </mxCell>
      </root>
    </mxGraphModel>
  </diagram>
  <diagram id="_jLJF69cUn94JJ14KN-9" name="10_SD_03_系統維運_維運廠商">
    <mxGraphModel dx="910" dy="515" grid="1" gridSize="10" guides="1" tooltips="1" connect="1" arrows="1" fold="1" page="1" pageScale="1" pageWidth="1169" pageHeight="827" math="0" shadow="0">
      <root>
        <mxCell id="oh7yuZAAKynhwG5PnJXW-0" />
        <mxCell id="oh7yuZAAKynhwG5PnJXW-1" parent="oh7yuZAAKynhwG5PnJXW-0" />
        <mxCell id="SH6N39X5KsJFa9a6C0pG-0" value=":智慧城市3D台北後台" style="shape=umlLifeline;perimeter=lifelinePerimeter;whiteSpace=wrap;html=1;container=1;collapsible=0;recursiveResize=0;outlineConnect=0;sketch=0;" parent="oh7yuZAAKynhwG5PnJXW-1" vertex="1">
          <mxGeometry x="263" y="120" width="100" height="420" as="geometry" />
        </mxCell>
        <mxCell id="SH6N39X5KsJFa9a6C0pG-1" value="" style="html=1;points=[];perimeter=orthogonalPerimeter;" parent="SH6N39X5KsJFa9a6C0pG-0" vertex="1">
          <mxGeometry x="45" y="70" width="10" height="90" as="geometry" />
        </mxCell>
        <mxCell id="SH6N39X5KsJFa9a6C0pG-2" value="1.1:transfer(id)" style="html=1;verticalAlign=bottom;endArrow=block;sketch=0;entryX=0.047;entryY=-0.001;entryDx=0;entryDy=0;entryPerimeter=0;" parent="SH6N39X5KsJFa9a6C0pG-0" target="SH6N39X5KsJFa9a6C0pG-20" edge="1">
          <mxGeometry width="80" relative="1" as="geometry">
            <mxPoint x="55" y="90" as="sourcePoint" />
            <mxPoint x="265" y="90" as="targetPoint" />
          </mxGeometry>
        </mxCell>
        <mxCell id="SH6N39X5KsJFa9a6C0pG-3" value="維運廠商" style="shape=umlLifeline;participant=umlActor;perimeter=lifelinePerimeter;container=1;collapsible=0;recursiveResize=0;verticalAlign=top;spacingTop=36;outlineConnect=0;html=1;sketch=0;" parent="oh7yuZAAKynhwG5PnJXW-1" vertex="1">
          <mxGeometry x="160" y="120" width="20" height="415" as="geometry" />
        </mxCell>
        <mxCell id="SH6N39X5KsJFa9a6C0pG-7" value="1:login(id, pw)" style="html=1;verticalAlign=bottom;endArrow=block;exitX=0.96;exitY=-0.001;exitDx=0;exitDy=0;exitPerimeter=0;sketch=0;" parent="oh7yuZAAKynhwG5PnJXW-1" source="SH6N39X5KsJFa9a6C0pG-11" target="SH6N39X5KsJFa9a6C0pG-1" edge="1">
          <mxGeometry width="80" relative="1" as="geometry">
            <mxPoint x="150" y="200" as="sourcePoint" />
            <mxPoint x="230" y="200" as="targetPoint" />
            <Array as="points">
              <mxPoint x="210" y="190" />
            </Array>
          </mxGeometry>
        </mxCell>
        <mxCell id="SH6N39X5KsJFa9a6C0pG-8" value=":權限管理子系統" style="shape=umlLifeline;perimeter=lifelinePerimeter;whiteSpace=wrap;html=1;container=1;collapsible=0;recursiveResize=0;outlineConnect=0;sketch=0;" parent="oh7yuZAAKynhwG5PnJXW-1" vertex="1">
          <mxGeometry x="615" y="120" width="100" height="420" as="geometry" />
        </mxCell>
        <mxCell id="SH6N39X5KsJFa9a6C0pG-9" value="" style="html=1;points=[];perimeter=orthogonalPerimeter;" parent="SH6N39X5KsJFa9a6C0pG-8" vertex="1">
          <mxGeometry x="45" y="101" width="10" height="99" as="geometry" />
        </mxCell>
        <mxCell id="SH6N39X5KsJFa9a6C0pG-10" value="1.1.1:authorize(id)" style="html=1;verticalAlign=bottom;endArrow=block;sketch=0;entryX=-0.1;entryY=0.002;entryDx=0;entryDy=0;entryPerimeter=0;exitX=1.04;exitY=0.083;exitDx=0;exitDy=0;exitPerimeter=0;" parent="oh7yuZAAKynhwG5PnJXW-1" source="SH6N39X5KsJFa9a6C0pG-20" target="SH6N39X5KsJFa9a6C0pG-9" edge="1">
          <mxGeometry width="80" relative="1" as="geometry">
            <mxPoint x="558" y="220" as="sourcePoint" />
            <mxPoint x="918" y="220" as="targetPoint" />
          </mxGeometry>
        </mxCell>
        <mxCell id="SH6N39X5KsJFa9a6C0pG-11" value="" style="html=1;points=[];perimeter=orthogonalPerimeter;sketch=0;" parent="oh7yuZAAKynhwG5PnJXW-1" vertex="1">
          <mxGeometry x="165" y="190" width="10" height="90" as="geometry" />
        </mxCell>
        <mxCell id="SH6N39X5KsJFa9a6C0pG-13" value="&lt;font style=&quot;font-size: 20px&quot;&gt;10_SD_03_系統維運_維運廠商&lt;/font&gt;" style="text;html=1;align=center;verticalAlign=middle;resizable=0;points=[];autosize=1;strokeColor=none;fillColor=none;" parent="oh7yuZAAKynhwG5PnJXW-1" vertex="1">
          <mxGeometry x="390" y="50" width="290" height="20" as="geometry" />
        </mxCell>
        <mxCell id="SH6N39X5KsJFa9a6C0pG-15" value="1.1.1.1:retrieveData(n)" style="html=1;verticalAlign=bottom;endArrow=block;sketch=0;entryX=-0.093;entryY=0.005;entryDx=0;entryDy=0;entryPerimeter=0;exitX=1;exitY=0.116;exitDx=0;exitDy=0;exitPerimeter=0;" parent="oh7yuZAAKynhwG5PnJXW-1" source="SH6N39X5KsJFa9a6C0pG-9" target="SH6N39X5KsJFa9a6C0pG-26" edge="1">
          <mxGeometry width="80" relative="1" as="geometry">
            <mxPoint x="1028" y="231" as="sourcePoint" />
            <mxPoint x="1193.6999999999998" y="230.32999999999993" as="targetPoint" />
            <Array as="points" />
          </mxGeometry>
        </mxCell>
        <mxCell id="SH6N39X5KsJFa9a6C0pG-16" value="1.1.1.1.1.1:list(data)" style="html=1;verticalAlign=bottom;endArrow=block;dashed=1;sketch=0;entryX=1.2;entryY=0.471;entryDx=0;entryDy=0;entryPerimeter=0;exitX=-0.012;exitY=0.6;exitDx=0;exitDy=0;exitPerimeter=0;" parent="oh7yuZAAKynhwG5PnJXW-1" source="SH6N39X5KsJFa9a6C0pG-9" target="SH6N39X5KsJFa9a6C0pG-20" edge="1">
          <mxGeometry width="80" relative="1" as="geometry">
            <mxPoint x="630" y="274" as="sourcePoint" />
            <mxPoint x="558.19" y="274.23" as="targetPoint" />
          </mxGeometry>
        </mxCell>
        <mxCell id="SH6N39X5KsJFa9a6C0pG-19" value=":智慧城市3D台北&lt;br&gt;後台&amp;nbsp;GUI" style="shape=umlLifeline;perimeter=lifelinePerimeter;whiteSpace=wrap;html=1;container=1;collapsible=0;recursiveResize=0;outlineConnect=0;sketch=0;" parent="oh7yuZAAKynhwG5PnJXW-1" vertex="1">
          <mxGeometry x="432" y="120" width="100" height="420" as="geometry" />
        </mxCell>
        <mxCell id="SH6N39X5KsJFa9a6C0pG-20" value="" style="html=1;points=[];perimeter=orthogonalPerimeter;" parent="SH6N39X5KsJFa9a6C0pG-19" vertex="1">
          <mxGeometry x="45" y="90" width="10" height="150" as="geometry" />
        </mxCell>
        <mxCell id="SH6N39X5KsJFa9a6C0pG-21" value="" style="shape=umlDestroy;whiteSpace=wrap;html=1;strokeWidth=1;aspect=fixed;" parent="SH6N39X5KsJFa9a6C0pG-19" vertex="1">
          <mxGeometry x="42.5" y="405" width="15" height="15" as="geometry" />
        </mxCell>
        <mxCell id="SH6N39X5KsJFa9a6C0pG-25" value=":3D台北系統&lt;br&gt;資料庫" style="shape=umlLifeline;perimeter=lifelinePerimeter;whiteSpace=wrap;html=1;container=1;collapsible=0;recursiveResize=0;outlineConnect=0;sketch=0;" parent="oh7yuZAAKynhwG5PnJXW-1" vertex="1">
          <mxGeometry x="816" y="120" width="100" height="420" as="geometry" />
        </mxCell>
        <mxCell id="SH6N39X5KsJFa9a6C0pG-26" value="" style="html=1;points=[];perimeter=orthogonalPerimeter;" parent="SH6N39X5KsJFa9a6C0pG-25" vertex="1">
          <mxGeometry x="45" y="112" width="10" height="89" as="geometry" />
        </mxCell>
        <mxCell id="SH6N39X5KsJFa9a6C0pG-27" value="1.1.1.1.1:get(data)" style="html=1;verticalAlign=bottom;endArrow=block;dashed=1;sketch=0;entryX=1.279;entryY=0.397;entryDx=0;entryDy=0;entryPerimeter=0;exitX=-0.007;exitY=0.306;exitDx=0;exitDy=0;exitPerimeter=0;" parent="oh7yuZAAKynhwG5PnJXW-1" edge="1">
          <mxGeometry width="80" relative="1" as="geometry">
            <mxPoint x="860.9299999999998" y="266.23400000000004" as="sourcePoint" />
            <mxPoint x="672.79" y="267.303" as="targetPoint" />
          </mxGeometry>
        </mxCell>
      </root>
    </mxGraphModel>
  </diagram>
  <diagram id="Y2XYfUkhzYYGeoZYelDu" name="10_SD_TEST">
    <mxGraphModel dx="1038" dy="617" grid="1" gridSize="10" guides="1" tooltips="1" connect="1" arrows="1" fold="1" page="1" pageScale="1" pageWidth="1169" pageHeight="827" math="0" shadow="0">
      <root>
        <mxCell id="0" />
        <mxCell id="1" parent="0" />
        <mxCell id="dhnwufz9ShNwmeLhh44U-1" value="&lt;b&gt;這是SD測試頁&lt;/b&gt;" style="text;html=1;align=center;verticalAlign=middle;resizable=0;points=[];autosize=1;strokeColor=none;fillColor=none;fontSize=20;" parent="1" vertex="1">
          <mxGeometry x="395" y="220" width="150" height="40" as="geometry" />
        </mxCell>
      </root>
    </mxGraphModel>
  </diagram>
</mxfile>
